<svg width="57" height="57" viewBox="0 0 57 57" fill="none" xmlns="http://www.w3.org/2000/svg" style = "color: #749775">
<path d="M9.5 19L28.5 1.61242e-06L47.5 19L28.5 38L9.5 19Z" fill="#D2E4D2"/>
<path d="M28.5 38L47.5 19L47.5 38L28.5 57V38Z" fill="#D2E4D2"/>
<path d="M28.5 38L47.5 19L47.5 38L28.5 57V38Z" fill="black" fill-opacity="0.2"/>
<path d="M28.5 38L9.5 19L9.5 38L28.5 57V38Z" fill="#D2E4D2"/>
<path d="M28.5 38L9.5 19L9.5 38L28.5 57V38Z" fill="black" fill-opacity="0.4"/>
<path d="M17 36L19 34L26 41L24 43L17 36Z" fill="#D2E4D2"/>
<path d="M24 43L26 41V45L24 47L24 43Z" fill="#D2E4D2"/>
<path d="M24 43L26 41V45L24 47L24 43Z" fill="black" fill-opacity="0.2"/>
<path d="M24 43L20 39L20 43L24 47V43Z" fill="#D2E4D2"/>
<path d="M24 43L20 39L20 43L24 47V43Z" fill="black" fill-opacity="0.4"/>
<path d="M30.5 18L34.5 14L38.5 18L34.5 22L30.5 18Z" fill="currentColor"/>
<path d="M32.5 20L30.5 18L30.5 22L32.5 23L32.5 20Z" fill="currentColor"/>
<path d="M32.5 20L30.5 18L30.5 22L32.5 23L32.5 20Z" fill="black" fill-opacity="0.4"/>
<path d="M42 35L40 33L40 37L42 39L42 35Z" fill="currentColor"/>
<path d="M42 35L40 33L40 37L42 39L42 35Z" fill="black" fill-opacity="0.4"/>
<path d="M42 37L47 32L47 34L42 39L42 37Z" fill="currentColor"/>
<path d="M42 37L47 32L47 34L42 39L42 37Z" fill="black" fill-opacity="0.2"/>
<path d="M30.1667 23.3333L37.5 16L44.8334 23.3333L37.5 30.6667L30.1667 23.3333Z" fill="#D2E4D2"/>
<path d="M37 33L40 30L40 32L37 35L37 33Z" fill="#262A26"/>
<path d="M37 33L40 30L40 32L37 35L37 33Z" fill="black" fill-opacity="0.2"/>
<path d="M42.5 27.5L45 25L45 27L42.5 29.5L42.5 27.5Z" fill="#262A26"/>
<path d="M42.5 27.5L45 25L45 27L42.5 29.5L42.5 27.5Z" fill="black" fill-opacity="0.2"/>
<path d="M37.5 30.6667L30.1667 23.3333L30.1667 26.5L35 31.5L35 35.5L37.5 38L37.5 30.6667Z" fill="#D2E4D2"/>
<path d="M37.5 30.6667L30.1667 23.3333L30.1667 26.5L35 31.5L35 35.5L37.5 38L37.5 30.6667Z" fill="black" fill-opacity="0.4"/>
<path d="M39 33L44 28L48 32L43 37L39 33Z" fill="#A59B49"/>
<path d="M43 37L48 32L48 34L43 39L43 37Z" fill="#A59B49"/>
<path d="M43 37L48 32L48 34L43 39L43 37Z" fill="black" fill-opacity="0.2"/>
<path d="M43 37L39 33L39 35L43 39L43 37Z" fill="#A59B49"/>
<path d="M43 37L39 33L39 35L43 39L43 37Z" fill="black" fill-opacity="0.4"/>
<path d="M29.5 22.5L38 14L45.5 21.5L37 30L29.5 22.5Z" fill="currentColor"/>
<path d="M37 30L45.5 21.5L45.5 23.5L37 32L37 30Z" fill="currentColor"/>
<path d="M37 30L45.5 21.5L45.5 23.5L37 32L37 30Z" fill="black" fill-opacity="0.2"/>
<path d="M37 30L29.5 22.5L29.5 24.5L37 32L37 30Z" fill="currentColor"/>
<path d="M37 30L29.5 22.5L29.5 24.5L37 32L37 30Z" fill="black" fill-opacity="0.4"/>
</svg>
