<svg width="63" height="75" viewBox="0 0 63 75" fill="none" xmlns="http://www.w3.org/2000/svg">
<ellipse cx="31.5" cy="59.0001" rx="31.5" ry="16" fill="black" fill-opacity="0.2"/>
<path d="M28.9999 3.01468C27.3065 3.25974 26.0057 4.71728 26.0057 6.47855L26.0096 6.65823C26.0151 6.76638 26.0258 6.87321 26.0409 6.97855H26.0057L23.0057 7.97855V6.97855C22.9994 6.89596 22.9993 6.81294 23.0008 6.72952L23.0057 6.47855C23.0057 3.05893 25.6464 0.258164 28.9999 3.05176e-05V3.01468ZM36.0057 6.47855L35.9999 6.69437V6.25491C36.0024 6.32917 36.0057 6.40368 36.0057 6.47855Z" fill="#73473A"/>
<path d="M15.9802 11.4187C17.9803 4.19379 39.9803 4.1938 41.9802 11.4187C43.9803 18.6438 50.4568 45.7123 52.7185 56.7029C54.9802 67.6935 2.48048 67.6935 5.09451 56.7029C7.70851 45.7124 13.9802 18.6441 15.9802 11.4187Z" fill="#E2D9CF"/>
<path d="M37.7412 7.50882C38.8311 7.95951 39.7722 8.51231 40.5009 9.16507C40.1352 10.4514 39.3722 11.6374 38.2343 12.5196L37.9648 12.7178C35.8629 14.183 33.1632 14.2375 31.042 13.0342L30.8886 12.9522C30.1094 12.4908 29.1894 11.308 30.3007 10.4463C31.091 9.83361 31.5647 9.74465 33.0371 10.4825C34.0312 10.9805 35.0334 10.7904 35.58 10.6162C35.801 10.5257 36.0174 10.4138 36.2216 10.2744C36.31 10.2036 36.4359 10.0999 36.583 9.96683C37.3161 9.3034 37.7035 8.41258 37.7412 7.50882Z" fill="#C6B9AA"/>
<path d="M29.5059 3.05176e-05C33.0954 0.000348976 36.0059 2.91038 36.0059 6.50003L35.9971 6.83499C35.8672 9.39387 34.2566 11.5609 32.0059 12.5L31.8467 12.5703C31.0046 12.9035 29.5059 12.9064 29.5059 11.5C29.5059 10.5 29.7257 10.0709 31.2109 9.35941C32.2139 8.87889 32.6777 7.97041 32.875 7.43167C32.9388 7.20156 32.983 6.96269 32.998 6.71585C32.9962 6.6026 32.9916 6.43926 32.9766 6.24124C32.8398 4.44537 31.4094 3.08739 29.6748 3.00394L29.5059 3.00003C29.3341 3.00003 29.1651 3.01227 29 3.03616V0.0205383C29.1669 0.00769187 29.3357 3.05176e-05 29.5059 3.05176e-05Z" fill="#73473A"/>
<path d="M42.7646 14.3839C45.3181 24.2647 50.6996 46.8911 52.7188 56.7032C54.0557 63.2027 36.2411 65.857 22 64.669V19.0001C22 19.0001 22.5 21.0001 31.5 20.0001C38.9789 19.1691 41.9675 15.5747 42.7646 14.3839Z" fill="#C6B9AA"/>
<ellipse cx="31.4061" cy="1.81011" rx="2.18845" ry="1" transform="rotate(-155.768 31.4061 1.81011)" fill="#AA8277"/>
</svg>
