<svg width="60" height="57" viewBox="0 0 60 57" fill="none" xmlns="http://www.w3.org/2000/svg" style = "color: #749775">
<path d="M27.4999 16L31.4999 12L44.4999 25L40.4999 29L27.4999 16Z" fill="#EAE18F"/>
<path d="M40.4999 29L44.4999 25L44.4999 29L40.4999 33V29Z" fill="#EAE18F"/>
<path d="M40.4999 29L44.4999 25L44.4999 29L40.4999 33V29Z" fill="black" fill-opacity="0.2"/>
<path d="M40.4999 29L27.4999 16L27.4999 20L40.4999 33L40.4999 29Z" fill="#EAE18F"/>
<path d="M40.4999 29L27.4999 16L27.4999 20L40.4999 33L40.4999 29Z" fill="black" fill-opacity="0.4"/>
<path d="M38.9999 28L45.9999 21L52.9999 28L45.9999 35L38.9999 28Z" fill="#EAE18F"/>
<path d="M45.9999 35L52.9999 28L52.9999 35L45.9999 42V35Z" fill="#EAE18F"/>
<path d="M45.9999 35L52.9999 28L52.9999 35L45.9999 42V35Z" fill="black" fill-opacity="0.2"/>
<path d="M45.9999 35L38.9999 28L38.9999 35L45.9999 42V35Z" fill="#EAE18F"/>
<path d="M45.9999 35L38.9999 28L38.9999 35L45.9999 42V35Z" fill="black" fill-opacity="0.4"/>
<path d="M34.4999 33L36.4999 31L36.4999 33L34.4999 35V33Z" fill="#504E3C"/>
<path d="M34.4999 33L36.4999 31L36.4999 33L34.4999 35V33Z" fill="black" fill-opacity="0.2"/>
<path d="M34.5 33L32.5 31L32.5 33L34.5 35V33Z" fill="#504E3C"/>
<path d="M34.5 33L32.5 31L32.5 33L34.5 35V33Z" fill="black" fill-opacity="0.4"/>
<path d="M24.4999 43L26.4999 41L26.4999 43L24.4999 45V43Z" fill="#504E3C"/>
<path d="M24.4999 43L26.4999 41L26.4999 43L24.4999 45V43Z" fill="black" fill-opacity="0.2"/>
<path d="M24.4999 43L22.4999 41L22.4999 43L24.4999 45V43Z" fill="#504E3C"/>
<path d="M24.4999 43L22.4999 41L22.4999 43L24.4999 45V43Z" fill="black" fill-opacity="0.4"/>
<path d="M2.00038 30.5002L12.4999 20L12.5003 28.0001L6.00029 34.5002L2.00038 30.5002Z" fill="#EAE18F"/>
<path d="M8.49994 32L12.4999 28L12.4999 32L8.49994 36V32Z" fill="#EAE18F"/>
<path d="M8.49994 32L12.4999 28L12.4999 32L8.49994 36V32Z" fill="black" fill-opacity="0.2"/>
<path d="M16.4999 26L20.4999 22L20.4999 26L16.4999 30V26Z" fill="#EAE18F"/>
<path d="M16.4999 26L20.4999 22L20.4999 26L16.4999 30V26Z" fill="black" fill-opacity="0.2"/>
<path d="M5.99998 34.5002L2.00019 30.5001L2.00027 34.5002L5.99998 38.5002L5.99998 34.5002Z" fill="#EAE18F"/>
<path d="M5.99998 34.5002L2.00019 30.5001L2.00027 34.5002L5.99998 38.5002L5.99998 34.5002Z" fill="black" fill-opacity="0.4"/>
<path d="M24.4999 45L34.9999 34.5L38.9999 38.5L28.4999 49L24.4999 45Z" fill="#EAE18F"/>
<path d="M28.4999 49L38.9999 38.5L38.9999 42.5L28.4999 53L28.4999 49Z" fill="#EAE18F"/>
<path d="M28.4999 49L38.9999 38.5L38.9999 42.5L28.4999 53L28.4999 49Z" fill="black" fill-opacity="0.2"/>
<path d="M34.4999 26L36.4999 24L36.4999 31L34.4999 33L34.4999 26Z" fill="#EAE18F"/>
<path d="M34.4999 26L36.4999 24L36.4999 31L34.4999 33L34.4999 26Z" fill="black" fill-opacity="0.2"/>
<path d="M34.4999 26L32.4999 28L32.4999 31L34.4999 33L34.4999 26Z" fill="#EAE18F"/>
<path d="M34.4999 26L32.4999 28L32.4999 31L34.4999 33L34.4999 26Z" fill="black" fill-opacity="0.4"/>
<path d="M24.4999 36L26.4999 34L26.4999 41L24.4999 43L24.4999 36Z" fill="#EAE18F"/>
<path d="M24.4999 36L26.4999 34L26.4999 41L24.4999 43L24.4999 36Z" fill="black" fill-opacity="0.2"/>
<path d="M24.4999 36L22.5 34L22.4999 41L24.4999 43L24.4999 36Z" fill="#EAE18F"/>
<path d="M24.4999 36L22.5 34L22.4999 41L24.4999 43L24.4999 36Z" fill="black" fill-opacity="0.4"/>
<path d="M14.4999 33L16.4999 31L16.4999 33L14.4999 35V33Z" fill="#504E3C"/>
<path d="M14.4999 33L16.4999 31L16.4999 33L14.4999 35V33Z" fill="black" fill-opacity="0.2"/>
<path d="M14.4999 33L12.4999 31L12.4999 33L14.4999 35V33Z" fill="#504E3C"/>
<path d="M14.4999 33L12.4999 31L12.4999 33L14.4999 35V33Z" fill="black" fill-opacity="0.4"/>
<path d="M14.4999 26L16.4999 24L16.4999 31L14.4999 33L14.4999 26Z" fill="#EAE18F"/>
<path d="M14.4999 26L16.4999 24L16.4999 31L14.4999 33L14.4999 26Z" fill="black" fill-opacity="0.2"/>
<path d="M14.4999 26L12.5 24L12.4999 31L14.4999 33L14.4999 26Z" fill="#EAE18F"/>
<path d="M14.4999 26L12.5 24L12.4999 31L14.4999 33L14.4999 26Z" fill="black" fill-opacity="0.4"/>
<path d="M12.4999 12L24.4999 1.28189e-06L36.4999 12L24.4999 24L12.4999 12Z" fill="#EAE18F"/>
<path d="M24.4999 24L36.4999 12L36.4999 24L24.4999 36L24.4999 24Z" fill="#EAE18F"/>
<path d="M24.4999 24L36.4999 12L36.4999 24L24.4999 36L24.4999 24Z" fill="black" fill-opacity="0.2"/>
<path d="M24.4999 24L12.4999 12L12.4999 24L24.4999 36L24.4999 24Z" fill="#EAE18F"/>
<path d="M24.4999 24L12.4999 12L12.4999 24L24.4999 36L24.4999 24Z" fill="black" fill-opacity="0.4"/>
<path d="M5.99994 34.5L9.99994 30.5L28.4999 49L24.4999 53L5.99994 34.5Z" fill="#EAE18F"/>
<path d="M24.4999 53L28.4999 49L28.4999 53L24.4999 57V53Z" fill="#EAE18F"/>
<path d="M24.4999 53L28.4999 49L28.4999 53L24.4999 57V53Z" fill="black" fill-opacity="0.2"/>
<path d="M24.4999 53L5.99993 34.5L5.99994 38.5L24.4999 57L24.4999 53Z" fill="#EAE18F"/>
<path d="M24.4999 53L5.99993 34.5L5.99994 38.5L24.4999 57L24.4999 53Z" fill="black" fill-opacity="0.4"/>
<path d="M39.9999 25L40.9999 24L41.9999 25L40.9999 26L39.9999 25Z" fill="#504E3C"/>
<path d="M40.9999 26L41.9999 25L41.9999 28L40.9999 29L40.9999 26Z" fill="#504E3C"/>
<path d="M40.9999 26L41.9999 25L41.9999 28L40.9999 29L40.9999 26Z" fill="black" fill-opacity="0.2"/>
<path d="M40.9999 26L39.9999 25L39.9999 28L40.9999 29L40.9999 26Z" fill="#504E3C"/>
<path d="M40.9999 26L39.9999 25L39.9999 28L40.9999 29L40.9999 26Z" fill="black" fill-opacity="0.4"/>
<path d="M44.9999 20L45.9999 19L46.9999 20L45.9999 21L44.9999 20Z" fill="#504E3C"/>
<path d="M45.9999 21L46.9999 20L46.9999 23L45.9999 24L45.9999 21Z" fill="#504E3C"/>
<path d="M45.9999 21L46.9999 20L46.9999 23L45.9999 24L45.9999 21Z" fill="black" fill-opacity="0.2"/>
<path d="M45.9999 21L44.9999 20L44.9999 23L45.9999 24L45.9999 21Z" fill="#504E3C"/>
<path d="M45.9999 21L44.9999 20L44.9999 23L45.9999 24L45.9999 21Z" fill="black" fill-opacity="0.4"/>
<path d="M46.2499 36.5L48.7499 34L48.7499 35.5L46.2499 38L46.2499 36.5Z" fill="#504E3C"/>
<path d="M46.2499 36.5L48.7499 34L48.7499 35.5L46.2499 38L46.2499 36.5Z" fill="black" fill-opacity="0.2"/>
<path d="M50.2499 32.5L52.7499 30L52.7499 31.5L50.2499 34L50.2499 32.5Z" fill="#504E3C"/>
<path d="M50.2499 32.5L52.7499 30L52.7499 31.5L50.2499 34L50.2499 32.5Z" fill="black" fill-opacity="0.2"/>
<path d="M46.7352 38.7647L52.4999 33L58.2646 38.7647L52.4999 44.5294L46.7352 38.7647Z" fill="#EAE18F"/>
<path d="M50.4736 42.5031L56.2383 36.7384L58.2647 38.7647L52.5 44.5294L50.4736 42.5031Z" fill="#504E3C"/>
<path d="M52.4999 44.5294L58.2646 38.7647L58.2646 41.2353L52.4999 47L52.4999 44.5294Z" fill="#504E3C"/>
<path d="M52.4999 44.5294L58.2646 38.7647L58.2646 41.2353L52.4999 47L52.4999 44.5294Z" fill="black" fill-opacity="0.2"/>
<path d="M52.4999 44.5294L46.7352 38.7647L46.7352 41.2353L52.4999 47L52.4999 44.5294Z" fill="#EAE18F"/>
<path d="M52.4999 44.5294L46.7352 38.7647L46.7352 41.2353L52.4999 47L52.4999 44.5294Z" fill="black" fill-opacity="0.4"/>
<path d="M52.4999 44.5294L50.4411 42.4706L50.4411 44.9412L52.4999 47L52.4999 44.5294Z" fill="#504E3C"/>
<path d="M52.4999 44.5294L50.4411 42.4706L50.4411 44.9412L52.4999 47L52.4999 44.5294Z" fill="black" fill-opacity="0.4"/>
<path d="M24.4999 7.00002L28.4999 3.00002L32.4999 7.00002L28.4999 11L24.4999 7.00002Z" fill="#EAE18F"/>
<path d="M28.4999 11L32.4999 7.00003L32.4999 16L28.4999 20L28.4999 11Z" fill="#EAE18F"/>
<path d="M28.4999 11L32.4999 7.00003L32.4999 16L28.4999 20L28.4999 11Z" fill="black" fill-opacity="0.2"/>
<path d="M28.4999 11L24.4999 7.00002L24.4999 16L28.4999 20L28.4999 11Z" fill="#EAE18F"/>
<path d="M28.4999 11L24.4999 7.00002L24.4999 16L28.4999 20L28.4999 11Z" fill="black" fill-opacity="0.4"/>
<path d="M34.4999 21L38.4999 17L42.4999 21L38.4999 25L34.4999 21Z" fill="#EAE18F"/>
<path d="M38.4999 25L42.4999 21L42.4999 39L38.4999 43L38.4999 25Z" fill="#EAE18F"/>
<path d="M38.4999 25L42.4999 21L42.4999 39L38.4999 43L38.4999 25Z" fill="black" fill-opacity="0.2"/>
<path d="M38.4999 25L34.4999 21L34.4999 35L38.4999 39L38.4999 25Z" fill="#EAE18F"/>
<path d="M38.4999 25L34.4999 21L34.4999 35L38.4999 39L38.4999 25Z" fill="black" fill-opacity="0.4"/>
<path d="M28.5 11L32.5 7.00002L42.4999 17L38.4999 21L28.5 11Z" fill="#EAE18F"/>
<path d="M38.4999 21L42.4999 17L42.4999 21L38.4999 25L38.4999 21Z" fill="#EAE18F"/>
<path d="M38.4999 21L42.4999 17L42.4999 21L38.4999 25L38.4999 21Z" fill="black" fill-opacity="0.2"/>
<path d="M38.4999 21L28.5 11L28.5 15L38.4999 25L38.4999 21Z" fill="#EAE18F"/>
<path d="M38.4999 21L28.5 11L28.5 15L38.4999 25L38.4999 21Z" fill="black" fill-opacity="0.4"/>
<path d="M25.4999 8L28.4999 5.00001L30.4999 7.00002L27.4999 10L25.4999 8Z" fill="currentColor"/>
<path d="M32.4999 13L35.4999 10L37.4999 12L34.4999 15L32.4999 13Z" fill="currentColor"/>
<path d="M38.4999 25L40.4999 23L40.4999 25L38.4999 27V25Z" fill="currentColor"/>
<path d="M38.4999 25L40.4999 23L40.4999 25L38.4999 27V25Z" fill="black" fill-opacity="0.2"/>
<path d="M25.4999 32L27.4999 30L27.4999 32L25.4999 34V32Z" fill="currentColor"/>
<path d="M25.4999 32L27.4999 30L27.4999 32L25.4999 34V32Z" fill="black" fill-opacity="0.2"/>
<path d="M24.4999 38L25.4999 37V39L24.4999 40L24.4999 38Z" fill="currentColor"/>
<path d="M24.4999 38L25.4999 37V39L24.4999 40L24.4999 38Z" fill="black" fill-opacity="0.2"/>
<path d="M27.4999 24L29.4999 22L29.4999 26L27.4999 28L27.4999 24Z" fill="currentColor"/>
<path d="M27.4999 24L29.4999 22L29.4999 26L27.4999 28L27.4999 24Z" fill="black" fill-opacity="0.2"/>
<path d="M32.4999 22L33.9999 20.5L34.4999 21L34.4999 24L32.4999 26L32.4999 22Z" fill="currentColor"/>
<path d="M32.4999 22L33.9999 20.5L34.4999 21L34.4999 24L32.4999 26L32.4999 22Z" fill="black" fill-opacity="0.2"/>
<path d="M29.4999 16L30.9999 17.5L29.4999 19V16Z" fill="currentColor"/>
<path d="M29.4999 16L30.9999 17.5L29.4999 19V16Z" fill="black" fill-opacity="0.2"/>
<path d="M28.4999 49L31.4999 46L31.4999 48L28.4999 51L28.4999 49Z" fill="currentColor"/>
<path d="M28.4999 49L31.4999 46L31.4999 48L28.4999 51L28.4999 49Z" fill="black" fill-opacity="0.2"/>
<path d="M37.4999 41L39.4999 39L39.4999 41L37.4999 43V41Z" fill="currentColor"/>
<path d="M37.4999 41L39.4999 39L39.4999 41L37.4999 43V41Z" fill="black" fill-opacity="0.2"/>
<path d="M40.4999 34L42.4999 32L42.4999 34L40.4999 36V34Z" fill="currentColor"/>
<path d="M40.4999 34L42.4999 32L42.4999 34L40.4999 36V34Z" fill="black" fill-opacity="0.2"/>
<path d="M42.4999 26L44.4999 28L42.4999 30L42.4999 26Z" fill="currentColor"/>
<path d="M3.49994 32L6.49993 29L8.49995 31L5.49994 34L3.49994 32Z" fill="currentColor"/>
<path d="M26.4999 47L29.4999 44L31.4999 46L28.4999 49L26.4999 47Z" fill="currentColor"/>
<path d="M16.4999 45L19.4999 42L21.4999 44L18.4999 47L16.4999 45Z" fill="currentColor"/>
<path d="M21.4999 3L23.4999 1.00001L26.4999 4L24.4999 6L21.4999 3Z" fill="currentColor"/>
<path d="M30.4999 39L32.4999 37L35.4999 40L33.4999 42L30.4999 39Z" fill="currentColor"/>
<path d="M45.4999 27L47.4999 25L50.4999 28L48.4999 30L45.4999 27Z" fill="currentColor"/>
<path d="M50.4999 38L53.4999 35L55.4999 37L52.4999 40L50.4999 38Z" fill="currentColor"/>
<path d="M13.4999 38L15.4999 36L18.4999 39L16.4999 41L13.4999 38Z" fill="currentColor"/>
<path d="M8.49994 26L10.4999 24L12.4999 26L12.4999 28L11.4999 29L8.49994 26Z" fill="currentColor"/>
<path d="M14.4999 14L16.4999 12L19.4999 15L17.4999 17L14.4999 14Z" fill="currentColor"/>
<path d="M14.4999 16L14.4999 14L17.4999 17L17.4999 19L14.4999 16Z" fill="currentColor"/>
<path d="M14.4999 16L14.4999 14L17.4999 17L17.4999 19L14.4999 16Z" fill="black" fill-opacity="0.4"/>
<path d="M33.4999 27L34.4999 26L34.4999 28L33.4999 27Z" fill="currentColor"/>
<path d="M33.4999 27L34.4999 26L34.4999 28L33.4999 27Z" fill="black" fill-opacity="0.4"/>
<path d="M34.4999 33L34.4999 30L37.4999 33L37.4999 36L34.4999 33Z" fill="currentColor"/>
<path d="M34.4999 33L34.4999 30L37.4999 33L37.4999 36L34.4999 33Z" fill="black" fill-opacity="0.4"/>
<path d="M35.4999 24L35.4999 22L38.4999 25L38.4999 27L35.4999 24Z" fill="currentColor"/>
<path d="M35.4999 24L35.4999 22L38.4999 25L38.4999 27L35.4999 24Z" fill="black" fill-opacity="0.4"/>
<path d="M25.4999 11L25.4999 8.00001L27.4999 10L27.4999 13L25.4999 11Z" fill="currentColor"/>
<path d="M25.4999 11L25.4999 8.00001L27.4999 10L27.4999 13L25.4999 11Z" fill="black" fill-opacity="0.4"/>
<path d="M13.4999 25L13.4999 22L15.4999 24L15.4999 27L13.4999 25Z" fill="currentColor"/>
<path d="M13.4999 25L13.4999 22L15.4999 24L15.4999 27L13.4999 25Z" fill="black" fill-opacity="0.4"/>
<path d="M18.4999 26L18.4999 24L21.4999 27L21.4999 29L18.4999 26Z" fill="currentColor"/>
<path d="M18.4999 26L18.4999 24L21.4999 27L21.4999 29L18.4999 26Z" fill="black" fill-opacity="0.4"/>
<path d="M22.4999 38L22.4999 36L24.4999 38L24.4999 40L22.4999 38Z" fill="currentColor"/>
<path d="M22.4999 38L22.4999 36L24.4999 38L24.4999 40L22.4999 38Z" fill="black" fill-opacity="0.4"/>
<path d="M20.4999 13L23.4999 10L24.4999 11L24.4999 15L23.4999 16L20.4999 13Z" fill="currentColor"/>
<path d="M3.49993 36L3.49993 32L5.49994 34L5.49994 38L3.49993 36Z" fill="currentColor"/>
<path d="M3.49993 36L3.49993 32L5.49994 34L5.49994 38L3.49993 36Z" fill="black" fill-opacity="0.4"/>
<path d="M16.4999 47V45L18.4999 47L18.4999 49L16.4999 47Z" fill="currentColor"/>
<path d="M16.4999 47V45L18.4999 47L18.4999 49L16.4999 47Z" fill="black" fill-opacity="0.4"/>
<path d="M21.4999 54L21.4999 52L24.4999 55L24.4999 57L21.4999 54Z" fill="currentColor"/>
<path d="M21.4999 54L21.4999 52L24.4999 55L24.4999 57L21.4999 54Z" fill="black" fill-opacity="0.4"/>
<path d="M42.4999 37L42.4999 34L43.4999 35L43.4999 38L42.4999 37Z" fill="currentColor"/>
<path d="M42.4999 37L42.4999 34L43.4999 35L43.4999 38L42.4999 37Z" fill="black" fill-opacity="0.4"/>
<path d="M11.4999 29L12.4999 28L12.4999 29L11.4999 30L11.4999 29Z" fill="currentColor"/>
<path d="M11.4999 29L12.4999 28L12.4999 29L11.4999 30L11.4999 29Z" fill="black" fill-opacity="0.2"/>
</svg>
