<svg width="80" height="78" viewBox="0 0 80 78" fill="none" xmlns="http://www.w3.org/2000/svg">
<circle cx="72" cy="37" r="3" fill="#FF4000"/>
<circle cx="73.5" cy="43.5" r="1.5" fill="#FF4000"/>
<circle cx="69.5" cy="15.5" r="1.5" fill="#FF4000"/>
<circle cx="13" cy="70" r="3" fill="#FF4000"/>
<circle cx="9" cy="46" r="3" fill="#FF4000"/>
<circle cx="4.5" cy="41.5" r="1.5" fill="#FF4000"/>
<path d="M66.5244 19.6514C66.5207 19.6597 66.5162 19.6728 66.5098 19.6885C66.4902 19.7363 66.4645 19.8054 66.4434 19.8838C66.4346 19.9163 66.4289 19.946 66.4238 19.9717C66.7027 20.0233 67.2922 20.041 68.375 19.8047C68.9832 19.672 69.6254 19.6686 70.2422 19.8955C70.8703 20.1267 71.3414 20.5491 71.6729 21.043C72.2868 21.9577 72.4669 23.1772 72.4961 24.3174C72.5563 26.67 71.9831 29.8214 71.249 32.8652C70.5059 35.9467 69.5616 39.0606 68.8066 41.3955C68.4286 42.5648 68.0964 43.5432 67.8584 44.2305C67.7394 44.5742 67.6432 44.8454 67.5771 45.0312C67.5441 45.1242 67.5185 45.1963 67.501 45.2451C67.4923 45.2693 67.486 45.2881 67.4814 45.3008C67.4791 45.3072 67.4768 45.312 67.4756 45.3154C67.475 45.317 67.4749 45.3184 67.4746 45.3193L67.4736 45.3203V45.3213C67.37 45.6065 67.1826 45.854 66.9355 46.0303H66.9346C66.9336 46.0309 66.9317 46.0327 66.9297 46.0342C66.9256 46.0371 66.9195 46.0419 66.9111 46.0479C66.8942 46.06 66.8684 46.0784 66.835 46.1025C66.7681 46.1507 66.6693 46.2219 66.5449 46.3125C66.2959 46.4939 65.9432 46.7529 65.5303 47.0625C64.701 47.6842 63.6411 48.4996 62.6924 49.2939C62.4962 49.4582 62.3114 49.6189 62.1367 49.7715C62.5165 49.8781 62.88 50.0273 63.2236 50.2207C64.231 50.7877 64.95 51.6598 65.4473 52.6367C66.4188 54.5457 66.6547 57.0637 66.4932 59.4639C66.3293 61.8984 65.7425 64.4254 64.873 66.4697C64.4384 67.4915 63.9136 68.4398 63.2988 69.2041C62.6963 69.953 61.9158 70.6381 60.9443 70.9316C60.8242 70.968 60.6814 71.0719 60.1484 71.4678C59.7406 71.7707 59.0354 72.2921 58.1201 72.4385C57.0955 72.6023 56.1 72.2708 55.1484 71.5264C54.2386 70.8145 53.2894 69.669 52.2305 68.0049C52.0184 67.6716 51.7745 67.5341 51.4844 67.4883C51.1457 67.4349 50.6239 67.4954 49.9336 67.8232C48.5468 68.482 46.8491 70.0548 45.4482 72.5312C45.22 72.9346 44.818 73.2094 44.3594 73.2764C41.4304 73.7042 38.7783 74.1939 36.3984 74.6084C34.0459 75.0181 31.9224 75.362 30.1523 75.4668C28.4367 75.5684 26.7497 75.472 25.46 74.7354C23.9832 73.8917 23.3526 72.4242 23.3525 70.6445C23.3525 70.3065 23.3145 70.1107 23.2832 70.0059C23.2418 70.0094 23.1865 70.0163 23.1152 70.0312C22.8062 70.0963 22.4398 70.2545 22.1104 70.4316C21.9549 70.5152 21.8257 70.5936 21.7373 70.6494C21.6936 70.677 21.6606 70.6985 21.6406 70.7119C21.6306 70.7186 21.6233 70.7234 21.6201 70.7256V70.7246H21.6211C21.6211 70.7246 21.6209 70.7248 21.6201 70.7236C21.1346 71.0637 20.4953 71.0868 19.9873 70.7812C19.479 70.4755 19.1981 69.8991 19.2715 69.3105L19.2725 69.3086C19.2728 69.3062 19.2727 69.3017 19.2734 69.2959C19.2748 69.2844 19.2774 69.2665 19.2803 69.2422C19.286 69.193 19.294 69.1176 19.3047 69.0186C19.326 68.8204 19.3563 68.5257 19.3896 68.1475C19.4564 67.3905 19.5371 66.2995 19.5908 64.9766C19.6984 62.3248 19.6969 58.7663 19.2705 55.1016C18.8422 51.4209 17.9953 47.7263 16.4668 44.749C14.9494 41.7934 12.8189 39.6447 9.8252 38.7871C8.8484 38.5073 8.04929 37.8938 7.69141 36.9111C7.37101 36.031 7.502 35.1067 7.72754 34.3486C8.18032 32.8271 9.27966 31.1127 10.4043 29.6045C11.5587 28.0564 12.862 26.5677 13.8672 25.4746C14.3717 24.926 14.8055 24.472 15.1143 24.1543C15.2083 24.0575 15.2909 23.9729 15.3604 23.9023C15.4381 23.7027 15.5496 23.4525 15.71 23.1689C16.0701 22.5323 16.6655 21.7361 17.6289 20.9619C19.5689 19.403 22.8527 18.0479 28.3594 18.0479C30.0814 18.0479 32.1661 17.5337 33.9004 16.9727C34.7503 16.6977 35.4841 16.422 36.0039 16.2158C36.2633 16.113 36.4681 16.0274 36.6064 15.9688C36.6753 15.9396 36.7276 15.9172 36.7617 15.9023C36.7788 15.8949 36.7921 15.8891 36.7998 15.8857L36.8096 15.8809C36.8126 15.8795 36.817 15.8783 36.8223 15.876C36.833 15.8712 36.8485 15.8642 36.8682 15.8555C36.9079 15.8379 36.9656 15.8117 37.04 15.7793C37.1892 15.7144 37.407 15.621 37.6826 15.5059C38.2336 15.2756 39.0211 14.9566 39.9746 14.5986C41.8768 13.8846 44.4646 13.0063 47.168 12.3682C49.8455 11.7361 52.7596 11.3094 55.2686 11.5859C57.7828 11.8631 60.2441 12.9066 61.3154 15.5371C61.6515 16.3623 62.4473 16.8776 63.4346 17.1807C63.9064 17.3255 64.3585 17.4009 64.6953 17.4385C64.8614 17.457 64.9949 17.4654 65.082 17.4697C65.1254 17.4719 65.1577 17.4732 65.1758 17.4736H65.1875C65.7091 17.4738 66.1932 17.7448 66.4658 18.1895C66.7382 18.6338 66.7602 19.1877 66.5244 19.6523V19.6514Z" fill="#FF4000" stroke="#FF4000" stroke-width="3" stroke-linejoin="round"/>
<path d="M46.0316 16.0603C48.3308 15.5077 50.8551 15.1284 53.0424 15.3737C55.2429 15.6207 57.4397 16.5599 58.3929 18.9431C58.65 19.5855 59.2622 20.0023 60.0726 20.2556C60.4585 20.3761 60.8294 20.4389 61.1068 20.4704C61.2434 20.4859 61.3521 20.4933 61.4222 20.4968C61.4569 20.4985 61.482 20.4994 61.4955 20.4997H61.5004C62.0201 20.4999 62.5025 20.7695 62.7758 21.2116C63.0487 21.6534 63.0728 22.204 62.8412 22.6687L62.8422 22.6696L62.849 22.656C62.8502 22.6534 62.8508 22.6533 62.85 22.655C62.8483 22.6586 62.8433 22.6699 62.8363 22.6872C62.8344 22.6919 62.8324 22.6967 62.8304 22.7019C63.0882 22.7105 63.5145 22.6824 64.1742 22.5359C64.7282 22.4128 65.3273 22.4063 65.9076 22.6237C66.4978 22.845 66.9332 23.2474 67.2347 23.7048C67.7894 24.5464 67.943 25.6507 67.9681 26.6501C68.0202 28.7225 67.5251 31.4849 66.8969 34.1374C66.2599 36.8269 65.4515 39.5432 64.8051 41.5788C64.4813 42.5985 64.1964 43.452 63.9926 44.0515C63.8906 44.3513 63.809 44.5884 63.7523 44.7507C63.724 44.8319 63.702 44.8945 63.6869 44.9372C63.6794 44.9586 63.6733 44.9748 63.6693 44.9861C63.6674 44.9916 63.6655 44.9957 63.6644 44.9987C63.6639 45.0003 63.6638 45.0018 63.6635 45.0027L63.6625 45.0036C63.561 45.2881 63.3765 45.536 63.1322 45.7136H63.1312C63.1305 45.7141 63.1289 45.7153 63.1273 45.7165C63.1239 45.719 63.1179 45.723 63.1107 45.7282C63.0963 45.7387 63.0746 45.7553 63.0463 45.7761C62.9894 45.8178 62.9059 45.8793 62.8002 45.9577C62.5878 46.1153 62.2864 46.341 61.934 46.6101C61.2262 47.1504 60.3232 47.8575 59.516 48.5456C59.4371 48.6129 59.3612 48.6809 59.2865 48.7458C59.5103 48.8292 59.7277 48.9297 59.9369 49.0495C60.8452 49.5699 61.4845 50.3652 61.9213 51.239C62.7728 52.9426 62.9723 55.1715 62.8334 57.2741C62.6921 59.4113 62.1869 61.6311 61.4349 63.4314C61.0591 64.3311 60.6022 65.1734 60.0619 65.8571C59.5349 66.5241 58.8341 67.1585 57.9408 67.4333C57.9528 67.4296 57.9131 67.4409 57.7933 67.5212C57.6628 67.6088 57.5442 67.7026 57.3295 67.865C56.984 68.1263 56.3403 68.6148 55.4935 68.7527C54.5328 68.909 53.6169 68.5875 52.7699 67.9128C51.9643 67.2711 51.1378 66.2505 50.2279 64.7946C50.0745 64.5494 49.9183 64.4705 49.7416 64.4421C49.5149 64.4057 49.1189 64.4405 48.556 64.7126C47.4231 65.2604 45.9973 66.5927 44.8109 68.7282C44.5846 69.1357 44.1821 69.4154 43.7211 69.4841C41.2199 69.8561 38.9558 70.2808 36.9174 70.6423C34.9069 70.9988 33.078 71.301 31.5482 71.3933C30.0725 71.4823 28.5676 71.4034 27.4017 70.7253C26.0539 69.9413 25.5004 68.5863 25.5004 66.9997C25.5004 66.8637 25.4914 66.7578 25.4818 66.6765C25.2655 66.7354 25.0092 66.8475 24.767 66.9802C24.6397 67.0499 24.5334 67.1145 24.4613 67.1609C24.4255 67.1839 24.3988 67.202 24.3832 67.2126C24.3781 67.2161 24.3741 67.2186 24.3715 67.2204H24.3705L24.3715 67.2214H24.3705L24.3695 67.2224L24.3676 67.2234C23.884 67.5663 23.2437 67.5927 22.7338 67.2898C22.2225 66.9859 21.939 66.4084 22.0111 65.8181V65.8161C22.0113 65.8141 22.0115 65.8103 22.0121 65.8054C22.0132 65.7956 22.0156 65.7803 22.0179 65.7595C22.0228 65.7171 22.0304 65.6519 22.0394 65.5661C22.0575 65.3946 22.0823 65.1393 22.1107 64.8112C22.1676 64.1542 22.2368 63.2067 22.2826 62.0573C22.3744 59.7533 22.3736 56.6633 22.0101 53.4831C21.6449 50.287 20.923 47.093 19.6293 44.5271C18.3453 41.9804 16.5607 40.1637 14.0804 39.4402C13.1841 39.1787 12.4437 38.5999 12.1146 37.6794C11.8228 36.8632 11.9447 36.0179 12.142 35.3425C12.5386 33.9853 13.496 32.4697 14.4603 31.153C15.4532 29.7973 16.5728 28.4953 17.4349 27.5407C17.868 27.0612 18.241 26.6643 18.5062 26.3864C18.5761 26.3133 18.6385 26.2483 18.6927 26.1921C18.7612 26.018 18.854 25.8052 18.9857 25.5681C19.3041 24.995 19.8289 24.281 20.6752 23.5886C22.3831 22.1913 25.2486 20.9997 30.0004 20.9997C31.4341 20.9996 33.1872 20.5615 34.6644 20.0749C35.3856 19.8374 36.0085 19.5997 36.4496 19.4216C36.6696 19.3327 36.8435 19.2592 36.9603 19.2087C37.0186 19.1835 37.0627 19.1637 37.0912 19.1511C37.1053 19.1448 37.1162 19.1402 37.1224 19.1374C37.1253 19.1361 37.1273 19.135 37.1283 19.1345H37.1293C37.132 19.1333 37.1363 19.1318 37.141 19.1296C37.1504 19.1253 37.1638 19.1188 37.181 19.1111C37.2155 19.0955 37.2653 19.0731 37.3295 19.0446C37.458 18.9877 37.6444 18.9061 37.8812 18.8054C38.3547 18.6039 39.0312 18.3254 39.85 18.0124C41.4823 17.3885 43.7059 16.6193 46.0316 16.0603Z" fill="#FFD500" stroke="#FF9500" stroke-width="3" stroke-linejoin="round"/>
<mask id="path-9-outside-1_30_2" maskUnits="userSpaceOnUse" x="-0.507141" y="13" width="80" height="61" fill="black">
<rect fill="white" x="-0.507141" y="13" width="80" height="61"/>
<path d="M47.5148 56C49.7096 56 51.1616 58.2796 50.2335 60.2686L46.0333 69.2686C45.5404 70.3248 44.4802 71 43.3146 71H35.9357C33.7411 70.9997 32.2898 68.7202 33.2179 66.7314L37.4171 57.7314C37.91 56.6753 38.9704 56.0001 40.1359 56H47.5148ZM39.0558 39C41.3593 39 42.8031 41.4883 41.6603 43.4883L29.0333 65.5869C28.5298 66.4682 27.614 67.0353 26.6007 67.0938L6.66811 68.2441C4.54424 68.3666 2.97145 66.3 3.65444 64.2852L11.5353 41.0371C11.948 39.8195 13.0905 39.0001 14.3761 39H39.0558ZM63.7228 53C65.5634 53 66.9704 54.6422 66.6876 56.4609L66.1896 59.6582C65.976 61.031 64.848 62.0775 63.463 62.1875L56.6994 62.7246C54.8708 62.8697 53.3409 61.3542 53.4689 59.5244L53.7306 55.79C53.8409 54.2186 55.1475 53.0001 56.7228 53H63.7228ZM73.2765 27C75.5293 27 76.9786 29.3904 75.9367 31.3877L67.0665 48.3877C66.5496 49.3785 65.5249 49.9999 64.4074 50H47.1749C44.9222 50 43.4727 47.6096 44.5148 45.6123L53.3839 28.6123C53.9009 27.6214 54.9264 27 56.0441 27H73.2765ZM11.048 27.8359C11.4453 26.3113 12.9544 25.3537 14.5031 25.6436L21.3839 26.9316C23.1929 27.2705 24.273 29.1433 23.6603 30.8789L22.5832 33.9297C22.1206 35.2398 20.8193 36.0608 19.4376 35.9141L12.6906 35.1973C10.8666 35.0035 9.64223 33.233 10.1046 31.458L11.048 27.8359ZM51.9611 16C54.2854 16.0003 55.7261 18.5296 54.5412 20.5293L47.4308 32.5293C46.8906 33.4408 45.9093 33.9999 44.8498 34H30.4904C28.166 33.9999 26.7245 31.4704 27.9093 29.4707L35.0207 17.4707C35.5609 16.5591 36.5421 16 37.6017 16H51.9611ZM58.2775 20.5566C58.7529 19.1761 60.2148 18.3985 61.6251 18.7764L63.5343 19.2881C65.1355 19.7172 65.9758 21.473 65.3058 22.9893C64.8 24.1338 63.5744 24.7819 62.3439 24.5547L60.4005 24.1953C58.7291 23.8865 57.7241 22.1637 58.2775 20.5566ZM24.7433 18.2305C25.9154 17.0584 27.8569 17.2087 28.8351 18.5469C29.5734 19.5571 29.522 20.9425 28.7101 21.8945L27.4269 23.3984C26.3238 24.6915 24.3291 24.7006 23.214 23.418C22.2562 22.3159 22.3134 20.6604 23.3458 19.6279L24.7433 18.2305Z"/>
</mask>
<path d="M47.5148 56C49.7096 56 51.1616 58.2796 50.2335 60.2686L46.0333 69.2686C45.5404 70.3248 44.4802 71 43.3146 71H35.9357C33.7411 70.9997 32.2898 68.7202 33.2179 66.7314L37.4171 57.7314C37.91 56.6753 38.9704 56.0001 40.1359 56H47.5148ZM39.0558 39C41.3593 39 42.8031 41.4883 41.6603 43.4883L29.0333 65.5869C28.5298 66.4682 27.614 67.0353 26.6007 67.0938L6.66811 68.2441C4.54424 68.3666 2.97145 66.3 3.65444 64.2852L11.5353 41.0371C11.948 39.8195 13.0905 39.0001 14.3761 39H39.0558ZM63.7228 53C65.5634 53 66.9704 54.6422 66.6876 56.4609L66.1896 59.6582C65.976 61.031 64.848 62.0775 63.463 62.1875L56.6994 62.7246C54.8708 62.8697 53.3409 61.3542 53.4689 59.5244L53.7306 55.79C53.8409 54.2186 55.1475 53.0001 56.7228 53H63.7228ZM73.2765 27C75.5293 27 76.9786 29.3904 75.9367 31.3877L67.0665 48.3877C66.5496 49.3785 65.5249 49.9999 64.4074 50H47.1749C44.9222 50 43.4727 47.6096 44.5148 45.6123L53.3839 28.6123C53.9009 27.6214 54.9264 27 56.0441 27H73.2765ZM11.048 27.8359C11.4453 26.3113 12.9544 25.3537 14.5031 25.6436L21.3839 26.9316C23.1929 27.2705 24.273 29.1433 23.6603 30.8789L22.5832 33.9297C22.1206 35.2398 20.8193 36.0608 19.4376 35.9141L12.6906 35.1973C10.8666 35.0035 9.64223 33.233 10.1046 31.458L11.048 27.8359ZM51.9611 16C54.2854 16.0003 55.7261 18.5296 54.5412 20.5293L47.4308 32.5293C46.8906 33.4408 45.9093 33.9999 44.8498 34H30.4904C28.166 33.9999 26.7245 31.4704 27.9093 29.4707L35.0207 17.4707C35.5609 16.5591 36.5421 16 37.6017 16H51.9611ZM58.2775 20.5566C58.7529 19.1761 60.2148 18.3985 61.6251 18.7764L63.5343 19.2881C65.1355 19.7172 65.9758 21.473 65.3058 22.9893C64.8 24.1338 63.5744 24.7819 62.3439 24.5547L60.4005 24.1953C58.7291 23.8865 57.7241 22.1637 58.2775 20.5566ZM24.7433 18.2305C25.9154 17.0584 27.8569 17.2087 28.8351 18.5469C29.5734 19.5571 29.522 20.9425 28.7101 21.8945L27.4269 23.3984C26.3238 24.6915 24.3291 24.7006 23.214 23.418C22.2562 22.3159 22.3134 20.6604 23.3458 19.6279L24.7433 18.2305Z" fill="#A35F40"/>
<path d="M50.2335 60.2686L52.9521 61.5373L52.9521 61.5371L50.2335 60.2686ZM46.0333 69.2686L43.3148 67.9998L43.3148 67.9999L46.0333 69.2686ZM35.9357 71L35.9352 74H35.9357V71ZM33.2179 66.7314L35.9365 68.0001L35.9366 67.9999L33.2179 66.7314ZM37.4171 57.7314L34.6986 56.4628L34.6985 56.463L37.4171 57.7314ZM40.1359 56L40.1359 53L40.1356 53L40.1359 56ZM41.6603 43.4883L39.0556 41.9999L39.0555 41.9999L41.6603 43.4883ZM29.0333 65.5869L31.6381 67.0753L31.6381 67.0753L29.0333 65.5869ZM26.6007 67.0938L26.4279 64.0987L26.4279 64.0987L26.6007 67.0938ZM6.66811 68.2441L6.8408 71.2392L6.84097 71.2392L6.66811 68.2441ZM3.65444 64.2852L0.813248 63.322L0.813242 63.322L3.65444 64.2852ZM11.5353 41.0371L14.3765 42.0002L14.3765 42.0002L11.5353 41.0371ZM14.3761 39L14.3761 36L14.3759 36L14.3761 39ZM66.6876 56.4609L69.6519 56.9227L69.652 56.9218L66.6876 56.4609ZM66.1896 59.6582L63.2253 59.1965L63.2253 59.1969L66.1896 59.6582ZM63.463 62.1875L63.7005 65.1781L63.7005 65.1781L63.463 62.1875ZM56.6994 62.7246L56.9367 65.7152L56.9368 65.7152L56.6994 62.7246ZM53.4689 59.5244L50.4762 59.3147L50.4762 59.3151L53.4689 59.5244ZM53.7306 55.79L50.738 55.5801L50.738 55.5803L53.7306 55.79ZM56.7228 53L56.7228 50L56.7227 50L56.7228 53ZM75.9367 31.3877L78.5964 32.7755L78.5965 32.7753L75.9367 31.3877ZM67.0665 48.3877L69.7263 49.7755L69.7263 49.7755L67.0665 48.3877ZM64.4074 50L64.4074 53L64.4077 53L64.4074 50ZM44.5148 45.6123L47.1746 47L47.1746 47L44.5148 45.6123ZM53.3839 28.6123L50.7242 27.2246L50.7242 27.2247L53.3839 28.6123ZM56.0441 27L56.0441 24L56.044 24L56.0441 27ZM11.048 27.8359L8.14495 27.0794L8.14484 27.0798L11.048 27.8359ZM14.5031 25.6436L15.0551 22.6948L15.055 22.6948L14.5031 25.6436ZM21.3839 26.9316L21.9363 23.9829L21.9359 23.9829L21.3839 26.9316ZM23.6603 30.8789L26.4892 31.8777L26.4892 31.8776L23.6603 30.8789ZM22.5832 33.9297L19.7543 32.9309L19.7543 32.9309L22.5832 33.9297ZM19.4376 35.9141L19.1207 38.8973L19.1207 38.8973L19.4376 35.9141ZM12.6906 35.1973L12.3736 38.1805L12.3736 38.1805L12.6906 35.1973ZM10.1046 31.458L13.0077 32.2143L13.0078 32.2141L10.1046 31.458ZM51.9611 16L51.9615 13H51.9611V16ZM54.5412 20.5293L51.9603 18.9999L51.9602 19L54.5412 20.5293ZM47.4308 32.5293L50.0117 34.0587L50.0118 34.0586L47.4308 32.5293ZM44.8498 34L44.8498 37L44.85 37L44.8498 34ZM30.4904 34L30.4902 37H30.4904V34ZM27.9093 29.4707L25.3285 27.9413L25.3283 27.9415L27.9093 29.4707ZM35.0207 17.4707L37.6015 19.0001L37.6015 19.0001L35.0207 17.4707ZM58.2775 20.5566L55.441 19.5797L55.4409 19.5799L58.2775 20.5566ZM61.6251 18.7764L62.4018 15.8786L62.4016 15.8786L61.6251 18.7764ZM63.5343 19.2881L62.7576 22.1858L62.7577 22.1858L63.5343 19.2881ZM65.3058 22.9893L68.0498 24.2019L68.0499 24.2018L65.3058 22.9893ZM62.3439 24.5547L61.7984 27.5047L61.7991 27.5048L62.3439 24.5547ZM60.4005 24.1953L60.9461 21.2453L60.9456 21.2452L60.4005 24.1953ZM24.7433 18.2305L26.8646 20.3518L26.8646 20.3518L24.7433 18.2305ZM28.8351 18.5469L31.2573 16.7768L31.257 16.7765L28.8351 18.5469ZM28.7101 21.8945L30.9923 23.8418L30.9928 23.8412L28.7101 21.8945ZM27.4269 23.3984L25.1447 21.4512L25.1446 21.4513L27.4269 23.3984ZM23.214 23.418L20.9497 25.386L20.95 25.3863L23.214 23.418ZM23.3458 19.6279L21.2245 17.5066L21.2245 17.5066L23.3458 19.6279ZM47.5148 56V59L47.515 59L50.2335 60.2686L52.9521 61.5371C54.8084 57.559 51.9042 53 47.5148 53V56ZM50.2335 60.2686L47.515 58.9998L43.3148 67.9998L46.0333 69.2686L48.7519 70.5373L52.9521 61.5373L50.2335 60.2686ZM46.0333 69.2686L43.3148 67.9999L43.3146 68V71V74C45.6457 74 47.7661 72.6497 48.7519 70.5372L46.0333 69.2686ZM43.3146 71V68H35.9357V71V74H43.3146V71ZM35.9357 71L35.9361 68L35.9365 68.0001L33.2179 66.7314L30.4994 65.4628C28.6433 69.4401 31.5456 73.9993 35.9352 74L35.9357 71ZM33.2179 66.7314L35.9366 67.9999L40.1358 58.9999L37.4171 57.7314L34.6985 56.463L30.4993 65.463L33.2179 66.7314ZM37.4171 57.7314L40.1357 59.0001L40.1362 59L40.1359 56L40.1356 53C37.805 53.0002 35.6845 54.3502 34.6986 56.4628L37.4171 57.7314ZM40.1359 56V59H47.5148V56V53H40.1359V56ZM39.0558 39V42L39.0556 41.9999L41.6603 43.4883L44.265 44.9767C46.5506 40.977 43.663 36 39.0558 36V39ZM41.6603 43.4883L39.0555 41.9999L26.4286 64.0986L29.0333 65.5869L31.6381 67.0753L44.2651 44.9766L41.6603 43.4883ZM29.0333 65.5869L26.4286 64.0985L26.4279 64.0987L26.6007 67.0938L26.7735 70.0888C28.7998 69.9719 30.6307 68.8382 31.6381 67.0753L29.0333 65.5869ZM26.6007 67.0938L26.4279 64.0987L6.49526 65.2491L6.66811 68.2441L6.84097 71.2392L26.7736 70.0888L26.6007 67.0938ZM6.66811 68.2441L6.49542 65.2491L6.49564 65.2483L3.65444 64.2852L0.813242 63.322C-0.55232 67.3504 2.59178 71.4842 6.8408 71.2392L6.66811 68.2441ZM3.65444 64.2852L6.49563 65.2483L14.3765 42.0002L11.5353 41.0371L8.69411 40.074L0.813248 63.322L3.65444 64.2852ZM11.5353 41.0371L14.3765 42.0002L14.3763 42L14.3761 39L14.3759 36C11.8041 36.0002 9.51938 37.6394 8.6941 40.074L11.5353 41.0371ZM14.3761 39V42H39.0558V39V36H14.3761V39ZM63.7228 53V56L63.7233 56.0001L66.6876 56.4609L69.652 56.9218C70.2176 53.2838 67.4034 50 63.7228 50V53ZM66.6876 56.4609L63.7234 55.9992L63.2253 59.1965L66.1896 59.6582L69.1538 60.12L69.6519 56.9227L66.6876 56.4609ZM66.1896 59.6582L63.2253 59.1969L63.2255 59.1969L63.463 62.1875L63.7005 65.1781C66.4708 64.9581 68.7267 62.8647 69.1539 60.1195L66.1896 59.6582ZM63.463 62.1875L63.2255 59.1969L56.4619 59.734L56.6994 62.7246L56.9368 65.7152L63.7005 65.1781L63.463 62.1875ZM56.6994 62.7246L56.462 59.734L56.4616 59.7337L53.4689 59.5244L50.4762 59.3151C50.2202 62.9749 53.2798 66.0054 56.9367 65.7152L56.6994 62.7246ZM53.4689 59.5244L56.4616 59.7342L56.7233 55.9998L53.7306 55.79L50.738 55.5803L50.4762 59.3147L53.4689 59.5244ZM53.7306 55.79L56.7233 56L56.7229 56L56.7228 53L56.7227 50C53.5715 50.0001 50.9585 52.4376 50.738 55.5801L53.7306 55.79ZM56.7228 53V56H63.7228V53V50H56.7228V53ZM73.2765 27V30L73.2768 30.0001L75.9367 31.3877L78.5965 32.7753C80.6806 28.7803 77.7816 24 73.2765 24V27ZM75.9367 31.3877L73.2769 29.9999L64.4068 46.9999L67.0665 48.3877L69.7263 49.7755L78.5964 32.7755L75.9367 31.3877ZM67.0665 48.3877L64.4068 46.9999L64.407 47L64.4074 50L64.4077 53C66.6432 52.9997 68.6925 51.7567 69.7263 49.7755L67.0665 48.3877ZM64.4074 50V47H47.1749V50V53H64.4074V50ZM47.1749 50V47L47.1746 47L44.5148 45.6123L41.855 44.2246C39.7706 48.2198 42.67 53 47.1749 53V50ZM44.5148 45.6123L47.1746 47L56.0437 30L53.3839 28.6123L50.7242 27.2247L41.855 44.2247L44.5148 45.6123ZM53.3839 28.6123L56.0437 30L56.0441 30L56.0441 27L56.044 24C53.8092 24 51.7584 25.2423 50.7242 27.2246L53.3839 28.6123ZM56.0441 27V30H73.2765V27V24H56.0441V27ZM11.048 27.8359L13.951 28.5925L13.9511 28.5923L14.5031 25.6436L15.055 22.6948C11.9576 22.115 8.93956 24.0302 8.14495 27.0794L11.048 27.8359ZM14.5031 25.6436L13.9511 28.5923L20.8319 29.8804L21.3839 26.9316L21.9359 23.9829L15.0551 22.6948L14.5031 25.6436ZM21.3839 26.9316L20.8315 29.8803L20.8314 29.8802L23.6603 30.8789L26.4892 31.8776C27.7145 28.4066 25.5544 24.6607 21.9363 23.9829L21.3839 26.9316ZM23.6603 30.8789L20.8314 29.8801L19.7543 32.9309L22.5832 33.9297L25.412 34.9285L26.4892 31.8777L23.6603 30.8789ZM22.5832 33.9297L19.7543 32.9309L19.7546 32.9309L19.4376 35.9141L19.1207 38.8973C21.8841 39.1909 24.487 37.5485 25.412 34.9285L22.5832 33.9297ZM19.4376 35.9141L19.7546 32.9309L13.0075 32.2141L12.6906 35.1973L12.3736 38.1805L19.1207 38.8973L19.4376 35.9141ZM12.6906 35.1973L13.0075 32.2141L13.0077 32.2143L10.1046 31.458L7.20153 30.7017C6.27675 34.2516 8.72555 37.7929 12.3736 38.1805L12.6906 35.1973ZM10.1046 31.458L13.0078 32.2141L13.9511 28.5921L11.048 27.8359L8.14484 27.0798L7.20148 30.7019L10.1046 31.458ZM51.9611 16L51.9606 19L51.9603 18.9999L54.5412 20.5293L57.122 22.0587C59.4918 18.0597 56.6106 13.0007 51.9615 13L51.9611 16ZM54.5412 20.5293L51.9602 19L44.8499 31L47.4308 32.5293L50.0118 34.0586L57.1221 22.0586L54.5412 20.5293ZM47.4308 32.5293L44.8499 30.9999L44.8495 31L44.8498 34L44.85 37C46.9688 36.9998 48.9312 35.882 50.0117 34.0587L47.4308 32.5293ZM44.8498 34V31H30.4904V34V37H44.8498V34ZM30.4904 34L30.4905 31L30.4903 30.9999L27.9093 29.4707L25.3283 27.9415C22.9586 31.9412 25.8417 36.9998 30.4902 37L30.4904 34ZM27.9093 29.4707L30.4902 31.0001L37.6015 19.0001L35.0207 17.4707L32.4398 15.9413L25.3285 27.9413L27.9093 29.4707ZM35.0207 17.4707L37.6015 19.0001L37.6017 19V16V13C35.4824 13 33.5202 14.1181 32.4398 15.9413L35.0207 17.4707ZM37.6017 16V19H51.9611V16V13H37.6017V16ZM58.2775 20.5566L61.114 21.5336C61.0766 21.642 60.961 21.7042 60.8487 21.6741L61.6251 18.7764L62.4016 15.8786C59.4686 15.0927 56.4293 16.7103 55.441 19.5797L58.2775 20.5566ZM61.6251 18.7764L60.8485 21.6741L62.7576 22.1858L63.5343 19.2881L64.311 16.3904L62.4018 15.8786L61.6251 18.7764ZM63.5343 19.2881L62.7577 22.1858C62.5808 22.1384 62.4879 21.9438 62.5618 21.7767L65.3058 22.9893L68.0499 24.2018C69.4636 21.0023 67.6901 17.296 64.3109 16.3903L63.5343 19.2881ZM65.3058 22.9893L62.5618 21.7766C62.6172 21.6514 62.7517 21.5793 62.8887 21.6046L62.3439 24.5547L61.7991 27.5048C64.3972 27.9846 66.9828 26.6163 68.0498 24.2019L65.3058 22.9893ZM62.3439 24.5547L62.8894 21.6047L60.9461 21.2453L60.4005 24.1953L59.855 27.1453L61.7984 27.5047L62.3439 24.5547ZM60.4005 24.1953L60.9456 21.2452C61.0783 21.2698 61.1576 21.4067 61.114 21.5333L58.2775 20.5566L55.4409 19.5799C54.2906 22.9208 56.38 26.5032 59.8554 27.1454L60.4005 24.1953ZM24.7433 18.2305L26.8646 20.3518C26.7348 20.4816 26.5207 20.4644 26.4132 20.3173L28.8351 18.5469L31.257 16.7765C29.1932 13.9531 25.0961 13.6351 22.622 16.1091L24.7433 18.2305ZM28.8351 18.5469L26.4129 20.3169C26.3323 20.2066 26.3369 20.054 26.4275 19.9479L28.7101 21.8945L30.9928 23.8412C32.7071 21.8309 32.8145 18.9077 31.2573 16.7768L28.8351 18.5469ZM28.7101 21.8945L26.4279 19.9473L25.1447 21.4512L27.4269 23.3984L29.7091 25.3457L30.9923 23.8418L28.7101 21.8945ZM27.4269 23.3984L25.1446 21.4513C25.232 21.3489 25.39 21.3484 25.478 21.4497L23.214 23.418L20.95 25.3863C23.2683 28.0529 27.4156 28.034 29.7092 25.3455L27.4269 23.3984ZM23.214 23.418L25.4783 21.45C25.5532 21.5361 25.5497 21.6667 25.4672 21.7492L23.3458 19.6279L21.2245 17.5066C19.0771 19.6541 18.9592 23.0958 20.9497 25.386L23.214 23.418ZM23.3458 19.6279L25.4672 21.7493L26.8646 20.3518L24.7433 18.2305L22.622 16.1091L21.2245 17.5066L23.3458 19.6279Z" fill="white" fill-opacity="0.2" mask="url(#path-9-outside-1_30_2)"/>
<path d="M12.6694 42.7381C13.0007 41.7026 13.9633 41 15.0505 41H21.7256C23.1063 41 24.2256 42.1193 24.2256 43.5V43.5C24.2256 44.8807 23.1063 46 21.7256 46H18.4358C17.4047 46 16.4794 46.633 16.1057 47.5939L14.0141 52.9724C13.5771 54.0962 12.3176 54.6595 11.1886 54.2361V54.2361C10.0892 53.8239 9.5067 52.6215 9.86456 51.5032L12.6694 42.7381Z" fill="#FFFDEE" fill-opacity="0.3"/>
<rect x="26.2256" y="41" width="5" height="5" rx="2.5" fill="#FFFDEE" fill-opacity="0.3"/>
<rect x="55.2256" y="54" width="5" height="5" rx="2.5" fill="#FFFDEE" fill-opacity="0.3"/>
<rect x="40.2256" y="67.8424" width="12" height="5" rx="2.5" transform="rotate(-64.6264 40.2256 67.8424)" fill="#FFFDEE" fill-opacity="0.3"/>
<path d="M13.3002 54.277C12.9051 54.277 12.5864 54.1591 12.3442 53.9233C12.1147 53.6736 12 53.3338 12 52.9038C12 52.8344 12.0127 52.7304 12.0382 52.5917C12.0637 52.453 12.0892 52.3489 12.1147 52.2796C12.3314 52.3212 12.5354 52.3489 12.7266 52.3628C12.9178 52.3628 13.1664 52.3628 13.4723 52.3628C14.1224 52.3628 14.7279 52.342 15.2888 52.3004C15.8625 52.2588 16.3787 52.2102 16.8376 52.1547C17.2966 52.0993 17.6917 52.0507 18.0232 52.0091C18.3546 51.9675 18.6095 51.9467 18.788 51.9467C19.0302 51.9467 19.2405 52.1062 19.419 52.4252C19.6102 52.7443 19.7504 53.202 19.8397 53.7984C19.521 53.7568 19.2597 53.7291 19.0557 53.7152C18.8517 53.7013 18.6733 53.6944 18.5203 53.6944C17.9722 53.6944 17.4623 53.7291 16.9906 53.7984C16.519 53.8539 16.0728 53.9163 15.6521 53.9857C15.2315 54.055 14.8299 54.1244 14.4475 54.1938C14.0651 54.2492 13.6827 54.277 13.3002 54.277Z" fill="#580707"/>
<path d="M26.6156 56.6489C27.0362 56.6489 27.3613 56.7668 27.5907 57.0026C27.8329 57.2245 27.954 57.5366 27.954 57.9389C27.954 58.0498 27.9413 58.1608 27.9158 58.2718C27.9031 58.3966 27.8839 58.5007 27.8584 58.5839C27.6927 58.5561 27.5079 58.5284 27.3039 58.5006C27.1 58.4868 26.8578 58.4798 26.5773 58.4798C26.1949 58.4798 25.7997 58.5076 25.3918 58.5631C24.9966 58.6186 24.6078 58.674 24.2254 58.7295C23.843 58.7989 23.4733 58.8613 23.1164 58.9168C22.7595 58.9723 22.428 59 22.1221 59C21.6249 59 21.1979 58.896 20.841 58.6879C20.4841 58.4798 20.2419 58.1955 20.1144 57.8349C20.1654 57.7794 20.2865 57.7239 20.4777 57.6684C20.6816 57.599 20.9238 57.5297 21.2043 57.4603C21.4975 57.3771 21.8225 57.3008 22.1795 57.2315C22.5491 57.1621 22.9252 57.0928 23.3076 57.0234C23.4861 56.1912 23.6837 55.3381 23.9004 54.4642C24.1298 53.5765 24.3593 52.6957 24.5887 51.8218C24.8309 50.9341 25.0795 50.0603 25.3344 49.2003C25.5894 48.3403 25.8443 47.508 26.0993 46.7035C25.6659 46.9254 25.2133 47.2237 24.7417 47.5982C24.2828 47.9588 23.8876 48.2987 23.5562 48.6177C23.416 48.5345 23.3458 48.3472 23.3458 48.0559C23.8175 47.3624 24.2955 46.7451 24.7799 46.2042C25.2643 45.6632 25.7997 45.0876 26.3861 44.4772C26.5263 44.3247 26.692 44.1097 26.8833 43.8323C27.0872 43.5548 27.2593 43.2774 27.3995 43C27.578 43.0555 27.8011 43.1179 28.0688 43.1873C28.3365 43.2427 28.5978 43.319 28.8527 43.4161C29.1204 43.4994 29.3563 43.6034 29.5602 43.7282C29.7769 43.8531 29.9235 43.9987 30 44.1651C29.8343 44.3177 29.6813 44.4772 29.5411 44.6437C29.4136 44.8101 29.2989 44.9905 29.1969 45.1847C28.942 45.684 28.6424 46.3845 28.2982 47.2861C27.9668 48.1738 27.6226 49.1517 27.2657 50.2198C26.9215 51.2739 26.5709 52.3767 26.214 53.528C25.8698 54.6654 25.5575 55.7334 25.2771 56.7321C25.5448 56.7044 25.787 56.6836 26.0037 56.6697C26.2331 56.6558 26.4371 56.6489 26.6156 56.6489Z" fill="#580707"/>
<path d="M7.6188 67.9028C6.77524 67.9617 5.97913 67.5072 5.60096 66.7508V66.7508C4.94064 65.4302 5.81837 63.8595 7.28914 63.7297L23.6051 62.2901C24.4166 62.2185 25.1423 61.7559 25.5499 61.0506L37.006 41.2254C37.6702 40.0758 39.1326 39.6697 40.2945 40.312V40.312C41.4963 40.9764 41.912 42.5023 41.2131 43.6844L28.3938 65.3697C27.9754 66.0774 27.2358 66.5342 26.4157 66.5914L7.6188 67.9028Z" fill="#1C1A12" fill-opacity="0.3"/>
<path d="M67.2718 46.997C66.6777 48.1344 65.3189 48.6373 64.1274 48.1607L63.8459 48.0481C62.4529 47.4909 61.8609 45.8409 62.5821 44.5253L71.0988 28.9876C71.7372 27.8228 73.1818 27.3704 74.3706 27.9629V27.9629C75.6094 28.5803 76.1003 30.0943 75.4595 31.3213L67.2718 46.997Z" fill="#1C1A12" fill-opacity="0.3"/>
<path d="M30.8958 33.6578C29.5929 33.6414 28.5211 32.6271 28.433 31.3271L28.4153 31.0664C28.3142 29.5756 29.5348 28.3296 31.0274 28.4001L39.1884 28.7851C40.4966 28.8468 41.5332 29.9117 41.5596 31.2211V31.2211C41.588 32.6274 40.4463 33.7778 39.0398 33.7602L30.8958 33.6578Z" fill="#1C1A12" fill-opacity="0.3"/>
<rect x="45.9008" y="46.7574" width="20" height="5" rx="2.5" transform="rotate(-62.0231 45.9008 46.7574)" fill="#FFFDEE" fill-opacity="0.3"/>
<rect x="48.2256" y="17" width="5" height="5" rx="2.5" fill="#FFFDEE" fill-opacity="0.3"/>
<rect x="41.2256" y="30.6603" width="10" height="5" rx="2.5" transform="rotate(-60 41.2256 30.6603)" fill="#FFFDEE" fill-opacity="0.3"/>
<rect x="12.2422" y="26" width="9" height="5" rx="2.5" transform="rotate(11.732 12.2422 26)" fill="#FFFDEE" fill-opacity="0.3"/>
<path d="M25.4997 0C25.4997 0 30.1091 2.61028 30.425 6.13081C30.8094 10.413 28.5551 12.6998 28.4549 16.9942C28.2673 25.031 34 37 34 37H22.9098C22.9098 37 20.8627 24.5996 22.9098 16.9942C24.0995 12.5743 26.846 10.6163 27.6525 6.13081C28.4589 1.64536 25.4997 0 25.4997 0Z" fill="url(#paint0_linear_30_2)"/>
<path d="M45.5003 18C45.5003 18 40.8909 20.6103 40.575 24.1308C40.1906 28.413 42.4449 30.6998 42.5451 34.9942C42.7327 43.031 37 55 37 55H48.0902C48.0902 55 50.1373 42.5996 48.0902 34.9942C46.9005 30.5743 44.154 28.6163 43.3475 24.1308C42.5411 19.6454 45.5003 18 45.5003 18Z" fill="url(#paint1_linear_30_2)"/>
<path d="M53.7498 8C53.7498 8 56.0545 9.34041 56.2125 11.1483C56.4047 13.3472 55.2776 14.5215 55.2275 16.7267C55.1337 20.8538 58 27 58 27H52.4549C52.4549 27 51.4314 20.6322 52.4549 16.7267C53.0497 14.4571 54.423 13.4516 54.8262 11.1483C55.2295 8.84492 53.7498 8 53.7498 8Z" fill="url(#paint2_linear_30_2)"/>
<defs>
<linearGradient id="paint0_linear_30_2" x1="28" y1="0" x2="28" y2="37" gradientUnits="userSpaceOnUse">
<stop stop-color="#EBBABA" stop-opacity="0"/>
<stop offset="1" stop-color="#FFDD33"/>
</linearGradient>
<linearGradient id="paint1_linear_30_2" x1="43" y1="18" x2="43" y2="55" gradientUnits="userSpaceOnUse">
<stop stop-color="#EBBABA" stop-opacity="0"/>
<stop offset="1" stop-color="#FFDD33"/>
</linearGradient>
<linearGradient id="paint2_linear_30_2" x1="55" y1="8" x2="55" y2="27" gradientUnits="userSpaceOnUse">
<stop stop-color="#EBBABA" stop-opacity="0"/>
<stop offset="1" stop-color="#FFDD33"/>
</linearGradient>
</defs>
</svg>
