<svg width="86" height="153" viewBox="0 0 86 153" preserveAspectRatio="xMidYMid meet" fill="none" xmlns="http://www.w3.org/2000/svg">
<g opacity="0.71">
<path d="M35.8144 17.3857C36.9103 15.1402 40.111 15.1402 41.2069 17.3857L71.911 80.2958C72.1624 80.8109 72.2508 81.3479 72.2069 81.8613C72.2509 82.3749 72.1626 82.9124 71.911 83.4277L41.2069 146.338C40.111 148.583 36.9103 148.583 35.8144 146.338L5.11026 83.4277C4.85875 82.9124 4.7704 82.3749 4.81436 81.8613C4.77054 81.3479 4.85886 80.8109 5.11026 80.2958L35.8144 17.3857Z" fill="#00FFFB"/>
<path d="M40.7537 147.251C39.8989 148.999 37.304 148.621 36.9841 146.702L28.0557 93.1311C28.0259 92.9523 28.0205 92.7702 28.0398 92.59L36.0458 17.5858C36.2908 15.2907 39.5851 15.1669 40.0017 17.4371L52.1138 83.448C52.3267 84.6082 53.4922 85.3331 54.6269 85.0111L70.4095 80.5322C70.7963 80.4225 71.2102 80.4613 71.5698 80.6411V80.6411C72.3656 81.039 72.6882 82.0068 72.2903 82.8026L71.0108 85.3616L40.7537 147.251Z" fill="#22A59A"/>
<path d="M36.0108 16.8616L12.0108 77.8616L17.5108 89.8616C17.5108 89.8616 5.08687 83.0138 5.01077 82.8616C4.51077 81.8616 5.01077 80.3616 5.01077 80.3616L36.0108 16.8616Z" fill="#DBFFF7"/>
</g>
</svg>
