<svg width="86" height="153" viewBox="0 0 86 153" fill="none" xmlns="http://www.w3.org/2000/svg">
<g opacity="0.71">
<path d="M35.8143 17.3851C36.9103 15.1398 40.1108 15.1399 41.2069 17.3851L71.911 80.2953C72.1624 80.8105 72.2508 81.3482 72.2069 81.8617C72.2507 82.3751 72.1624 82.912 71.911 83.4271L41.2069 146.337C40.1109 148.583 36.9104 148.584 35.8143 146.338L5.11019 83.4271C4.85884 82.912 4.77043 82.3751 4.81429 81.8617C4.77039 81.3482 4.85872 80.8105 5.11019 80.2953L35.8143 17.3851Z" fill="#FFEE00"/>
<path d="M40.7537 147.251C39.8989 148.999 37.304 148.621 36.9841 146.702L28.0557 93.1311C28.0259 92.9523 28.0205 92.7702 28.0398 92.59L36.0458 17.5858C36.2908 15.2907 39.5851 15.1669 40.0017 17.4371L52.1138 83.448C52.3267 84.6082 53.4922 85.3331 54.6269 85.0111L70.4095 80.5322C70.7963 80.4225 71.2102 80.4613 71.5698 80.6411C72.3656 81.039 72.6882 82.0068 72.2903 82.8026L71.0108 85.3616L40.7537 147.251Z" fill="#A5A022"/>
<path d="M36.0108 16.8616L12.0108 77.8616L17.5108 89.8616C17.5108 89.8616 5.08687 83.0138 5.01077 82.8616C4.51077 81.8616 5.01077 80.3616 5.01077 80.3616L36.0108 16.8616Z" fill="#FFFEDB"/>
</g>
</svg>
