<svg width="131" height="131" viewBox="0 0 131 131" fill="none" xmlns="http://www.w3.org/2000/svg">
<path d="M65.6895 6.50488C84.2056 24.0858 100.532 28.4765 112.89 27.8135C118.37 27.5194 122.906 26.2354 126.331 24.8418C124.667 62.5196 110.872 87.6044 96.7539 103.443C89.1952 111.923 81.5081 117.791 75.4678 121.517C72.4457 123.381 69.8656 124.69 67.9541 125.518C66.9948 125.933 66.2437 126.209 65.7178 126.373C65.6599 126.391 65.6062 126.404 65.5586 126.418C65.5215 126.406 65.4807 126.394 65.4375 126.379C64.9203 126.197 64.1729 125.889 63.21 125.426C61.2929 124.503 58.7023 123.055 55.665 121.03C49.5954 116.984 41.8753 110.723 34.2871 101.966C20.0933 85.5843 6.31769 60.4265 4.66504 24.4395C8.49823 25.9068 13.7505 27.3568 20.0068 27.6465C32.8282 28.24 49.1992 23.9284 65.6895 6.50488Z" fill="#8FADD4" stroke="#6497BC" stroke-width="9"/>
<circle cx="68" cy="66" r="18" fill="#ABC2DF" stroke="#6497BC" stroke-width="6"/>
<path d="M68 51C66.0302 51 64.0796 51.388 62.2597 52.1418C60.4399 52.8956 58.7863 54.0005 57.3934 55.3934C56.0005 56.7863 54.8956 58.4399 54.1418 60.2598C53.388 62.0796 53 64.0302 53 66L68 66L68 51Z" fill="#6497BC"/>
<path d="M63.2698 51.7653C60.7408 52.6058 58.4813 54.1048 56.7238 56.1082C54.9663 58.1117 53.7744 60.5471 53.2705 63.1641L68 66L63.2698 51.7653Z" fill="#C6DCED"/>
</svg>
