<svg width="106" height="80" viewBox="0 0 106 80" fill="none" xmlns="http://www.w3.org/2000/svg">
<mask id="path-1-outside-1_21_54" maskUnits="userSpaceOnUse" x="25.4929" y="19" width="80" height="61" fill="black">
<rect fill="white" x="25.4929" y="19" width="80" height="61"/>
<path d="M73.5148 62C75.7096 62 77.1616 64.2796 76.2335 66.2685L72.0333 75.2685C71.5404 76.3247 70.4802 77 69.3146 77H61.9357C59.7411 76.9996 58.2898 74.7202 59.2179 72.7314L63.4171 63.7314C63.91 62.6753 64.9704 62.0001 66.1359 62H73.5148ZM65.0558 45C67.3593 45 68.8031 47.4883 67.6603 49.4882L55.0333 71.5869C54.5298 72.4681 53.614 73.0353 52.6007 73.0937L32.6681 74.2441C30.5442 74.3666 28.9715 72.2999 29.6544 70.2851L37.5353 47.0371C37.948 45.8195 39.0905 45 40.3761 45H65.0558ZM89.7228 59C91.5634 59 92.9704 60.6422 92.6876 62.4609L92.1896 65.6582C91.976 67.0309 90.848 68.0775 89.463 68.1875L82.6994 68.7246C80.8708 68.8697 79.3409 67.3542 79.4689 65.5244L79.7306 61.79C79.8409 60.2186 81.1475 59 82.7228 59H89.7228ZM99.2765 33C101.529 33 102.979 35.3904 101.937 37.3877L93.0665 54.3877C92.5496 55.3784 91.5249 55.9998 90.4074 56H73.1749C70.9222 56 69.4727 53.6096 70.5148 51.6123L79.3839 34.6123C79.9009 33.6213 80.9264 33 82.0441 33H99.2765ZM37.048 33.8359C37.4453 32.3113 38.9544 31.3536 40.5031 31.6435L47.3839 32.9316C49.1929 33.2705 50.273 35.1433 49.6603 36.8789L48.5832 39.9296C48.1206 41.2398 46.8193 42.0608 45.4376 41.914L38.6906 41.1972C36.8666 41.0034 35.6422 39.2329 36.1046 37.458L37.048 33.8359ZM77.9611 22C80.2854 22.0003 81.7261 24.5296 80.5412 26.5293L73.4308 38.5293C72.8906 39.4408 71.9093 39.9999 70.8498 40H56.4904C54.166 39.9998 52.7245 37.4704 53.9093 35.4707L61.0207 23.4707C61.5609 22.5591 62.5421 22 63.6017 22H77.9611ZM84.2775 26.5566C84.7529 25.1761 86.2148 24.3984 87.6251 24.7763L89.5343 25.288C91.1355 25.7172 91.9758 27.473 91.3058 28.9892C90.8 30.1338 89.5744 30.7819 88.3439 30.5546L86.4005 30.1953C84.7291 29.8864 83.7241 28.1637 84.2775 26.5566ZM50.7433 24.2304C51.9154 23.0583 53.8569 23.2087 54.8351 24.5468C55.5734 25.5571 55.522 26.9424 54.7101 27.8945L53.4269 29.3984C52.3238 30.6914 50.3291 30.7006 49.214 29.4179C48.2562 28.3159 48.3134 26.6603 49.3458 25.6279L50.7433 24.2304Z"/>
</mask>
<path d="M73.5148 62C75.7096 62 77.1616 64.2796 76.2335 66.2685L72.0333 75.2685C71.5404 76.3247 70.4802 77 69.3146 77H61.9357C59.7411 76.9996 58.2898 74.7202 59.2179 72.7314L63.4171 63.7314C63.91 62.6753 64.9704 62.0001 66.1359 62H73.5148ZM65.0558 45C67.3593 45 68.8031 47.4883 67.6603 49.4882L55.0333 71.5869C54.5298 72.4681 53.614 73.0353 52.6007 73.0937L32.6681 74.2441C30.5442 74.3666 28.9715 72.2999 29.6544 70.2851L37.5353 47.0371C37.948 45.8195 39.0905 45 40.3761 45H65.0558ZM89.7228 59C91.5634 59 92.9704 60.6422 92.6876 62.4609L92.1896 65.6582C91.976 67.0309 90.848 68.0775 89.463 68.1875L82.6994 68.7246C80.8708 68.8697 79.3409 67.3542 79.4689 65.5244L79.7306 61.79C79.8409 60.2186 81.1475 59 82.7228 59H89.7228ZM99.2765 33C101.529 33 102.979 35.3904 101.937 37.3877L93.0665 54.3877C92.5496 55.3784 91.5249 55.9998 90.4074 56H73.1749C70.9222 56 69.4727 53.6096 70.5148 51.6123L79.3839 34.6123C79.9009 33.6213 80.9264 33 82.0441 33H99.2765ZM37.048 33.8359C37.4453 32.3113 38.9544 31.3536 40.5031 31.6435L47.3839 32.9316C49.1929 33.2705 50.273 35.1433 49.6603 36.8789L48.5832 39.9296C48.1206 41.2398 46.8193 42.0608 45.4376 41.914L38.6906 41.1972C36.8666 41.0034 35.6422 39.2329 36.1046 37.458L37.048 33.8359ZM77.9611 22C80.2854 22.0003 81.7261 24.5296 80.5412 26.5293L73.4308 38.5293C72.8906 39.4408 71.9093 39.9999 70.8498 40H56.4904C54.166 39.9998 52.7245 37.4704 53.9093 35.4707L61.0207 23.4707C61.5609 22.5591 62.5421 22 63.6017 22H77.9611ZM84.2775 26.5566C84.7529 25.1761 86.2148 24.3984 87.6251 24.7763L89.5343 25.288C91.1355 25.7172 91.9758 27.473 91.3058 28.9892C90.8 30.1338 89.5744 30.7819 88.3439 30.5546L86.4005 30.1953C84.7291 29.8864 83.7241 28.1637 84.2775 26.5566ZM50.7433 24.2304C51.9154 23.0583 53.8569 23.2087 54.8351 24.5468C55.5734 25.5571 55.522 26.9424 54.7101 27.8945L53.4269 29.3984C52.3238 30.6914 50.3291 30.7006 49.214 29.4179C48.2562 28.3159 48.3134 26.6603 49.3458 25.6279L50.7433 24.2304Z" fill="#CFBFB8"/>
<path d="M76.2335 66.2685L78.9521 67.5372L78.9521 67.5371L76.2335 66.2685ZM72.0333 75.2685L69.3148 73.9998L69.3148 73.9999L72.0333 75.2685ZM61.9357 77L61.9352 80H61.9357V77ZM59.2179 72.7314L61.9365 74.0001L61.9366 73.9999L59.2179 72.7314ZM63.4171 63.7314L60.6986 62.4627L60.6985 62.4629L63.4171 63.7314ZM66.1359 62V59H66.1356L66.1359 62ZM67.6603 49.4882L65.0556 47.9998L65.0555 47.9999L67.6603 49.4882ZM55.0333 71.5869L57.6381 73.0753L57.6381 73.0752L55.0333 71.5869ZM52.6007 73.0937L52.4279 70.0987L52.4279 70.0987L52.6007 73.0937ZM32.6681 74.2441L32.8408 77.2391L32.841 77.2391L32.6681 74.2441ZM29.6544 70.2851L26.8132 69.322L26.8132 69.322L29.6544 70.2851ZM37.5353 47.0371L40.3765 48.0002L40.3765 48.0002L37.5353 47.0371ZM40.3761 45V42H40.3759L40.3761 45ZM92.6876 62.4609L95.6519 62.9226L95.652 62.9218L92.6876 62.4609ZM92.1896 65.6582L89.2253 65.1964L89.2253 65.1968L92.1896 65.6582ZM89.463 68.1875L89.7005 71.178H89.7005L89.463 68.1875ZM82.6994 68.7246L82.9367 71.7152L82.9368 71.7152L82.6994 68.7246ZM79.4689 65.5244L76.4762 65.3146L76.4762 65.315L79.4689 65.5244ZM79.7306 61.79L76.738 61.58L76.738 61.5803L79.7306 61.79ZM82.7228 59V56H82.7227L82.7228 59ZM101.937 37.3877L104.596 38.7754L104.596 38.7752L101.937 37.3877ZM93.0665 54.3877L95.7263 55.7754L95.7263 55.7754L93.0665 54.3877ZM90.4074 56V59H90.4077L90.4074 56ZM70.5148 51.6123L73.1746 53L73.1746 52.9999L70.5148 51.6123ZM79.3839 34.6123L76.7242 33.2246L76.7242 33.2246L79.3839 34.6123ZM82.0441 33V30H82.044L82.0441 33ZM37.048 33.8359L34.145 33.0794L34.1448 33.0798L37.048 33.8359ZM40.5031 31.6435L41.0551 28.6947L41.055 28.6947L40.5031 31.6435ZM47.3839 32.9316L47.9363 29.9829L47.9359 29.9828L47.3839 32.9316ZM49.6603 36.8789L52.4892 37.8777L52.4892 37.8775L49.6603 36.8789ZM48.5832 39.9296L45.7543 38.9309L45.7543 38.9309L48.5832 39.9296ZM45.4376 41.914L45.1207 44.8972H45.1207L45.4376 41.914ZM38.6906 41.1972L38.3736 44.1804H38.3736L38.6906 41.1972ZM36.1046 37.458L39.0077 38.2143L39.0078 38.2141L36.1046 37.458ZM77.9611 22L77.9615 19H77.9611V22ZM80.5412 26.5293L77.9603 24.9999L77.9602 25L80.5412 26.5293ZM73.4308 38.5293L76.0117 40.0587L76.0118 40.0585L73.4308 38.5293ZM70.8498 40V43H70.85L70.8498 40ZM56.4904 40L56.4902 43H56.4904V40ZM53.9093 35.4707L51.3285 33.9412L51.3283 33.9415L53.9093 35.4707ZM61.0207 23.4707L63.6015 25.0001L63.6015 25.0001L61.0207 23.4707ZM84.2775 26.5566L81.441 25.5797L81.4409 25.5799L84.2775 26.5566ZM87.6251 24.7763L88.4018 21.8786L88.4016 21.8785L87.6251 24.7763ZM89.5343 25.288L88.7576 28.1858L88.7577 28.1858L89.5343 25.288ZM91.3058 28.9892L94.0498 30.2019L94.0499 30.2017L91.3058 28.9892ZM88.3439 30.5546L87.7984 33.5046L87.7991 33.5048L88.3439 30.5546ZM86.4005 30.1953L86.9461 27.2453L86.9456 27.2452L86.4005 30.1953ZM50.7433 24.2304L52.8646 26.3518L50.7433 24.2304ZM54.8351 24.5468L57.2573 22.7768L57.257 22.7764L54.8351 24.5468ZM54.7101 27.8945L56.9923 29.8417L56.9928 29.8412L54.7101 27.8945ZM53.4269 29.3984L51.1447 27.4512L51.1446 27.4513L53.4269 29.3984ZM49.214 29.4179L46.9497 31.3859L46.95 31.3862L49.214 29.4179ZM49.3458 25.6279L47.2245 23.5066V23.5066L49.3458 25.6279ZM73.5148 62V65L73.515 64.9999L76.2335 66.2685L78.9521 67.5371C80.8084 63.559 77.9042 59 73.5148 59V62ZM76.2335 66.2685L73.515 64.9998L69.3148 73.9998L72.0333 75.2685L74.7519 76.5372L78.9521 67.5372L76.2335 66.2685ZM72.0333 75.2685L69.3148 73.9999L69.3146 74V77V80C71.6457 80 73.7661 78.6497 74.7519 76.5372L72.0333 75.2685ZM69.3146 77V74H61.9357V77V80H69.3146V77ZM61.9357 77L61.9361 74L61.9365 74.0001L59.2179 72.7314L56.4994 71.4627C54.6433 75.44 57.5456 79.9993 61.9352 80L61.9357 77ZM59.2179 72.7314L61.9366 73.9999L66.1358 64.9999L63.4171 63.7314L60.6985 62.4629L56.4993 71.4629L59.2179 72.7314ZM63.4171 63.7314L66.1357 65.0001L66.1362 65L66.1359 62L66.1356 59C63.805 59.0002 61.6845 60.3501 60.6986 62.4627L63.4171 63.7314ZM66.1359 62V65H73.5148V62V59H66.1359V62ZM65.0558 45V48L65.0556 47.9998L67.6603 49.4882L70.265 50.9767C72.5506 46.977 69.663 42 65.0558 42V45ZM67.6603 49.4882L65.0555 47.9999L52.4286 70.0985L55.0333 71.5869L57.6381 73.0752L70.2651 50.9766L67.6603 49.4882ZM55.0333 71.5869L52.4286 70.0985L52.4279 70.0987L52.6007 73.0937L52.7735 76.0887C54.7998 75.9718 56.6307 74.8382 57.6381 73.0753L55.0333 71.5869ZM52.6007 73.0937L52.4279 70.0987L32.4953 71.2491L32.6681 74.2441L32.841 77.2391L52.7736 76.0887L52.6007 73.0937ZM32.6681 74.2441L32.4954 71.2491L32.4956 71.2482L29.6544 70.2851L26.8132 69.322C25.4477 73.3504 28.5918 77.4841 32.8408 77.2391L32.6681 74.2441ZM29.6544 70.2851L32.4956 71.2483L40.3765 48.0002L37.5353 47.0371L34.6941 46.0739L26.8132 69.322L29.6544 70.2851ZM37.5353 47.0371L40.3765 48.0002L40.3763 48L40.3761 45L40.3759 42C37.8041 42.0001 35.5194 43.6394 34.6941 46.074L37.5353 47.0371ZM40.3761 45V48H65.0558V45V42H40.3761V45ZM89.7228 59V62L89.7233 62L92.6876 62.4609L95.652 62.9218C96.2176 59.2838 93.4034 56 89.7228 56V59ZM92.6876 62.4609L89.7234 61.9991L89.2253 65.1964L92.1896 65.6582L95.1538 66.1199L95.6519 62.9226L92.6876 62.4609ZM92.1896 65.6582L89.2253 65.1968L89.2255 65.1969L89.463 68.1875L89.7005 71.178C92.4708 70.958 94.7267 68.8647 95.1539 66.1195L92.1896 65.6582ZM89.463 68.1875L89.2255 65.1969L82.4619 65.734L82.6994 68.7246L82.9368 71.7152L89.7005 71.178L89.463 68.1875ZM82.6994 68.7246L82.462 65.734L82.4616 65.7337L79.4689 65.5244L76.4762 65.315C76.2202 68.9748 79.2798 72.0054 82.9367 71.7152L82.6994 68.7246ZM79.4689 65.5244L82.4616 65.7341L82.7233 61.9997L79.7306 61.79L76.738 61.5803L76.4762 65.3146L79.4689 65.5244ZM79.7306 61.79L82.7233 62L82.7229 62L82.7228 59L82.7227 56C79.5715 56.0001 76.9585 58.4376 76.738 61.58L79.7306 61.79ZM82.7228 59V62H89.7228V59V56H82.7228V59ZM99.2765 33V36L99.2768 36.0001L101.937 37.3877L104.596 38.7752C106.681 34.7803 103.782 30 99.2765 30V33ZM101.937 37.3877L99.2769 35.9999L90.4068 52.9999L93.0665 54.3877L95.7263 55.7754L104.596 38.7754L101.937 37.3877ZM93.0665 54.3877L90.4068 52.9999L90.407 53L90.4074 56L90.4077 59C92.6432 58.9997 94.6925 57.7567 95.7263 55.7754L93.0665 54.3877ZM90.4074 56V53H73.1749V56V59H90.4074V56ZM73.1749 56V53L73.1746 53L70.5148 51.6123L67.855 50.2246C65.7706 54.2197 68.67 59 73.1749 59V56ZM70.5148 51.6123L73.1746 52.9999L82.0437 35.9999L79.3839 34.6123L76.7242 33.2246L67.855 50.2246L70.5148 51.6123ZM79.3839 34.6123L82.0437 36L82.0441 36L82.0441 33L82.044 30C79.8092 30 77.7584 31.2423 76.7242 33.2246L79.3839 34.6123ZM82.0441 33V36H99.2765V33V30H82.0441V33ZM37.048 33.8359L39.951 34.5924L39.9511 34.5923L40.5031 31.6435L41.055 28.6947C37.9576 28.115 34.9396 30.0302 34.145 33.0794L37.048 33.8359ZM40.5031 31.6435L39.9511 34.5923L46.8319 35.8804L47.3839 32.9316L47.9359 29.9828L41.0551 28.6947L40.5031 31.6435ZM47.3839 32.9316L46.8315 35.8803L46.8314 35.8802L49.6603 36.8789L52.4892 37.8775C53.7145 34.4065 51.5544 30.6607 47.9363 29.9829L47.3839 32.9316ZM49.6603 36.8789L46.8314 35.8801L45.7543 38.9309L48.5832 39.9296L51.412 40.9284L52.4892 37.8777L49.6603 36.8789ZM48.5832 39.9296L45.7543 38.9309L45.7546 38.9308L45.4376 41.914L45.1207 44.8972C47.8841 45.1908 50.487 43.5485 51.412 40.9284L48.5832 39.9296ZM45.4376 41.914L45.7546 38.9308L39.0075 38.214L38.6906 41.1972L38.3736 44.1804L45.1207 44.8972L45.4376 41.914ZM38.6906 41.1972L39.0075 38.214L39.0077 38.2143L36.1046 37.458L33.2015 36.7017C32.2768 40.2515 34.7256 43.7929 38.3736 44.1804L38.6906 41.1972ZM36.1046 37.458L39.0078 38.2141L39.9511 34.592L37.048 33.8359L34.1448 33.0798L33.2015 36.7019L36.1046 37.458ZM77.9611 22L77.9606 25L77.9603 24.9999L80.5412 26.5293L83.122 28.0587C85.4918 24.0597 82.6106 19.0007 77.9615 19L77.9611 22ZM80.5412 26.5293L77.9602 25L70.8499 37L73.4308 38.5293L76.0118 40.0585L83.1221 28.0585L80.5412 26.5293ZM73.4308 38.5293L70.8499 36.9999L70.8495 37L70.8498 40L70.85 43C72.9688 42.9998 74.9312 41.8819 76.0117 40.0587L73.4308 38.5293ZM70.8498 40V37H56.4904V40V43H70.8498V40ZM56.4904 40L56.4905 37L56.4903 36.9999L53.9093 35.4707L51.3283 33.9415C48.9586 37.9411 51.8417 42.9997 56.4902 43L56.4904 40ZM53.9093 35.4707L56.4902 37.0001L63.6015 25.0001L61.0207 23.4707L58.4398 21.9412L51.3285 33.9412L53.9093 35.4707ZM61.0207 23.4707L63.6015 25.0001L63.6017 25V22V19C61.4824 19 59.5202 20.1181 58.4398 21.9413L61.0207 23.4707ZM63.6017 22V25H77.9611V22V19H63.6017V22ZM84.2775 26.5566L87.114 27.5335C87.0766 27.6419 86.961 27.7042 86.8487 27.6741L87.6251 24.7763L88.4016 21.8785C85.4686 21.0927 82.4293 22.7102 81.441 25.5797L84.2775 26.5566ZM87.6251 24.7763L86.8485 27.674L88.7576 28.1858L89.5343 25.288L90.311 22.3903L88.4018 21.8786L87.6251 24.7763ZM89.5343 25.288L88.7577 28.1858C88.5808 28.1384 88.4879 27.9438 88.5618 27.7767L91.3058 28.9892L94.0499 30.2017C95.4636 27.0022 93.6901 23.296 90.3109 22.3903L89.5343 25.288ZM91.3058 28.9892L88.5618 27.7766C88.6172 27.6514 88.7517 27.5792 88.8887 27.6045L88.3439 30.5546L87.7991 33.5048C90.3972 33.9845 92.9828 32.6162 94.0498 30.2019L91.3058 28.9892ZM88.3439 30.5546L88.8894 27.6047L86.9461 27.2453L86.4005 30.1953L85.855 33.1453L87.7984 33.5046L88.3439 30.5546ZM86.4005 30.1953L86.9456 27.2452C87.0783 27.2697 87.1576 27.4067 87.114 27.5333L84.2775 26.5566L81.4409 25.5799C80.2906 28.9207 82.38 32.5032 85.8554 33.1453L86.4005 30.1953ZM50.7433 24.2304L52.8646 26.3518C52.7348 26.4816 52.5207 26.4643 52.4132 26.3172L54.8351 24.5468L57.257 22.7764C55.1932 19.953 51.0961 19.635 48.622 22.1091L50.7433 24.2304ZM54.8351 24.5468L52.4129 26.3169C52.3323 26.2066 52.3369 26.054 52.4275 25.9478L54.7101 27.8945L56.9928 29.8412C58.7071 27.8309 58.8145 24.9077 57.2573 22.7768L54.8351 24.5468ZM54.7101 27.8945L52.4279 25.9472L51.1447 27.4512L53.4269 29.3984L55.7091 31.3456L56.9923 29.8417L54.7101 27.8945ZM53.4269 29.3984L51.1446 27.4513C51.232 27.3489 51.39 27.3483 51.478 27.4496L49.214 29.4179L46.95 31.3862C49.2683 34.0529 53.4156 34.0339 55.7092 31.3455L53.4269 29.3984ZM49.214 29.4179L51.4783 27.4499C51.5532 27.5361 51.5497 27.6666 51.4672 27.7492L49.3458 25.6279L47.2245 23.5066C45.0771 25.654 44.9592 29.0957 46.9497 31.3859L49.214 29.4179ZM49.3458 25.6279L51.4672 27.7492L52.8646 26.3518L50.7433 24.2304L48.622 22.1091L47.2245 23.5066L49.3458 25.6279Z" fill="white" fill-opacity="0.2" mask="url(#path-1-outside-1_21_54)"/>
<rect x="52.2256" y="47" width="5" height="5" rx="2.5" fill="#FFFDEE" fill-opacity="0.3"/>
<rect x="81.2256" y="60" width="5" height="5" rx="2.5" fill="#FFFDEE" fill-opacity="0.3"/>
<rect x="66.2256" y="73.8424" width="12" height="5" rx="2.5" transform="rotate(-64.6264 66.2256 73.8424)" fill="#FFFDEE" fill-opacity="0.3"/>
<path d="M93.2718 52.9969C92.6777 54.1344 91.3189 54.6373 90.1274 54.1607L89.8459 54.0481C88.4529 53.4909 87.8609 51.8409 88.5821 50.5253L97.0988 34.9876C97.7372 33.8228 99.1818 33.3704 100.371 33.9629C101.609 34.5803 102.1 36.0943 101.459 37.3213L93.2718 52.9969Z" fill="#1C1A12" fill-opacity="0.3"/>
<path d="M63.0255 47.1919C63.6866 46.0478 65.1243 45.6155 66.3067 46.2056L66.5225 46.313C67.8115 46.9564 68.2911 48.5539 67.5704 49.8013L61.2511 60.7388C61.1578 60.9002 60.9853 60.9994 60.7989 60.9996C60.6139 60.9996 60.4426 61.098 60.3487 61.2574L54.3936 71.3667C53.9757 72.0763 53.2347 72.534 52.4132 72.5914L33.6192 73.9029C32.7757 73.9617 31.9788 73.5069 31.6007 72.7505C30.9407 71.43 31.8185 69.8598 33.2891 69.73L49.6056 68.2896C50.4169 68.2178 51.1424 67.7556 51.5499 67.0503L55.4278 60.3394L37.0206 58.9244C35.0447 58.7724 34.276 56.2795 35.8233 55.0415C36.2579 54.6939 36.8087 54.5251 37.3634 54.5699L55.8907 56.0689C56.5207 56.12 57.0607 56.4368 57.4161 56.897L63.0255 47.1919Z" fill="#1C1A12" fill-opacity="0.3"/>
<rect x="74.2256" y="23" width="5" height="5" rx="2.5" fill="#FFFDEE" fill-opacity="0.3"/>
<rect x="67.2256" y="36.6602" width="10" height="5" rx="2.5" transform="rotate(-60 67.2256 36.6602)" fill="#FFFDEE" fill-opacity="0.3"/>
<rect x="38.2422" y="32" width="9" height="5" rx="2.5" transform="rotate(11.732 38.2422 32)" fill="#FFFDEE" fill-opacity="0.3"/>
<path d="M36.8399 41.7279C36.6854 41.0976 37.1249 40.4534 37.772 40.4051L101.683 35.6356C102.47 35.5769 103.012 36.4102 102.638 37.1056L92.767 55.5025C92.6013 55.8113 92.2861 56.0108 91.9362 56.0284L34.0504 58.947C33.4791 58.9758 33.1295 58.5406 33.3201 58.0012C33.7428 56.8049 34.7238 54.1907 37 48.5C37.8059 46.4852 37.2542 43.4193 36.8399 41.7279Z" fill="#F2F2F2"/>
<path d="M101.728 35.6529C102.514 35.5943 103.056 36.4273 102.683 37.1227L100.544 41.107L94.0312 41.5855L94.6895 50.5611L95.5039 50.5006L94.7832 51.8443L94.6895 50.5611L85.7139 51.2203L86.0898 56.3424L77.0986 56.7955L76.7383 51.8795L67.7617 52.5377L68.1074 57.2486L59.1162 57.7018L58.7861 53.1969L49.8105 53.8561L50.126 58.1559L41.1348 58.609L40.835 54.5143L34.5 54.9791C35.0833 53.4625 35.9003 51.3787 37.0449 48.5172C37.3686 47.7079 37.4706 46.7291 37.4531 45.7379L40.1758 45.5387L39.7891 40.275L48.7637 39.6051L49.1514 44.8795L58.127 44.2213L57.7393 38.9352L66.7139 38.2652L67.1035 43.5621L76.0791 42.9029L75.6885 37.5953L84.6641 36.9254L85.0547 42.2447L94.0312 41.5855L93.6396 36.2564L101.728 35.6529ZM40.1758 45.5387L40.835 54.5143L49.8105 53.8561L49.1514 44.8795L40.1758 45.5387ZM58.127 44.2213L58.7861 53.1969L67.7617 52.5377L67.1035 43.5621L58.127 44.2213ZM76.0791 42.9029L76.7383 51.8795L85.7139 51.2203L85.0547 42.2447L76.0791 42.9029Z" fill="#2D95F1"/>
<path d="M66.0718 23.25C66.0718 23.25 66.4765 24.0427 68.5142 23.9775C69.651 23.9412 66.9954 25.4772 70.6011 24.707C70.6977 24.6864 70.7946 24.6679 70.8911 24.6523C70.9005 24.6508 70.9101 24.6499 70.9195 24.6484C70.9976 24.6362 71.0759 24.6263 71.1538 24.6172C71.1896 24.613 71.2255 24.609 71.2613 24.6055C71.3117 24.6004 71.3622 24.5956 71.4126 24.5918C71.4602 24.5882 71.5078 24.5846 71.5552 24.582C71.5695 24.5813 71.5839 24.5808 71.5982 24.5801L71.5923 24.5811C74.3659 24.447 76.889 26.0752 76.9282 26.1006C76.9251 26.1011 76.8959 26.1069 76.8433 26.1162L77.7857 26.6719L78.6363 26.2041C79.1197 25.9374 79.7278 26.1134 79.9947 26.5967C80.2614 27.0803 80.0857 27.6883 79.6021 27.9551L39.8413 49.8867C39.3579 50.1533 38.7497 49.9775 38.4829 49.4941C38.2166 49.0107 38.3922 48.4025 38.8755 48.1357L67.5952 32.293C67.5569 32.2751 67.5218 32.2513 67.4947 32.2207L66.7447 31.373C66.5868 31.4767 66.4973 31.5363 66.4947 31.5381C66.4947 31.5381 66.5524 31.4283 66.6411 31.249C66.5817 31.1522 66.6142 31.041 66.7251 30.9873C66.7415 30.9794 66.759 30.9724 66.7769 30.9678C67.2273 29.9685 67.8932 27.9848 66.19 27.7715C66.1218 27.7629 66.0579 27.7518 65.9986 27.7402C65.9843 27.7374 65.9704 27.7334 65.9566 27.7305C65.9151 27.7216 65.8755 27.7135 65.8384 27.7031C65.8161 27.6969 65.7947 27.6894 65.7739 27.6826C65.7499 27.6747 65.7267 27.6668 65.7046 27.6582C65.6834 27.65 65.6635 27.6406 65.6441 27.6318C65.6235 27.6225 65.6041 27.6125 65.5855 27.6025C65.5683 27.5933 65.5512 27.585 65.5357 27.5752C65.5153 27.5624 65.4967 27.5488 65.479 27.5352C65.4701 27.5282 65.461 27.5218 65.4527 27.5146C65.4308 27.4959 65.4115 27.4763 65.3941 27.4561C65.3903 27.4517 65.3859 27.4478 65.3823 27.4434C65.3629 27.4192 65.3463 27.3941 65.3325 27.3682C65.3284 27.3603 65.3255 27.3518 65.3218 27.3438C65.3125 27.3236 65.3036 27.3034 65.2974 27.2822L65.2964 27.2773L65.2827 27.2158C65.2817 27.2094 65.2815 27.2028 65.2808 27.1963C65.2796 27.1863 65.2785 27.1762 65.2779 27.166C65.2764 27.1429 65.2767 27.1195 65.2779 27.0957C65.2781 27.0902 65.2784 27.0847 65.2788 27.0791C65.2843 27.0019 65.3022 26.9212 65.3296 26.8379C65.3486 26.7804 65.3712 26.7214 65.398 26.6621L65.4888 26.4805C65.4935 26.4717 65.4986 26.4629 65.5034 26.4541C65.5148 26.4335 65.5268 26.4132 65.5386 26.3926C65.5915 26.3001 65.6491 26.2076 65.7066 26.1162C65.8541 25.8818 66.0003 25.6538 66.0894 25.4619C66.126 25.3829 66.1542 25.3108 66.1655 25.2451C66.1846 25.1353 66.1635 25.0466 66.0786 24.9873C65.0709 24.2834 66.0634 23.2586 66.0718 23.25ZM76.2193 26.251C75.5257 26.4241 74.3947 26.7719 73.1529 27.4189C71.5886 28.2341 68.5015 30.2256 67.1519 31.1064L67.9448 32.0029C67.9653 32.0261 67.979 32.0512 67.9878 32.0762L77.3452 26.915L76.2193 26.251Z" fill="black" fill-opacity="0.2"/>
<path d="M28.0972 2.22458C27.9811 1.68465 28.3246 1.15278 28.8645 1.03662V1.03662C29.4045 0.920454 29.9363 1.26399 30.0525 1.80392L40.1352 48.6686C40.2513 49.2086 39.9078 49.7404 39.3679 49.8566V49.8566C38.8279 49.9728 38.2961 49.6292 38.1799 49.0893L28.0972 2.22458Z" fill="#D9D9D9"/>
<path d="M26.5 6.22354L30.7637 4.92" stroke="#988F8F" stroke-width="0.5" stroke-linecap="round"/>
<path d="M30.4937 22.4566L34.9093 21.84" stroke="#988F8F" stroke-width="0.5" stroke-linecap="round"/>
<path d="M2 19C2 19 5.31108 18.8933 7.99996 16C9.49996 14.386 11 19 13.5001 13.5C15.6877 8.68759 27.3528 5.44404 27.3528 5.44404C27.3528 5.44404 25.7527 8.02838 26.5 11.5C27.2473 14.9716 31.1798 23.2234 31.1798 23.2234C31.1798 23.2234 22.0169 18.423 17.7585 21.4615C13.5001 24.5 10.4176 19.373 7.99992 20C4.1155 21.0074 2 19 2 19Z" fill="#2D95F0"/>
<path d="M16.1677 20.219C15.6859 20.3672 15.2269 20.3845 14.7907 20.2709C14.3561 20.1541 13.9715 19.917 13.6369 19.5594C13.3039 19.1986 13.0484 18.7292 12.8706 18.1511C12.6875 17.5557 12.6373 17.0151 12.72 16.5291C12.8019 16.0408 12.9906 15.6286 13.2859 15.2927C13.5813 14.9568 13.9561 14.719 14.4103 14.5793C14.7999 14.4595 15.1757 14.43 15.5376 14.4911C15.9019 14.5514 16.227 14.6897 16.5131 14.906C16.8015 15.1216 17.0247 15.4043 17.1828 15.7542L16.0797 16.0935C15.9288 15.8572 15.7388 15.6948 15.5097 15.6064C15.2799 15.5155 15.0244 15.5133 14.7431 15.5999C14.3489 15.7211 14.0776 15.9755 13.9294 16.3632C13.7804 16.7483 13.794 17.2275 13.9703 17.8007C14.1466 18.3739 14.4031 18.7811 14.7397 19.0222C15.0779 19.2602 15.4521 19.3161 15.8625 19.1899C16.2221 19.0793 16.4739 18.8928 16.6178 18.6304C16.7632 18.3648 16.7868 18.06 16.6885 17.7159L15.5854 18.0552L15.3164 17.1806L17.4742 16.5169L17.6876 17.2107C17.8359 17.6929 17.8678 18.1368 17.7831 18.5426C17.6985 18.9483 17.5166 19.2964 17.2375 19.5869C16.9577 19.875 16.6011 20.0857 16.1677 20.219Z" fill="white"/>
<path d="M21.538 18.5671C21.0816 18.7075 20.6372 18.723 20.2048 18.6136C19.7725 18.5043 19.3855 18.2719 19.044 17.9164C18.7025 17.561 18.4402 17.0856 18.2571 16.4902C18.0725 15.8899 18.0215 15.3468 18.1042 14.8609C18.1869 14.375 18.3763 13.9653 18.6725 13.6318C18.9686 13.2984 19.3449 13.0615 19.8014 12.921C20.2578 12.7806 20.7011 12.7655 21.1311 12.8756C21.5635 12.9849 21.9504 13.2174 22.2919 13.5728C22.6334 13.9283 22.8965 14.4061 23.0811 15.0064C23.2657 15.6067 23.3167 16.1498 23.234 16.6357C23.1506 17.1192 22.9608 17.5276 22.6646 17.8611C22.37 18.1914 21.9945 18.4267 21.538 18.5671ZM19.3602 16.1509C19.5388 16.7315 19.7941 17.139 20.1262 17.3735C20.4605 17.6073 20.826 17.6632 21.2225 17.5412C21.6167 17.42 21.8852 17.1691 22.0281 16.7885C22.1733 16.4072 22.1566 15.9263 21.978 15.3457C21.7986 14.7626 21.5418 14.3542 21.2074 14.1205C20.8746 13.8835 20.5111 13.8257 20.1169 13.9469C19.7204 14.0689 19.4499 14.3217 19.3055 14.7055C19.1627 15.086 19.1809 15.5678 19.3602 16.1509Z" fill="white"/>
<path d="M24.4791 15.6751L23.2441 11.9429L24.3922 11.5898L25.4716 15.3698L24.4791 15.6751ZM24.7133 16.8916C24.655 16.7022 24.6657 16.5319 24.7454 16.3809C24.8274 16.2291 24.9595 16.1252 25.1416 16.0691C25.326 16.0124 25.4937 16.0241 25.6445 16.1043C25.7976 16.1838 25.9034 16.3182 25.9616 16.5076C26.0199 16.6971 26.0084 16.8689 25.9271 17.0232C25.8474 17.1743 25.7154 17.2782 25.5309 17.3349C25.3488 17.3909 25.1812 17.3792 25.0281 17.2997C24.8765 17.2171 24.7715 17.0811 24.7133 16.8916Z" fill="white"/>
<path d="M14.4912 12.0244C12.138 17.1452 13.7867 20.5005 18.6074 20.9814C18.3076 21.1129 18.024 21.2727 17.7588 21.4619C14.0659 24.0969 11.2566 20.592 8.99902 20.0234C9.97478 18.8866 10.4877 17.426 8.71387 15.6377C8.73568 15.6369 8.75742 15.639 8.7793 15.6396C8.96003 15.7185 9.15107 15.764 9.35156 15.7783C10.4707 16.228 11.7368 17.3789 13.5 13.5C13.732 12.9897 14.0713 12.4975 14.4912 12.0244Z" fill="black" fill-opacity="0.3"/>
</svg>
