<svg width="108" height="87" viewBox="0 0 108 87" fill="none" xmlns="http://www.w3.org/2000/svg">
<mask id="path-1-outside-1_25_80" maskUnits="userSpaceOnUse" x="-0.841431" y="25.1737" width="80" height="61" fill="black">
<rect fill="white" x="-0.841431" y="25.1737" width="80" height="61"/>
<path d="M47.1814 68.1737C49.3761 68.1739 50.8273 70.4534 49.8992 72.4422L45.7 81.4422C45.2071 82.4984 44.1467 83.1736 42.9812 83.1737H35.6023C33.4075 83.1737 31.9555 80.894 32.8836 78.9051L37.0838 69.9051C37.5767 68.8489 38.6369 68.1737 39.8025 68.1737H47.1814ZM38.7224 51.1737C41.0257 51.1739 42.4696 53.6621 41.3269 55.6619L28.699 77.7606C28.1955 78.6418 27.2806 79.2089 26.2674 79.2674L6.33474 80.4178C4.21081 80.5403 2.63709 78.4737 3.32009 76.4588L11.2009 53.2108C11.6137 51.9931 12.7571 51.1737 14.0427 51.1737H38.7224ZM63.3884 65.1737C65.2291 65.1737 66.6361 66.8159 66.3533 68.6346L65.8562 71.8319C65.6426 73.2047 64.5137 74.2512 63.1287 74.3612L56.365 74.8983C54.5365 75.0434 53.0066 73.5278 53.1345 71.6981L53.3963 67.9637C53.5065 66.3922 54.814 65.1737 56.3894 65.1737H63.3884ZM72.9431 39.1737C75.1957 39.174 76.6443 41.5642 75.6023 43.5614L66.7332 60.5614C66.2162 61.5523 65.1907 62.1737 64.073 62.1737H46.8406C44.5879 62.1736 43.1386 59.7832 44.1804 57.786L53.0506 40.786C53.5676 39.795 54.593 39.1737 55.7107 39.1737H72.9431ZM10.7146 40.0096C11.1119 38.485 12.621 37.5273 14.1697 37.8172L21.0496 39.1053C22.8588 39.444 23.9396 41.3169 23.3269 43.0526L22.2498 46.1033C21.7873 47.4135 20.485 48.2345 19.1033 48.0877L12.3562 47.3709C10.5324 47.177 9.30798 45.4065 9.77029 43.6317L10.7146 40.0096ZM51.6267 28.1737C53.9512 28.1737 55.3927 30.7032 54.2078 32.703L47.0965 44.703C46.5563 45.6146 45.575 46.1737 44.5154 46.1737H30.157C27.8324 46.1737 26.3909 43.6442 27.5759 41.6444L34.6873 29.6444C35.2274 28.7329 36.2079 28.1738 37.2674 28.1737H51.6267ZM57.9431 32.7303C58.4186 31.3498 59.8814 30.5721 61.2918 30.95L63.2 31.4617C64.8011 31.8908 65.6423 33.6467 64.9724 35.1629C64.4666 36.3075 63.241 36.9555 62.0105 36.7283L60.0672 36.369C58.3956 36.0603 57.3898 34.3375 57.9431 32.7303ZM24.4099 30.4041C25.5821 29.2322 27.5237 29.3822 28.5017 30.7205C29.24 31.7309 29.1878 33.1161 28.3758 34.0682L27.0935 35.5721C25.9904 36.8654 23.9948 36.8746 22.8797 35.5916C21.9218 34.4896 21.98 32.834 23.0125 31.8016L24.4099 30.4041Z"/>
</mask>
<path d="M47.1814 68.1737C49.3761 68.1739 50.8273 70.4534 49.8992 72.4422L45.7 81.4422C45.2071 82.4984 44.1467 83.1736 42.9812 83.1737H35.6023C33.4075 83.1737 31.9555 80.894 32.8836 78.9051L37.0838 69.9051C37.5767 68.8489 38.6369 68.1737 39.8025 68.1737H47.1814ZM38.7224 51.1737C41.0257 51.1739 42.4696 53.6621 41.3269 55.6619L28.699 77.7606C28.1955 78.6418 27.2806 79.2089 26.2674 79.2674L6.33474 80.4178C4.21081 80.5403 2.63709 78.4737 3.32009 76.4588L11.2009 53.2108C11.6137 51.9931 12.7571 51.1737 14.0427 51.1737H38.7224ZM63.3884 65.1737C65.2291 65.1737 66.6361 66.8159 66.3533 68.6346L65.8562 71.8319C65.6426 73.2047 64.5137 74.2512 63.1287 74.3612L56.365 74.8983C54.5365 75.0434 53.0066 73.5278 53.1345 71.6981L53.3963 67.9637C53.5065 66.3922 54.814 65.1737 56.3894 65.1737H63.3884ZM72.9431 39.1737C75.1957 39.174 76.6443 41.5642 75.6023 43.5614L66.7332 60.5614C66.2162 61.5523 65.1907 62.1737 64.073 62.1737H46.8406C44.5879 62.1736 43.1386 59.7832 44.1804 57.786L53.0506 40.786C53.5676 39.795 54.593 39.1737 55.7107 39.1737H72.9431ZM10.7146 40.0096C11.1119 38.485 12.621 37.5273 14.1697 37.8172L21.0496 39.1053C22.8588 39.444 23.9396 41.3169 23.3269 43.0526L22.2498 46.1033C21.7873 47.4135 20.485 48.2345 19.1033 48.0877L12.3562 47.3709C10.5324 47.177 9.30798 45.4065 9.77029 43.6317L10.7146 40.0096ZM51.6267 28.1737C53.9512 28.1737 55.3927 30.7032 54.2078 32.703L47.0965 44.703C46.5563 45.6146 45.575 46.1737 44.5154 46.1737H30.157C27.8324 46.1737 26.3909 43.6442 27.5759 41.6444L34.6873 29.6444C35.2274 28.7329 36.2079 28.1738 37.2674 28.1737H51.6267ZM57.9431 32.7303C58.4186 31.3498 59.8814 30.5721 61.2918 30.95L63.2 31.4617C64.8011 31.8908 65.6423 33.6467 64.9724 35.1629C64.4666 36.3075 63.241 36.9555 62.0105 36.7283L60.0672 36.369C58.3956 36.0603 57.3898 34.3375 57.9431 32.7303ZM24.4099 30.4041C25.5821 29.2322 27.5237 29.3822 28.5017 30.7205C29.24 31.7309 29.1878 33.1161 28.3758 34.0682L27.0935 35.5721C25.9904 36.8654 23.9948 36.8746 22.8797 35.5916C21.9218 34.4896 21.98 32.834 23.0125 31.8016L24.4099 30.4041Z" fill="#CFBFB8"/>
<path d="M47.1814 68.1737L47.1817 65.1737H47.1814V68.1737ZM49.8992 72.4422L47.1806 71.1736L47.1806 71.1738L49.8992 72.4422ZM45.7 81.4422L48.4185 82.7109L48.4186 82.7107L45.7 81.4422ZM42.9812 83.1737L42.9812 86.1737L42.9814 86.1737L42.9812 83.1737ZM32.8836 78.9051L30.165 77.6364L30.165 77.6366L32.8836 78.9051ZM37.0838 69.9051L39.8023 71.1738L39.8023 71.1738L37.0838 69.9051ZM38.7224 51.1737L38.7227 48.1737H38.7224V51.1737ZM41.3269 55.6619L43.9316 57.1504L43.9317 57.1502L41.3269 55.6619ZM28.699 77.7606L26.0943 76.2721L26.0943 76.2722L28.699 77.7606ZM26.2674 79.2674L26.4402 82.2624L26.4404 82.2624L26.2674 79.2674ZM6.33474 80.4178L6.50753 83.4128L6.50759 83.4128L6.33474 80.4178ZM3.32009 76.4588L0.478898 75.4957L0.478892 75.4957L3.32009 76.4588ZM11.2009 53.2108L14.0421 54.1739L14.0421 54.1739L11.2009 53.2108ZM66.3533 68.6346L63.3889 68.1737L63.3889 68.1737L66.3533 68.6346ZM65.8562 71.8319L68.8206 72.2931L68.8206 72.2927L65.8562 71.8319ZM63.1287 74.3612L62.8913 71.3706L62.8912 71.3706L63.1287 74.3612ZM56.365 74.8983L56.6023 77.8889L56.6025 77.8889L56.365 74.8983ZM53.1345 71.6981L50.1419 71.4883L50.1419 71.4888L53.1345 71.6981ZM53.3963 67.9637L50.4036 67.7538L50.4036 67.754L53.3963 67.9637ZM72.9431 39.1737L72.9436 36.1737H72.9431V39.1737ZM75.6023 43.5614L72.9426 42.1737L72.9425 42.1737L75.6023 43.5614ZM66.7332 60.5614L69.3929 61.9491L69.393 61.949L66.7332 60.5614ZM46.8406 62.1737L46.8405 65.1737H46.8406V62.1737ZM44.1804 57.786L41.5207 56.3982L41.5206 56.3984L44.1804 57.786ZM53.0506 40.786L55.7103 42.1737L55.7103 42.1737L53.0506 40.786ZM10.7146 40.0096L13.6176 40.7664L13.6177 40.7661L10.7146 40.0096ZM14.1697 37.8172L14.7218 34.8685L14.7217 34.8684L14.1697 37.8172ZM21.0496 39.1053L20.4975 42.0541L20.4976 42.0541L21.0496 39.1053ZM23.3269 43.0526L26.1558 44.0514L26.1558 44.0512L23.3269 43.0526ZM22.2498 46.1033L19.4209 45.1046L19.4209 45.1047L22.2498 46.1033ZM19.1033 48.0877L19.4202 45.1045L19.4202 45.1045L19.1033 48.0877ZM12.3562 47.3709L12.0391 50.3541L12.0393 50.3541L12.3562 47.3709ZM9.77029 43.6317L6.86733 42.8748L6.86715 42.8755L9.77029 43.6317ZM51.6267 28.1737L51.6268 25.1737H51.6267V28.1737ZM54.2078 32.703L56.7886 34.2324L56.7888 34.2322L54.2078 32.703ZM47.0965 44.703L44.5156 43.1735L44.5156 43.1735L47.0965 44.703ZM27.5759 41.6444L24.9951 40.1149L24.9951 40.115L27.5759 41.6444ZM34.6873 29.6444L32.1065 28.1149L32.1064 28.1149L34.6873 29.6444ZM37.2674 28.1737L37.2674 25.1737L37.267 25.1737L37.2674 28.1737ZM57.9431 32.7303L55.1067 31.7534L55.1065 31.7537L57.9431 32.7303ZM61.2918 30.95L62.0688 28.0524L62.0682 28.0522L61.2918 30.95ZM63.2 31.4617L62.4229 34.3594L62.4235 34.3595L63.2 31.4617ZM64.9724 35.1629L67.7164 36.3756L67.7166 36.3752L64.9724 35.1629ZM62.0105 36.7283L61.465 39.6783L61.4659 39.6785L62.0105 36.7283ZM60.0672 36.369L60.6127 33.419L60.6119 33.4188L60.0672 36.369ZM24.4099 30.4041L22.2888 28.2826L22.2886 28.2828L24.4099 30.4041ZM28.5017 30.7205L30.9239 28.9505L30.9239 28.9504L28.5017 30.7205ZM28.3758 34.0682L26.0933 32.1214L26.0929 32.1218L28.3758 34.0682ZM27.0935 35.5721L29.376 37.5189L29.3764 37.5185L27.0935 35.5721ZM22.8797 35.5916L20.6154 37.5596L20.6154 37.5597L22.8797 35.5916ZM23.0125 31.8016L20.8912 29.6803L20.8912 29.6803L23.0125 31.8016ZM47.1814 68.1737L47.1811 71.1737L47.1806 71.1736L49.8992 72.4422L52.6177 73.7109C54.4737 69.7337 51.5717 65.1741 47.1817 65.1737L47.1814 68.1737ZM49.8992 72.4422L47.1806 71.1738L42.9813 80.1738L45.7 81.4422L48.4186 82.7107L52.6178 73.7107L49.8992 72.4422ZM45.7 81.4422L42.9814 80.1736L42.9811 80.1737L42.9812 83.1737L42.9814 86.1737C45.3122 86.1736 47.4327 84.8234 48.4185 82.7109L45.7 81.4422ZM42.9812 83.1737V80.1737H35.6023V83.1737V86.1737H42.9812V83.1737ZM35.6023 83.1737V80.1737L35.6022 80.1736L32.8836 78.9051L30.165 77.6366C28.3088 81.6146 31.2129 86.1737 35.6023 86.1737V83.1737ZM32.8836 78.9051L35.6021 80.1738L39.8023 71.1738L37.0838 69.9051L34.3652 68.6364L30.165 77.6364L32.8836 78.9051ZM37.0838 69.9051L39.8023 71.1738L39.8025 71.1737V68.1737V65.1737C37.4714 65.1737 35.351 66.524 34.3652 68.6364L37.0838 69.9051ZM39.8025 68.1737V71.1737H47.1814V68.1737V65.1737H39.8025V68.1737ZM38.7224 51.1737L38.7222 54.1737L38.7221 54.1736L41.3269 55.6619L43.9317 57.1502C46.217 53.1505 43.3292 48.1741 38.7227 48.1737L38.7224 51.1737ZM41.3269 55.6619L38.7222 54.1735L26.0943 76.2721L28.699 77.7606L31.3037 79.249L43.9316 57.1504L41.3269 55.6619ZM28.699 77.7606L26.0943 76.2722L26.0943 76.2724L26.2674 79.2674L26.4404 82.2624C28.4674 82.1453 30.2969 81.0109 31.3037 79.249L28.699 77.7606ZM26.2674 79.2674L26.0945 76.2724L6.16188 77.4228L6.33474 80.4178L6.50759 83.4128L26.4402 82.2624L26.2674 79.2674ZM6.33474 80.4178L6.16195 77.4228C6.15572 77.4231 6.15231 77.423 6.15136 77.4229C6.15038 77.4228 6.1509 77.4228 6.15258 77.4231C6.15641 77.4239 6.16081 77.4254 6.16447 77.4271C6.16775 77.4287 6.16861 77.4296 6.16756 77.4287C6.16636 77.4277 6.16409 77.4256 6.16161 77.4223C6.15914 77.4191 6.15767 77.4163 6.15705 77.4149C6.1565 77.4137 6.15715 77.4148 6.15778 77.4183C6.1585 77.4223 6.15874 77.427 6.15845 77.4309C6.15833 77.4326 6.15818 77.4331 6.15837 77.4321C6.15856 77.4312 6.15929 77.4278 6.16129 77.4219L3.32009 76.4588L0.478892 75.4957C-0.88711 79.5254 2.2597 83.6579 6.50753 83.4128L6.33474 80.4178ZM3.32009 76.4588L6.16128 77.422L14.0421 54.1739L11.2009 53.2108L8.35976 52.2476L0.478898 75.4957L3.32009 76.4588ZM11.2009 53.2108L14.0421 54.1739L14.0427 54.1737V51.1737V48.1737C11.4717 48.1737 9.18537 49.8121 8.35975 52.2477L11.2009 53.2108ZM14.0427 51.1737V54.1737H38.7224V51.1737V48.1737H14.0427V51.1737ZM63.3884 65.1737V68.1737L63.3889 68.1737L66.3533 68.6346L69.3177 69.0955C69.8834 65.4574 67.069 62.1737 63.3884 62.1737V65.1737ZM66.3533 68.6346L63.3889 68.1737L62.8918 71.371L65.8562 71.8319L68.8206 72.2927L69.3177 69.0955L66.3533 68.6346ZM65.8562 71.8319L62.8919 71.3706L62.8913 71.3706L63.1287 74.3612L63.366 77.3518C66.1353 77.132 68.3932 75.0396 68.8206 72.2931L65.8562 71.8319ZM63.1287 74.3612L62.8912 71.3706L56.1275 71.9077L56.365 74.8983L56.6025 77.8889L63.3662 77.3517L63.1287 74.3612ZM56.365 74.8983L56.1277 71.9077L56.1272 71.9074L53.1345 71.6981L50.1419 71.4888C49.8859 75.1485 52.9455 78.1791 56.6023 77.8889L56.365 74.8983ZM53.1345 71.6981L56.1272 71.9078L56.3889 68.1734L53.3963 67.9637L50.4036 67.754L50.1419 71.4883L53.1345 71.6981ZM53.3963 67.9637L56.3889 68.1736L56.3894 68.1737V65.1737V62.1737C53.2393 62.1737 50.6242 64.6101 50.4036 67.7538L53.3963 67.9637ZM56.3894 65.1737V68.1737H63.3884V65.1737V62.1737H56.3894V65.1737ZM72.9431 39.1737L72.9427 42.1737L72.9426 42.1737L75.6023 43.5614L78.2621 44.9491C80.346 40.9549 77.4489 36.1743 72.9436 36.1737L72.9431 39.1737ZM75.6023 43.5614L72.9425 42.1737L64.0734 59.1737L66.7332 60.5614L69.393 61.949L78.2621 44.949L75.6023 43.5614ZM66.7332 60.5614L64.0734 59.1737L64.073 59.1737V62.1737V65.1737C66.308 65.1737 68.3587 63.9313 69.3929 61.9491L66.7332 60.5614ZM64.073 62.1737V59.1737H46.8406V62.1737V65.1737H64.073V62.1737ZM46.8406 62.1737L46.8407 59.1737L46.8403 59.1735L44.1804 57.786L41.5206 56.3984C39.4367 60.3933 42.3356 65.1736 46.8405 65.1737L46.8406 62.1737ZM44.1804 57.786L46.8402 59.1737L55.7103 42.1737L53.0506 40.786L50.3908 39.3982L41.5207 56.3982L44.1804 57.786ZM53.0506 40.786L55.7103 42.1737L55.7107 42.1737V39.1737V36.1737C53.4757 36.1737 51.425 37.416 50.3908 39.3982L53.0506 40.786ZM55.7107 39.1737V42.1737H72.9431V39.1737V36.1737H55.7107V39.1737ZM10.7146 40.0096L13.6177 40.7661L13.6177 40.766L14.1697 37.8172L14.7217 34.8684C11.6242 34.2886 8.60618 36.2039 7.81158 39.2531L10.7146 40.0096ZM14.1697 37.8172L13.6176 40.766L20.4975 42.0541L21.0496 39.1053L21.6017 36.1565L14.7218 34.8685L14.1697 37.8172ZM21.0496 39.1053L20.4976 42.0541L20.498 42.0539L23.3269 43.0526L26.1558 44.0512C27.3815 40.5791 25.2193 36.8337 21.6016 36.1565L21.0496 39.1053ZM23.3269 43.0526L20.4981 42.0538L19.4209 45.1046L22.2498 46.1033L25.0786 47.1021L26.1558 44.0514L23.3269 43.0526ZM22.2498 46.1033L19.4209 45.1047L19.4202 45.1045L19.1033 48.0877L18.7864 51.0709C21.5487 51.3644 24.1533 49.7233 25.0787 47.102L22.2498 46.1033ZM19.1033 48.0877L19.4202 45.1045L12.6732 44.3877L12.3562 47.3709L12.0393 50.3541L18.7864 51.0709L19.1033 48.0877ZM12.3562 47.3709L12.6734 44.3877L12.6734 44.3879L9.77029 43.6317L6.86715 42.8755C5.94253 46.4253 8.39146 49.9663 12.0391 50.3541L12.3562 47.3709ZM9.77029 43.6317L12.6732 44.3885L13.6176 40.7664L10.7146 40.0096L7.81166 39.2527L6.86733 42.8748L9.77029 43.6317ZM51.6267 28.1737L51.6267 31.1737L51.6268 31.1737L54.2078 32.703L56.7888 34.2322C59.1586 30.2325 56.2756 25.1737 51.6268 25.1737L51.6267 28.1737ZM54.2078 32.703L51.6269 31.1735L44.5156 43.1735L47.0965 44.703L49.6773 46.2324L56.7886 34.2324L54.2078 32.703ZM47.0965 44.703L44.5156 43.1735L44.5154 43.1737V46.1737V49.1737C46.6347 49.1737 48.5969 48.0555 49.6773 46.2324L47.0965 44.703ZM44.5154 46.1737V43.1737H30.157V46.1737V49.1737H44.5154V46.1737ZM30.157 46.1737V43.1737L30.1568 43.1738L27.5759 41.6444L24.9951 40.115C22.6247 44.1149 25.5083 49.1737 30.157 49.1737V46.1737ZM27.5759 41.6444L30.1568 43.1738L37.2681 31.1738L34.6873 29.6444L32.1064 28.1149L24.9951 40.1149L27.5759 41.6444ZM34.6873 29.6444L37.2681 31.1739L37.2678 31.1737L37.2674 28.1737L37.267 25.1737C35.1473 25.1739 33.1864 26.2927 32.1065 28.1149L34.6873 29.6444ZM37.2674 28.1737V31.1737H51.6267V28.1737V25.1737H37.2674V28.1737ZM57.9431 32.7303L60.7796 33.7072C60.742 33.8165 60.6267 33.8777 60.5153 33.8478L61.2918 30.95L62.0682 28.0522C59.1361 27.2666 56.0952 28.8831 55.1067 31.7534L57.9431 32.7303ZM61.2918 30.95L60.5147 33.8476L62.4229 34.3594L63.2 31.4617L63.977 28.5641L62.0688 28.0524L61.2918 30.95ZM63.2 31.4617L62.4235 34.3595C62.2478 34.3124 62.154 34.1188 62.2283 33.9506L64.9724 35.1629L67.7166 36.3752C69.1306 33.1746 67.3545 29.4691 63.9764 28.564L63.2 31.4617ZM64.9724 35.1629L62.2284 33.9503C62.2838 33.8249 62.4184 33.7529 62.5552 33.7782L62.0105 36.7283L61.4659 39.6785C64.0637 40.1581 66.6494 38.79 67.7164 36.3756L64.9724 35.1629ZM62.0105 36.7283L62.556 33.7784L60.6127 33.419L60.0672 36.369L59.5216 39.319L61.465 39.6783L62.0105 36.7283ZM60.0672 36.369L60.6119 33.4188C60.7436 33.4432 60.8236 33.5793 60.7797 33.7069L57.9431 32.7303L55.1065 31.7537C53.956 35.0956 56.0476 38.6774 59.5224 39.3191L60.0672 36.369ZM24.4099 30.4041L26.531 32.5257C26.4018 32.6549 26.1877 32.6385 26.0796 32.4907L28.5017 30.7205L30.9239 28.9504C28.8597 26.1259 24.7625 25.8095 22.2888 28.2826L24.4099 30.4041ZM28.5017 30.7205L26.0796 32.4906C25.9979 32.3788 26.0039 32.2261 26.0933 32.1214L28.3758 34.0682L30.6583 36.015C32.3717 34.0061 32.4822 31.0829 30.9239 28.9505L28.5017 30.7205ZM28.3758 34.0682L26.0929 32.1218L24.8106 33.6257L27.0935 35.5721L29.3764 37.5185L30.6586 36.0146L28.3758 34.0682ZM27.0935 35.5721L24.811 33.6253C24.8984 33.5228 25.0559 33.5223 25.1439 33.6236L22.8797 35.5916L20.6154 37.5597C22.9338 40.2269 27.0823 40.2081 29.376 37.5189L27.0935 35.5721ZM22.8797 35.5916L25.1439 33.6236C25.2201 33.7112 25.215 33.8417 25.1338 33.9229L23.0125 31.8016L20.8912 29.6803C18.7451 31.8263 18.6236 35.268 20.6154 37.5596L22.8797 35.5916ZM23.0125 31.8016L25.1338 33.9229L26.5313 32.5254L24.4099 30.4041L22.2886 28.2828L20.8912 29.6803L23.0125 31.8016Z" fill="white" fill-opacity="0.2" mask="url(#path-1-outside-1_25_80)"/>
<rect x="25.8917" y="53.1737" width="5" height="5" rx="2.5" fill="#FFFDEE" fill-opacity="0.3"/>
<rect x="54.8917" y="66.1737" width="5" height="5" rx="2.5" fill="#FFFDEE" fill-opacity="0.3"/>
<rect x="39.8917" y="80.0161" width="12" height="5" rx="2.5" transform="rotate(-64.6264 39.8917 80.0161)" fill="#FFFDEE" fill-opacity="0.3"/>
<path d="M66.9379 59.1706C66.3438 60.3081 64.9849 60.811 63.7935 60.3344L63.5119 60.2218C62.119 59.6646 61.527 58.0146 62.2481 56.699L70.7649 41.1613C71.4033 39.9965 72.8478 39.5441 74.0366 40.1366V40.1366C75.2755 40.754 75.7664 42.268 75.1256 43.495L66.9379 59.1706Z" fill="#1C1A12" fill-opacity="0.3"/>
<path d="M36.6916 53.3656C37.3528 52.2215 38.7905 51.7892 39.9729 52.3793L40.1887 52.4867C41.4777 53.1301 41.9572 54.7266 41.2365 55.974L34.9172 66.9125C34.8239 67.074 34.6515 67.1732 34.465 67.1733C34.2801 67.1733 34.1087 67.2717 34.0149 67.4311L28.0598 77.5404C27.6418 78.2498 26.9007 78.7077 26.0793 78.7651L7.28536 80.0766C6.4418 80.1354 5.64498 79.6806 5.26681 78.9242C4.60676 77.6037 5.48469 76.0326 6.95528 75.9027L23.2717 74.4633C24.0831 74.3916 24.8085 73.9293 25.216 73.224L29.094 66.5131L10.6867 65.0981C8.71097 64.9461 7.94239 62.4533 9.48946 61.2152C9.92411 60.8675 10.4757 60.6987 11.0305 60.7436L29.5568 62.2416C30.187 62.2926 30.7268 62.6104 31.0822 63.0707L36.6916 53.3656Z" fill="#1C1A12" fill-opacity="0.3"/>
<rect x="47.8917" y="29.1737" width="5" height="5" rx="2.5" fill="#FFFDEE" fill-opacity="0.3"/>
<rect x="40.8917" y="42.8339" width="10" height="5" rx="2.5" transform="rotate(-60 40.8917 42.8339)" fill="#FFFDEE" fill-opacity="0.3"/>
<rect x="11.9083" y="38.1737" width="9" height="5" rx="2.5" transform="rotate(11.732 11.9083 38.1737)" fill="#FFFDEE" fill-opacity="0.3"/>
<path d="M10.5059 47.9016C10.3515 47.2713 10.791 46.6271 11.4381 46.5788L75.3489 41.8093C76.136 41.7506 76.6777 42.5839 76.3045 43.2793L66.433 61.6762C66.2674 61.985 65.9522 62.1845 65.6022 62.2021L7.71647 65.1207C7.14513 65.1495 6.79561 64.7143 6.9862 64.1749C7.40891 62.9786 8.38983 60.3644 10.6661 54.6737C11.472 52.6589 10.9203 49.593 10.5059 47.9016Z" fill="#F2F2F2"/>
<path d="M75.3936 41.8266C76.1805 41.768 76.7218 42.601 76.3487 43.2963L74.2101 47.2807L67.6974 47.7592L68.3556 56.7348L69.17 56.6743L68.4493 58.018L68.3556 56.7348L59.38 57.394L59.756 62.5161L50.7647 62.9692L50.4044 58.0532L41.4278 58.7114L41.7735 63.4223L32.7823 63.8755L32.4522 59.3706L23.4767 60.0297L23.7921 64.3296L14.8009 64.7827L14.5011 60.688L8.16611 61.1528C8.74937 59.6362 9.56644 57.5524 10.711 54.6909C11.0347 53.8816 11.1367 52.9028 11.1192 51.9116L13.8419 51.7124L13.4552 46.4487L22.4298 45.7788L22.8175 51.0532L31.7931 50.395L31.4054 45.1088L40.38 44.4389L40.7696 49.7358L49.7452 49.0766L49.3546 43.769L58.3302 43.0991L58.7208 48.4184L67.6974 47.7592L67.3058 42.4301L75.3936 41.8266ZM13.8419 51.7124L14.5011 60.688L23.4767 60.0297L22.8175 51.0532L13.8419 51.7124ZM31.7931 50.395L32.4522 59.3706L41.4278 58.7114L40.7696 49.7358L31.7931 50.395ZM49.7452 49.0766L50.4044 58.0532L59.38 57.394L58.7208 48.4184L49.7452 49.0766Z" fill="#F1412D"/>
<path d="M71.0609 53.0498L69.8568 53.7002C69.3709 53.9622 68.7646 53.7806 68.5023 53.2949C68.2402 52.8091 68.4211 52.2029 68.9066 51.9404L72.7777 49.8496L71.0609 53.0498Z" fill="black" fill-opacity="0.2"/>
<path d="M74.1255 5.07439C74.1689 4.52382 73.7577 4.0423 73.2071 3.9989V3.9989C72.6566 3.9555 72.175 4.36665 72.1316 4.91722L68.3646 52.706C68.3212 53.2566 68.7323 53.7381 69.2829 53.7815V53.7815C69.8335 53.8249 70.315 53.4138 70.3584 52.8632L74.1255 5.07439Z" fill="#D9D9D9"/>
<path d="M76.2398 8.82571L71.8407 8.10017" stroke="#988F8F" stroke-width="0.5" stroke-linecap="round"/>
<path d="M74.4382 25.4455L69.9798 25.4209" stroke="#988F8F" stroke-width="0.5" stroke-linecap="round"/>
<path d="M102.22 18.234C102.22 18.234 98.9241 18.5681 95.8747 16.0577C94.1736 14.6572 93.2998 19.4297 90.0912 14.3106C87.2836 9.83144 75.291 8.16641 75.291 8.16641C75.291 8.16641 77.2202 10.5153 76.9408 14.0554C76.6614 17.5955 73.86 26.2966 73.86 26.2966C73.86 26.2966 82.3039 20.3214 86.9282 22.7672C91.5526 25.2131 93.9266 19.722 96.4062 20.0222C100.39 20.5047 102.22 18.234 102.22 18.234Z" fill="#F0472D"/>
<path d="M80.3273 19.5563C79.8414 19.4222 79.4451 19.19 79.1384 18.8598C78.8347 18.5277 78.6379 18.1209 78.548 17.6395C78.4612 17.1563 78.4982 16.6232 78.659 16.0401C78.8247 15.4396 79.073 14.9568 79.404 14.5915C79.7357 14.2238 80.1163 13.9777 80.546 13.8532C80.9756 13.7288 81.4195 13.7298 81.8775 13.8562C82.2705 13.9646 82.6031 14.1418 82.8755 14.3879C83.1503 14.6345 83.3501 14.926 83.475 15.2622C83.6023 15.599 83.6385 15.9574 83.5837 16.3375L82.4711 16.0305C82.4709 15.7501 82.398 15.511 82.2524 15.3133C82.1075 15.1131 81.8932 14.9739 81.6095 14.8956C81.2119 14.7859 80.8464 14.8546 80.513 15.1018C80.1803 15.3464 79.9342 15.7578 79.7747 16.3359C79.6152 16.914 79.6125 17.3952 79.7667 17.7795C79.9239 18.162 80.2094 18.4103 80.6233 18.5245C80.986 18.6246 81.2985 18.6027 81.5609 18.4588C81.8263 18.3131 82.0101 18.0687 82.1122 17.7258L80.9997 17.4188L81.243 16.5368L83.4193 17.1372L83.2262 17.8369C83.0921 18.3232 82.8802 18.7147 82.5907 19.0113C82.3012 19.3079 81.9607 19.5036 81.5692 19.5986C81.1784 19.691 80.7644 19.6769 80.3273 19.5563Z" fill="white"/>
<path d="M85.7436 21.0507C85.2832 20.9237 84.9002 20.6978 84.5944 20.3732C84.2887 20.0485 84.0874 19.6445 83.9905 19.1612C83.8937 18.6779 83.9281 18.136 84.0938 17.5356C84.2608 16.9302 84.5098 16.4448 84.8408 16.0796C85.1718 15.7143 85.5517 15.4707 85.9807 15.3487C86.4097 15.2268 86.8544 15.2293 87.3147 15.3563C87.7751 15.4834 88.157 15.7089 88.4604 16.0329C88.7662 16.3576 88.9675 16.7616 89.0643 17.2449C89.1612 17.7282 89.1261 18.2725 88.959 18.8779C88.792 19.4834 88.543 19.9687 88.212 20.334C87.8817 20.6967 87.5021 20.9391 87.0731 21.0611C86.6471 21.1812 86.204 21.1777 85.7436 21.0507ZM85.2063 17.8425C85.0448 18.4281 85.041 18.909 85.1949 19.2852C85.3511 19.6621 85.6292 19.9057 86.0291 20.016C86.4267 20.1257 86.788 20.0585 87.1131 19.8145C87.4404 19.571 87.6849 19.1565 87.8465 18.571C88.0087 17.9829 88.0117 17.5005 87.8555 17.1236C87.7023 16.7449 87.4269 16.5007 87.0293 16.391C86.6294 16.2807 86.2654 16.3485 85.9373 16.5944C85.6122 16.8384 85.3686 17.2545 85.2063 17.8425Z" fill="white"/>
<path d="M89.7783 20.1934L90.7435 16.3825L91.9014 16.7019L90.7793 20.4696L89.7783 20.1934ZM89.3217 21.345C89.3744 21.154 89.475 21.0162 89.6234 20.9316C89.7742 20.8477 89.9414 20.8311 90.1251 20.8818C90.3111 20.9331 90.4461 21.0331 90.5302 21.1818C90.6166 21.3312 90.6334 21.5014 90.5807 21.6924C90.528 21.8835 90.4259 22.0222 90.2745 22.1086C90.1261 22.1931 89.9589 22.2097 89.7729 22.1584C89.5892 22.1077 89.4541 22.0077 89.3677 21.8584C89.2843 21.7072 89.269 21.5361 89.3217 21.345Z" fill="white"/>
<path d="M88.9128 12.9797C91.9255 17.7425 90.7372 21.287 86.0231 22.4042C86.3377 22.4947 86.6401 22.6154 86.928 22.7677C90.9383 24.8887 93.257 21.0417 95.419 20.1782C94.3009 19.1811 93.5984 17.8016 95.119 15.7934C95.0973 15.7955 95.076 15.8005 95.0544 15.8041C94.8857 15.9062 94.7024 15.9767 94.5056 16.0175C93.4561 16.6119 92.3542 17.9208 90.0913 14.3106C89.7935 13.8355 89.3919 13.3928 88.9128 12.9797Z" fill="black" fill-opacity="0.3"/>
</svg>
