<svg width="172" height="172" viewBox="0 0 172 172" fill="none" xmlns="http://www.w3.org/2000/svg">
<path d="M116.895 28.2353C119.485 27.059 145.397 26.6031 145.397 26.6031C145.397 26.6031 144.941 52.5149 143.765 55.1054C142.588 57.6959 86.7071 102.263 86.7071 102.263L69.7366 85.2929C69.7366 85.2929 114.304 29.4116 116.895 28.2353Z" fill="#EAE1EF"/>
<path d="M145.458 26.6645C145.457 26.7625 145 52.5814 143.826 55.167C142.646 57.7596 86.8071 102.294 86.7686 102.325L78.2218 93.7782L145.333 26.6666C145.415 26.665 145.458 26.6645 145.458 26.6645Z" fill="#C1B0CB"/>
<path d="M145.397 26.603L78.2218 93.7782L73.9792 89.5355L145.397 26.603Z" fill="#F7EAFF"/>
<path d="M65.7591 92.6291L79.3709 106.241L54.8873 136.912L35.0883 117.113L65.7591 92.6291Z" fill="#826545"/>
<path d="M49.2243 70.4498C52.2212 67.4529 57.1795 67.7755 59.8203 71.0903C64.6755 77.1848 72.2468 86.3928 78.4815 92.6607C84.9955 99.2095 94.6341 107.157 100.92 112.176C104.229 114.819 104.551 119.775 101.556 122.77L99.0217 125.304C96.7844 127.542 93.3348 128.001 90.6428 126.339C84.0073 122.241 71.7212 114.224 64.3584 106.784C57.2775 99.6285 49.6186 87.8211 45.6456 81.3547C43.9921 78.6633 44.4542 75.2199 46.6878 72.9863L49.2243 70.4498Z" fill="#D8B250"/>
<path d="M45.5719 74.1022C49.4325 70.2415 56.326 72.764 57.2436 78.146C58.8029 87.2908 61.7487 98.4943 67.1863 103.956C72.8814 109.676 84.5618 112.865 93.9604 114.58C99.3627 115.565 101.84 122.486 97.9565 126.369V126.369C95.9097 128.416 92.7458 128.829 90.2838 127.307C83.7591 123.272 71.1621 115.068 63.6508 107.491C56.3986 100.176 48.5319 87.9998 44.6358 81.6512C43.1463 79.2242 43.5583 76.1157 45.5719 74.1022V74.1022Z" fill="#947C48"/>
<circle cx="39.3309" cy="132.669" r="14.5" transform="rotate(45 39.3309 132.669)" fill="#D8B250" stroke="#947C48" stroke-width="7"/>
</svg>
