<svg width="80" height="65" viewBox="0 0 80 65" fill="none" xmlns="http://www.w3.org/2000/svg">
<mask id="path-1-outside-1_15_9" maskUnits="userSpaceOnUse" x="-0.733246" y="0" width="80" height="61" fill="black">
<rect fill="white" x="-0.733246" width="80" height="61"/>
<path d="M47.2896 43C49.4843 43.0001 50.9363 45.2797 50.0084 47.2686L45.8082 56.2686C45.3153 57.3248 44.255 58 43.0894 58H35.7105C33.5158 57.9999 32.0638 55.7203 32.9918 53.7314L37.1919 44.7314C37.6849 43.6752 38.7451 43 39.9107 43H47.2896ZM38.8306 26C41.134 26.0001 42.5779 28.4884 41.4351 30.4883L28.8072 52.5869C28.3036 53.4681 27.3888 54.0353 26.3755 54.0938L6.44292 55.2441C4.319 55.3667 2.74528 53.3 3.42827 51.2852L11.3091 28.0371C11.7219 26.8195 12.8652 26 14.1509 26H38.8306ZM63.4976 40C65.3381 40.0002 66.7443 41.6423 66.4615 43.4609L65.9644 46.6582C65.7508 48.0311 64.6219 49.0776 63.2369 49.1875L56.4732 49.7246C54.6447 49.8696 53.1157 48.3542 53.2437 46.5244L53.5044 42.79C53.6147 41.2185 54.9222 40 56.4976 40H63.4976ZM73.0513 14C75.3039 14.0002 76.7525 16.3905 75.7105 18.3877L66.8414 35.3877C66.3243 36.3786 65.2989 37 64.1812 37H46.9488C44.6961 36.9999 43.2476 34.6095 44.2896 32.6123L53.1587 15.6123C53.6758 14.6214 54.7012 14 55.8189 14H73.0513ZM10.8228 14.8359C11.2201 13.3113 12.7292 12.3537 14.2779 12.6436L21.1578 13.9316C22.967 14.2703 24.0478 16.1432 23.4351 17.8789L22.358 20.9297C21.8955 22.2398 20.594 23.0607 19.2125 22.9141L12.4644 22.1973C10.6407 22.0033 9.4162 20.2328 9.87847 18.458L10.8228 14.8359ZM51.7349 3C54.0594 3 55.5009 5.52951 54.316 7.5293L47.2046 19.5293C46.6644 20.4409 45.6832 21 44.6236 21H30.2652C27.9406 21 26.4991 18.4705 27.6841 16.4707L34.7955 4.4707C35.3357 3.55913 36.3169 3 37.3765 3H51.7349ZM58.0513 7.55664C58.5268 6.17612 59.9896 5.39847 61.4 5.77637L63.3091 6.28809C64.91 6.71735 65.7504 8.47319 65.0806 9.98926C64.5748 11.1338 63.3492 11.7819 62.1187 11.5547L60.1753 11.1953C58.5038 10.8867 57.4981 9.1638 58.0513 7.55664ZM24.5181 5.23047C25.6903 4.05846 27.6318 4.2086 28.6099 5.54688C29.3482 6.5572 29.296 7.94246 28.4839 8.89453L27.2017 10.3984C26.0985 11.6917 24.103 11.701 22.9878 10.418C22.03 9.31595 22.0882 7.66037 23.1207 6.62793L24.5181 5.23047Z"/>
</mask>
<path d="M47.2896 43C49.4843 43.0001 50.9363 45.2797 50.0084 47.2686L45.8082 56.2686C45.3153 57.3248 44.255 58 43.0894 58H35.7105C33.5158 57.9999 32.0638 55.7203 32.9918 53.7314L37.1919 44.7314C37.6849 43.6752 38.7451 43 39.9107 43H47.2896ZM38.8306 26C41.134 26.0001 42.5779 28.4884 41.4351 30.4883L28.8072 52.5869C28.3036 53.4681 27.3888 54.0353 26.3755 54.0938L6.44292 55.2441C4.319 55.3667 2.74528 53.3 3.42827 51.2852L11.3091 28.0371C11.7219 26.8195 12.8652 26 14.1509 26H38.8306ZM63.4976 40C65.3381 40.0002 66.7443 41.6423 66.4615 43.4609L65.9644 46.6582C65.7508 48.0311 64.6219 49.0776 63.2369 49.1875L56.4732 49.7246C54.6447 49.8696 53.1157 48.3542 53.2437 46.5244L53.5044 42.79C53.6147 41.2185 54.9222 40 56.4976 40H63.4976ZM73.0513 14C75.3039 14.0002 76.7525 16.3905 75.7105 18.3877L66.8414 35.3877C66.3243 36.3786 65.2989 37 64.1812 37H46.9488C44.6961 36.9999 43.2476 34.6095 44.2896 32.6123L53.1587 15.6123C53.6758 14.6214 54.7012 14 55.8189 14H73.0513ZM10.8228 14.8359C11.2201 13.3113 12.7292 12.3537 14.2779 12.6436L21.1578 13.9316C22.967 14.2703 24.0478 16.1432 23.4351 17.8789L22.358 20.9297C21.8955 22.2398 20.594 23.0607 19.2125 22.9141L12.4644 22.1973C10.6407 22.0033 9.4162 20.2328 9.87847 18.458L10.8228 14.8359ZM51.7349 3C54.0594 3 55.5009 5.52951 54.316 7.5293L47.2046 19.5293C46.6644 20.4409 45.6832 21 44.6236 21H30.2652C27.9406 21 26.4991 18.4705 27.6841 16.4707L34.7955 4.4707C35.3357 3.55913 36.3169 3 37.3765 3H51.7349ZM58.0513 7.55664C58.5268 6.17612 59.9896 5.39847 61.4 5.77637L63.3091 6.28809C64.91 6.71735 65.7504 8.47319 65.0806 9.98926C64.5748 11.1338 63.3492 11.7819 62.1187 11.5547L60.1753 11.1953C58.5038 10.8867 57.4981 9.1638 58.0513 7.55664ZM24.5181 5.23047C25.6903 4.05846 27.6318 4.2086 28.6099 5.54688C29.3482 6.5572 29.296 7.94246 28.4839 8.89453L27.2017 10.3984C26.0985 11.6917 24.103 11.701 22.9878 10.418C22.03 9.31595 22.0882 7.66037 23.1207 6.62793L24.5181 5.23047Z" fill="#CFBFB8"/>
<path d="M47.2896 43L47.2898 40H47.2896V43ZM50.0084 47.2686L52.7269 48.5373L52.727 48.537L50.0084 47.2686ZM45.8082 56.2686L43.0896 54.9999L43.0896 54.9999L45.8082 56.2686ZM35.7105 58L35.7104 61H35.7105V58ZM32.9918 53.7314L30.2732 52.4627L30.2731 52.463L32.9918 53.7314ZM37.1919 44.7314L39.9105 46.0001L39.9105 46.0001L37.1919 44.7314ZM38.8306 26L38.8308 23H38.8306V26ZM41.4351 30.4883L44.0398 31.9767L44.0399 31.9766L41.4351 30.4883ZM28.8072 52.5869L26.2025 51.0985L26.2025 51.0985L28.8072 52.5869ZM26.3755 54.0938L26.5484 57.0888H26.5484L26.3755 54.0938ZM6.44292 55.2441L6.61571 58.2392L6.61578 58.2392L6.44292 55.2441ZM3.42827 51.2852L0.587083 50.322L0.587077 50.322L3.42827 51.2852ZM11.3091 28.0371L14.1503 29.0002L14.1503 29.0002L11.3091 28.0371ZM63.4976 40L63.498 37H63.4976V40ZM66.4615 43.4609L63.4971 43L63.4971 43.0001L66.4615 43.4609ZM65.9644 46.6582L68.9287 47.1195L68.9288 47.1191L65.9644 46.6582ZM63.2369 49.1875L62.9995 46.1969L62.9994 46.1969L63.2369 49.1875ZM56.4732 49.7246L56.7104 52.7152L56.7107 52.7152L56.4732 49.7246ZM53.2437 46.5244L56.2364 46.7338L56.2364 46.7334L53.2437 46.5244ZM53.5044 42.79L50.5118 42.5801L50.5117 42.5811L53.5044 42.79ZM73.0513 14L73.0516 11H73.0513V14ZM75.7105 18.3877L73.0507 17L73.0507 17L75.7105 18.3877ZM66.8414 35.3877L69.5011 36.7754L69.5011 36.7753L66.8414 35.3877ZM46.9488 37L46.9486 40H46.9488V37ZM44.2896 32.6123L46.9494 34L46.9494 34L44.2896 32.6123ZM53.1587 15.6123L50.499 14.2246L50.499 14.2247L53.1587 15.6123ZM10.8228 14.8359L13.7258 15.5928L13.7258 15.5925L10.8228 14.8359ZM14.2779 12.6436L14.83 9.69479L14.8299 9.69477L14.2779 12.6436ZM21.1578 13.9316L20.6057 16.8804L20.6058 16.8804L21.1578 13.9316ZM23.4351 17.8789L26.264 18.8777L26.264 18.8776L23.4351 17.8789ZM22.358 20.9297L19.5291 19.9309L19.5291 19.931L22.358 20.9297ZM19.2125 22.9141L18.8956 25.8973L18.8959 25.8973L19.2125 22.9141ZM12.4644 22.1973L12.1471 25.1804L12.1475 25.1805L12.4644 22.1973ZM9.87847 18.458L6.97551 17.7012L6.97533 17.7019L9.87847 18.458ZM54.316 7.5293L56.8968 9.05874L56.8969 9.0586L54.316 7.5293ZM47.2046 19.5293L44.6238 17.9999L44.6238 17.9999L47.2046 19.5293ZM27.6841 16.4707L25.1033 14.9413L25.1032 14.9414L27.6841 16.4707ZM34.7955 4.4707L37.3763 6.00014L37.3763 6.00014L34.7955 4.4707ZM58.0513 7.55664L55.2148 6.57973L55.2147 6.58013L58.0513 7.55664ZM61.4 5.77637L62.1766 2.87865L62.1764 2.87859L61.4 5.77637ZM63.3091 6.28809L64.0861 3.39045L64.0858 3.39037L63.3091 6.28809ZM65.0806 9.98926L67.8246 11.2019L67.8247 11.2016L65.0806 9.98926ZM62.1187 11.5547L61.5732 14.5047L61.5739 14.5048L62.1187 11.5547ZM60.1753 11.1953L60.7209 8.24533L60.7201 8.24519L60.1753 11.1953ZM24.5181 5.23047L22.397 3.10899L22.3968 3.10915L24.5181 5.23047ZM28.6099 5.54688L31.0321 3.77683L31.032 3.77668L28.6099 5.54688ZM28.4839 8.89453L26.2014 6.94769L26.2011 6.94815L28.4839 8.89453ZM27.2017 10.3984L29.4842 12.3453L29.4846 12.3448L27.2017 10.3984ZM22.9878 10.418L20.7235 12.3859L20.7236 12.386L22.9878 10.418ZM23.1207 6.62793L20.9993 4.50661V4.50661L23.1207 6.62793ZM47.2896 43L47.2894 46L47.2897 46.0001L50.0084 47.2686L52.727 48.537C54.583 44.559 51.6788 40.0003 47.2898 40L47.2896 43ZM50.0084 47.2686L47.2898 45.9999L43.0896 54.9999L45.8082 56.2686L48.5267 57.5373L52.7269 48.5373L50.0084 47.2686ZM45.8082 56.2686L43.0896 54.9999L43.0894 55V58V61C45.4205 61 47.5409 59.6497 48.5267 57.5372L45.8082 56.2686ZM43.0894 58V55H35.7105V58V61H43.0894V58ZM35.7105 58L35.7106 55L35.7104 54.9999L32.9918 53.7314L30.2731 52.463C28.4171 56.4409 31.3212 60.9999 35.7104 61L35.7105 58ZM32.9918 53.7314L35.7103 55.0001L39.9105 46.0001L37.1919 44.7314L34.4734 43.4627L30.2732 52.4627L32.9918 53.7314ZM37.1919 44.7314L39.9105 46.0001L39.9107 46V43V40C37.5796 40 35.4592 41.3503 34.4734 43.4628L37.1919 44.7314ZM39.9107 43V46H47.2896V43V40H39.9107V43ZM38.8306 26L38.8305 29L38.8303 28.9999L41.4351 30.4883L44.0399 31.9766C46.3253 27.9769 43.4376 23.0002 38.8308 23L38.8306 26ZM41.4351 30.4883L38.8304 28.9999L26.2025 51.0985L28.8072 52.5869L31.4119 54.0753L44.0398 31.9767L41.4351 30.4883ZM28.8072 52.5869L26.2025 51.0985L26.2026 51.0987L26.3755 54.0938L26.5484 57.0888C28.5757 56.9717 30.4051 55.8372 31.4119 54.0753L28.8072 52.5869ZM26.3755 54.0938L26.2027 51.0987L6.27007 52.2491L6.44292 55.2441L6.61578 58.2392L26.5484 57.0888L26.3755 54.0938ZM6.44292 55.2441L6.27013 52.2491C6.26391 52.2495 6.26049 52.2493 6.25954 52.2492C6.25857 52.2492 6.25908 52.2491 6.26076 52.2495C6.2646 52.2502 6.26899 52.2517 6.27265 52.2534C6.27594 52.255 6.2768 52.2559 6.27575 52.2551C6.27454 52.2541 6.27227 52.2519 6.2698 52.2487C6.26732 52.2454 6.26586 52.2427 6.26523 52.2413C6.26468 52.24 6.26533 52.2411 6.26597 52.2447C6.26668 52.2487 6.26692 52.2533 6.26664 52.2572C6.26651 52.2589 6.26636 52.2594 6.26655 52.2585C6.26674 52.2575 6.26747 52.2542 6.26947 52.2483L3.42827 51.2852L0.587077 50.322C-0.778926 54.3517 2.36789 58.4842 6.61571 58.2392L6.44292 55.2441ZM3.42827 51.2852L6.26947 52.2483L14.1503 29.0002L11.3091 28.0371L8.46794 27.074L0.587083 50.322L3.42827 51.2852ZM11.3091 28.0371L14.1503 29.0002L14.1509 29V26V23C11.5799 23 9.29356 24.6384 8.46794 27.074L11.3091 28.0371ZM14.1509 26V29H38.8306V26V23H14.1509V26ZM63.4976 40L63.4973 43L63.4971 43L66.4615 43.4609L69.4258 43.9219C69.9914 40.2848 67.179 37.0004 63.498 37L63.4976 40ZM66.4615 43.4609L63.4971 43.0001L63 46.1973L65.9644 46.6582L68.9288 47.1191L69.4259 43.9218L66.4615 43.4609ZM65.9644 46.6582L63.0001 46.1969L62.9995 46.1969L63.2369 49.1875L63.4742 52.1781C66.2435 51.9583 68.5014 49.866 68.9287 47.1195L65.9644 46.6582ZM63.2369 49.1875L62.9994 46.1969L56.2357 46.734L56.4732 49.7246L56.7107 52.7152L63.4744 52.1781L63.2369 49.1875ZM56.4732 49.7246L56.236 46.734L56.2364 46.7338L53.2437 46.5244L50.251 46.3151C49.9951 49.9738 53.0526 53.0053 56.7104 52.7152L56.4732 49.7246ZM53.2437 46.5244L56.2364 46.7334L56.4972 42.999L53.5044 42.79L50.5117 42.5811L50.251 46.3155L53.2437 46.5244ZM53.5044 42.79L56.4971 43L56.4976 43V40V37C53.3475 37 50.7323 39.4364 50.5118 42.5801L53.5044 42.79ZM56.4976 40V43H63.4976V40V37H56.4976V40ZM73.0513 14L73.051 17L73.0507 17L75.7105 18.3877L78.3703 19.7754C80.4541 15.7814 77.5573 11.0004 73.0516 11L73.0513 14ZM75.7105 18.3877L73.0507 17L64.1816 34L66.8414 35.3877L69.5011 36.7753L78.3703 19.7753L75.7105 18.3877ZM66.8414 35.3877L64.1816 34L64.1812 34V37V40C66.4162 40 68.4669 38.7577 69.5011 36.7754L66.8414 35.3877ZM64.1812 37V34H46.9488V37V40H64.1812V37ZM46.9488 37L46.949 34L46.9494 34L44.2896 32.6123L41.6298 31.2246C39.5461 35.2185 42.4426 39.9997 46.9486 40L46.9488 37ZM44.2896 32.6123L46.9494 34L55.8185 17L53.1587 15.6123L50.499 14.2247L41.6298 31.2247L44.2896 32.6123ZM53.1587 15.6123L55.8185 17L55.8189 17V14V11C53.5839 11 51.5332 12.2423 50.499 14.2246L53.1587 15.6123ZM55.8189 14V17H73.0513V14V11H55.8189V14ZM10.8228 14.8359L13.7258 15.5925L13.7259 15.5923L14.2779 12.6436L14.8299 9.69477C11.7324 9.11497 8.71437 11.0303 7.91976 14.0794L10.8228 14.8359ZM14.2779 12.6436L13.7258 15.5923L20.6057 16.8804L21.1578 13.9316L21.7098 10.9829L14.83 9.69479L14.2779 12.6436ZM21.1578 13.9316L20.6058 16.8804L20.6062 16.8802L23.4351 17.8789L26.264 18.8776C27.4898 15.4054 25.3274 11.66 21.7097 10.9829L21.1578 13.9316ZM23.4351 17.8789L20.6063 16.8801L19.5291 19.9309L22.358 20.9297L25.1868 21.9285L26.264 18.8777L23.4351 17.8789ZM22.358 20.9297L19.5291 19.931L19.529 19.9308L19.2125 22.9141L18.8959 25.8973C21.6585 26.1905 24.2618 24.5489 25.1869 21.9283L22.358 20.9297ZM19.2125 22.9141L19.5293 19.9308L12.7813 19.214L12.4644 22.1973L12.1475 25.1805L18.8956 25.8973L19.2125 22.9141ZM12.4644 22.1973L12.7817 19.2141L12.7816 19.2142L9.87847 18.458L6.97533 17.7019C6.05074 21.2517 8.49983 24.7925 12.1471 25.1804L12.4644 22.1973ZM9.87847 18.458L12.7814 19.2149L13.7258 15.5928L10.8228 14.8359L7.91985 14.0791L6.97551 17.7012L9.87847 18.458ZM51.7349 3V6L51.735 5.99999L54.316 7.5293L56.8969 9.0586C59.2669 5.05884 56.3838 0 51.7349 0V3ZM54.316 7.5293L51.7351 5.99986L44.6238 17.9999L47.2046 19.5293L49.7855 21.0587L56.8968 9.05874L54.316 7.5293ZM47.2046 19.5293L44.6238 17.9999L44.6236 18V21V24C46.7429 24 48.7051 22.8819 49.7855 21.0587L47.2046 19.5293ZM44.6236 21V18H30.2652V21V24H44.6236V21ZM30.2652 21V18L30.265 18.0001L27.6841 16.4707L25.1032 14.9414C22.7331 18.9412 25.6164 24 30.2652 24V21ZM27.6841 16.4707L30.265 18.0001L37.3763 6.00014L34.7955 4.4707L32.2146 2.94126L25.1033 14.9413L27.6841 16.4707ZM34.7955 4.4707L37.3763 6.00014L37.3765 6V3V0C35.2572 0 33.295 1.11816 32.2146 2.94127L34.7955 4.4707ZM37.3765 3V6H51.7349V3V0H37.3765V3ZM58.0513 7.55664L60.8878 8.53355C60.8502 8.64283 60.7349 8.704 60.6235 8.67414L61.4 5.77637L62.1764 2.87859C59.2443 2.09294 56.2034 3.70941 55.2148 6.57973L58.0513 7.55664ZM61.4 5.77637L60.6233 8.67409L62.5325 9.1858L63.3091 6.28809L64.0858 3.39037L62.1766 2.87865L61.4 5.77637ZM63.3091 6.28809L62.5321 9.18572C62.3555 9.13836 62.2626 8.94428 62.3365 8.7769L65.0806 9.98926L67.8247 11.2016C69.2383 8.00211 67.4644 4.29634 64.0861 3.39045L63.3091 6.28809ZM65.0806 9.98926L62.3366 8.77662C62.392 8.65139 62.5265 8.57927 62.6635 8.60456L62.1187 11.5547L61.5739 14.5048C64.172 14.9846 66.7577 13.6163 67.8246 11.2019L65.0806 9.98926ZM62.1187 11.5547L62.6642 8.6047L60.7209 8.24533L60.1753 11.1953L59.6298 14.1453L61.5732 14.5047L62.1187 11.5547ZM60.1753 11.1953L60.7201 8.24519C60.8519 8.26952 60.9318 8.40568 60.8879 8.53315L58.0513 7.55664L55.2147 6.58013C54.0643 9.92191 56.1557 13.5038 59.6306 14.1454L60.1753 11.1953ZM24.5181 5.23047L26.6393 7.35194C26.5099 7.48132 26.2957 7.4647 26.1878 7.31707L28.6099 5.54688L31.032 3.77668C28.9679 0.952502 24.8707 0.635593 22.397 3.10899L24.5181 5.23047ZM28.6099 5.54688L26.1877 7.31693C26.106 7.20512 26.1121 7.05246 26.2014 6.94769L28.4839 8.89453L30.7664 10.8414C32.4799 8.83247 32.5904 5.90928 31.0321 3.77683L28.6099 5.54688ZM28.4839 8.89453L26.2011 6.94815L24.9188 8.45205L27.2017 10.3984L29.4846 12.3448L30.7668 10.8409L28.4839 8.89453ZM27.2017 10.3984L24.9193 8.45153C25.0065 8.34922 25.164 8.34854 25.2521 8.44996L22.9878 10.418L20.7236 12.386C23.042 15.0534 27.1906 15.0342 29.4842 12.3453L27.2017 10.3984ZM22.9878 10.418L25.2521 8.44999C25.3283 8.53758 25.3232 8.66803 25.242 8.74925L23.1207 6.62793L20.9993 4.50661C18.8532 6.65271 18.7318 10.0943 20.7235 12.3859L22.9878 10.418ZM23.1207 6.62793L25.242 8.74925L26.6394 7.35179L24.5181 5.23047L22.3968 3.10915L20.9993 4.50661L23.1207 6.62793Z" fill="white" fill-opacity="0.2" mask="url(#path-1-outside-1_15_9)"/>
<path d="M12.4438 29.7381C12.7752 28.7026 13.7377 28 14.8249 28H21.5C22.8807 28 24 29.1193 24 30.5C24 31.8807 22.8807 33 21.5 33H18.2102C17.1791 33 16.2539 33.633 15.8802 34.5939L13.7885 39.9724C13.3515 41.0962 12.092 41.6595 10.963 41.2361C9.86365 40.8239 9.28112 39.6215 9.63897 38.5032L12.4438 29.7381Z" fill="#FFFDEE" fill-opacity="0.3"/>
<rect x="26" y="28" width="5" height="5" rx="2.5" fill="#FFFDEE" fill-opacity="0.3"/>
<rect x="55" y="41" width="5" height="5" rx="2.5" fill="#FFFDEE" fill-opacity="0.3"/>
<rect x="40" y="54.8424" width="12" height="5" rx="2.5" transform="rotate(-64.6264 40 54.8424)" fill="#FFFDEE" fill-opacity="0.3"/>
<path d="M7.39324 54.9028C6.54968 54.9617 5.75357 54.5072 5.3754 53.7508V53.7508C4.71509 52.4302 5.59282 50.8595 7.06359 50.7297L23.3795 49.2901C24.191 49.2185 24.9168 48.7559 25.3244 48.0506L36.7804 28.2254C37.4447 27.0758 38.907 26.6697 40.0689 27.312V27.312C41.2708 27.9764 41.6864 29.5023 40.9876 30.6844L28.1682 52.3697C27.7498 53.0774 27.0103 53.5342 26.1901 53.5914L7.39324 54.9028Z" fill="#1C1A12" fill-opacity="0.3"/>
<path d="M67.0462 33.997C66.4521 35.1344 65.0933 35.6373 63.9018 35.1607L63.6203 35.0481C62.2273 34.4909 61.6354 32.8409 62.3565 31.5253L70.8732 15.9876C71.5117 14.8228 72.9562 14.3704 74.145 14.9629V14.9629C75.3838 15.5803 75.8748 17.0943 75.2339 18.3213L67.0462 33.997Z" fill="#1C1A12" fill-opacity="0.3"/>
<path d="M30.6702 20.6578C29.3673 20.6414 28.2955 19.6271 28.2074 18.3271L28.1897 18.0664C28.0886 16.5756 29.3093 15.3296 30.8018 15.4001L38.9628 15.7851C40.271 15.8468 41.3076 16.9117 41.334 18.2211V18.2211C41.3624 19.6274 40.2207 20.7778 38.8142 20.7602L30.6702 20.6578Z" fill="#1C1A12" fill-opacity="0.3"/>
<rect x="45.6753" y="33.7574" width="20" height="5" rx="2.5" transform="rotate(-62.0231 45.6753 33.7574)" fill="#FFFDEE" fill-opacity="0.3"/>
<rect x="48" y="4" width="5" height="5" rx="2.5" fill="#FFFDEE" fill-opacity="0.3"/>
<rect x="41" y="17.6603" width="10" height="5" rx="2.5" transform="rotate(-60 41 17.6603)" fill="#FFFDEE" fill-opacity="0.3"/>
<rect x="12.0167" y="13" width="9" height="5" rx="2.5" transform="rotate(11.732 12.0167 13)" fill="#FFFDEE" fill-opacity="0.3"/>
</svg>
