<svg width="78" height="83" viewBox="0 0 78 83" fill="none" xmlns="http://www.w3.org/2000/svg">
<ellipse cx="38.3897" cy="48.1174" rx="29.0411" ry="23.9162" fill="#602E22"/>
<ellipse cx="38.3897" cy="53.4985" rx="22.5068" ry="18.5351" fill="#3F0F0F"/>
<ellipse cx="38.7527" cy="59.1786" rx="15.6096" ry="12.855" fill="#250707"/>
<mask id="path-4-outside-1_20_53" maskUnits="userSpaceOnUse" x="0" y="14" width="78" height="69" fill="black">
<rect fill="white" y="14" width="78" height="69"/>
<path d="M28.6371 62.7899C29.6507 62.2145 30.9058 62.2787 31.8558 62.954L39.4554 68.3544C41.2444 69.6259 41.1064 72.3256 39.1976 73.4091L28.5619 79.4462C27.5482 80.0215 26.2932 79.9573 25.3431 79.2821L17.7435 73.8817C15.9546 72.6102 16.0918 69.9106 18.0004 68.827L28.6371 62.7899ZM8.85289 69.8036C9.17629 67.998 11.0304 66.9021 12.7679 67.4901L13.097 67.6024C14.5895 68.1075 15.4371 69.6809 15.0375 71.2049L14.4047 73.619C13.9377 75.3993 11.9925 76.3431 10.305 75.6083L10.1664 75.5477C8.89266 74.9929 8.16654 73.636 8.41149 72.2684L8.85289 69.8036ZM51.8402 60.663C53.5775 60.0548 55.4487 61.1409 55.7826 62.951L56.598 67.3758C56.85 68.7422 56.1316 70.1035 54.8607 70.6649L47.0482 74.1151C45.3703 74.8563 43.4255 73.9314 42.9418 72.162L41.5882 67.2089C41.1729 65.6892 42.0037 64.1074 43.4906 63.5868L51.8402 60.663ZM58.4291 62.2704C58.9422 60.7809 60.5206 59.9417 62.0423 60.3495L64.4525 60.996C66.2305 61.4724 67.1643 63.4227 66.4203 65.1063L66.3597 65.244C65.7981 66.5149 64.437 67.2336 63.0707 66.9813L60.6078 66.5272C58.8039 66.1941 57.7185 64.3338 58.3158 62.5995L58.4291 62.2704ZM20.3685 53.4833C22.2042 53.3516 23.7244 54.8893 23.5726 56.7235L23.2015 61.2079C23.087 62.5925 22.037 63.7176 20.6634 63.9266L12.2201 65.2108C10.4066 65.4867 8.77238 64.0852 8.76891 62.2508L8.75914 57.1161C8.75618 55.5405 9.9728 54.231 11.5443 54.118L20.3685 53.4833ZM69.4349 51.6141C71.2529 51.5283 72.8021 53.0633 72.722 54.87L72.6283 57.0008C72.5668 58.3881 71.546 59.5056 70.1673 59.6952L66.2435 60.2342C64.4314 60.4834 62.7467 59.0589 62.6888 57.2284L62.6107 54.7508C62.561 53.1717 63.7555 51.8823 65.3382 51.8075L69.4349 51.6141ZM67.0931 35.6327C68.8005 35.0353 70.6444 36.0739 71.0189 37.8436L72.3988 44.3651C72.6887 45.7351 71.9924 47.1231 70.7211 47.7098L62.9828 51.2801C61.3125 52.0506 59.3486 51.15 58.8422 49.3817L56.7953 42.2323C56.3579 40.7043 57.1887 39.1002 58.6888 38.5751L67.0931 35.6327ZM9.55114 34.8133C10.7606 33.4259 12.9236 33.4451 14.1088 34.8534L17.0062 38.2967C17.9006 39.3598 17.9476 40.8983 17.1205 42.0145L12.0365 48.8758C10.9444 50.3497 8.79658 50.5068 7.50133 49.2079L3.87535 45.5721C2.76304 44.4565 2.70345 42.6699 3.73864 41.4823L9.55114 34.8133ZM29.1869 28.1151C28.9447 26.5418 30.2511 25.1619 31.8353 25.3173C32.9004 25.4218 33.7731 26.209 33.9867 27.2577L35.223 33.326C35.5415 34.8905 34.3809 36.3678 32.7855 36.4286C31.472 36.4785 30.3293 35.5354 30.1293 34.2362L29.1869 28.1151ZM69.223 26.6776C70.5246 25.3761 72.6809 25.543 73.767 27.0292L73.8558 27.1512C74.6755 28.273 74.6178 29.811 73.7162 30.868L72.0902 32.7733C70.8999 34.1689 68.7477 34.1791 67.5443 32.7948L67.3158 32.5321C66.2823 31.343 66.3445 29.5573 67.4584 28.4432L69.223 26.6776ZM58.7992 17.8778C59.6545 17.0231 60.9392 16.7657 62.058 17.2245L68.307 19.787C70.2894 20.6002 70.8051 23.1697 69.2894 24.6844L61.7494 32.2196C60.8942 33.0743 59.6093 33.3325 58.4906 32.8739L52.2416 30.3114C50.2588 29.4983 49.7434 26.9278 51.2591 25.413L58.7992 17.8778ZM46.7191 19.6171C48.5369 19.5314 50.0862 21.0654 50.0062 22.8719L49.7474 28.7157C49.6859 30.103 48.6652 31.2205 47.2865 31.41L38.8031 32.576C36.9909 32.8252 35.3063 31.4007 35.2484 29.5702L35.0414 22.9823C34.9917 21.4031 36.1862 20.1138 37.7689 20.0389L46.7191 19.6171ZM23.3695 18.5253C25.1066 17.9174 26.9769 19.0025 27.3109 20.8124L28.1273 25.2382C28.3793 26.6044 27.6597 27.9648 26.389 28.5262L18.5765 31.9774C16.8986 32.7186 14.9538 31.7937 14.4701 30.0243L13.1166 25.0712C12.7011 23.5514 13.5319 21.9687 15.0189 21.4481L23.3695 18.5253Z"/>
</mask>
<path d="M28.6371 62.7899C29.6507 62.2145 30.9058 62.2787 31.8558 62.954L39.4554 68.3544C41.2444 69.6259 41.1064 72.3256 39.1976 73.4091L28.5619 79.4462C27.5482 80.0215 26.2932 79.9573 25.3431 79.2821L17.7435 73.8817C15.9546 72.6102 16.0918 69.9106 18.0004 68.827L28.6371 62.7899ZM8.85289 69.8036C9.17629 67.998 11.0304 66.9021 12.7679 67.4901L13.097 67.6024C14.5895 68.1075 15.4371 69.6809 15.0375 71.2049L14.4047 73.619C13.9377 75.3993 11.9925 76.3431 10.305 75.6083L10.1664 75.5477C8.89266 74.9929 8.16654 73.636 8.41149 72.2684L8.85289 69.8036ZM51.8402 60.663C53.5775 60.0548 55.4487 61.1409 55.7826 62.951L56.598 67.3758C56.85 68.7422 56.1316 70.1035 54.8607 70.6649L47.0482 74.1151C45.3703 74.8563 43.4255 73.9314 42.9418 72.162L41.5882 67.2089C41.1729 65.6892 42.0037 64.1074 43.4906 63.5868L51.8402 60.663ZM58.4291 62.2704C58.9422 60.7809 60.5206 59.9417 62.0423 60.3495L64.4525 60.996C66.2305 61.4724 67.1643 63.4227 66.4203 65.1063L66.3597 65.244C65.7981 66.5149 64.437 67.2336 63.0707 66.9813L60.6078 66.5272C58.8039 66.1941 57.7185 64.3338 58.3158 62.5995L58.4291 62.2704ZM20.3685 53.4833C22.2042 53.3516 23.7244 54.8893 23.5726 56.7235L23.2015 61.2079C23.087 62.5925 22.037 63.7176 20.6634 63.9266L12.2201 65.2108C10.4066 65.4867 8.77238 64.0852 8.76891 62.2508L8.75914 57.1161C8.75618 55.5405 9.9728 54.231 11.5443 54.118L20.3685 53.4833ZM69.4349 51.6141C71.2529 51.5283 72.8021 53.0633 72.722 54.87L72.6283 57.0008C72.5668 58.3881 71.546 59.5056 70.1673 59.6952L66.2435 60.2342C64.4314 60.4834 62.7467 59.0589 62.6888 57.2284L62.6107 54.7508C62.561 53.1717 63.7555 51.8823 65.3382 51.8075L69.4349 51.6141ZM67.0931 35.6327C68.8005 35.0353 70.6444 36.0739 71.0189 37.8436L72.3988 44.3651C72.6887 45.7351 71.9924 47.1231 70.7211 47.7098L62.9828 51.2801C61.3125 52.0506 59.3486 51.15 58.8422 49.3817L56.7953 42.2323C56.3579 40.7043 57.1887 39.1002 58.6888 38.5751L67.0931 35.6327ZM9.55114 34.8133C10.7606 33.4259 12.9236 33.4451 14.1088 34.8534L17.0062 38.2967C17.9006 39.3598 17.9476 40.8983 17.1205 42.0145L12.0365 48.8758C10.9444 50.3497 8.79658 50.5068 7.50133 49.2079L3.87535 45.5721C2.76304 44.4565 2.70345 42.6699 3.73864 41.4823L9.55114 34.8133ZM29.1869 28.1151C28.9447 26.5418 30.2511 25.1619 31.8353 25.3173C32.9004 25.4218 33.7731 26.209 33.9867 27.2577L35.223 33.326C35.5415 34.8905 34.3809 36.3678 32.7855 36.4286C31.472 36.4785 30.3293 35.5354 30.1293 34.2362L29.1869 28.1151ZM69.223 26.6776C70.5246 25.3761 72.6809 25.543 73.767 27.0292L73.8558 27.1512C74.6755 28.273 74.6178 29.811 73.7162 30.868L72.0902 32.7733C70.8999 34.1689 68.7477 34.1791 67.5443 32.7948L67.3158 32.5321C66.2823 31.343 66.3445 29.5573 67.4584 28.4432L69.223 26.6776ZM58.7992 17.8778C59.6545 17.0231 60.9392 16.7657 62.058 17.2245L68.307 19.787C70.2894 20.6002 70.8051 23.1697 69.2894 24.6844L61.7494 32.2196C60.8942 33.0743 59.6093 33.3325 58.4906 32.8739L52.2416 30.3114C50.2588 29.4983 49.7434 26.9278 51.2591 25.413L58.7992 17.8778ZM46.7191 19.6171C48.5369 19.5314 50.0862 21.0654 50.0062 22.8719L49.7474 28.7157C49.6859 30.103 48.6652 31.2205 47.2865 31.41L38.8031 32.576C36.9909 32.8252 35.3063 31.4007 35.2484 29.5702L35.0414 22.9823C34.9917 21.4031 36.1862 20.1138 37.7689 20.0389L46.7191 19.6171ZM23.3695 18.5253C25.1066 17.9174 26.9769 19.0025 27.3109 20.8124L28.1273 25.2382C28.3793 26.6044 27.6597 27.9648 26.389 28.5262L18.5765 31.9774C16.8986 32.7186 14.9538 31.7937 14.4701 30.0243L13.1166 25.0712C12.7011 23.5514 13.5319 21.9687 15.0189 21.4481L23.3695 18.5253Z" fill="#CFBFB8"/>
<path d="M28.6371 62.7899L30.1179 65.399L30.118 65.3989L28.6371 62.7899ZM31.8558 62.954L30.1178 65.3993L30.1181 65.3994L31.8558 62.954ZM39.4554 68.3544L41.1935 65.9091L41.1932 65.9089L39.4554 68.3544ZM39.1976 73.4091L37.7167 70.8L37.7167 70.8001L39.1976 73.4091ZM28.5619 79.4462L30.0428 82.0552L30.0428 82.0552L28.5619 79.4462ZM25.3431 79.2821L27.0811 76.8368L27.0809 76.8367L25.3431 79.2821ZM17.7435 73.8817L16.0055 76.327L16.0058 76.3271L17.7435 73.8817ZM18.0004 68.827L16.5195 66.218L16.5192 66.2181L18.0004 68.827ZM8.85289 69.8036L5.89989 69.2747L5.89987 69.2748L8.85289 69.8036ZM12.7679 67.4901L13.7368 64.6509L13.7296 64.6484L12.7679 67.4901ZM13.097 67.6024L12.1282 70.4417L12.1354 70.4441L13.097 67.6024ZM15.0375 71.2049L12.1356 70.4441L12.1355 70.4442L15.0375 71.2049ZM14.4047 73.619L17.3065 74.3801L17.3066 74.3797L14.4047 73.619ZM10.305 75.6083L9.10462 78.3576L9.10734 78.3588L10.305 75.6083ZM10.1664 75.5477L11.3668 72.7984L11.3645 72.7974L10.1664 75.5477ZM8.41149 72.2684L11.3645 72.7973L11.3645 72.7973L8.41149 72.2684ZM51.8402 60.663L50.849 57.8314L50.8487 57.8315L51.8402 60.663ZM55.7826 62.951L58.7329 62.4073L58.7328 62.4068L55.7826 62.951ZM56.598 67.3758L53.6477 67.9196L53.6478 67.9201L56.598 67.3758ZM54.8607 70.6649L56.0727 73.4092L56.073 73.4091L54.8607 70.6649ZM47.0482 74.1151L45.8363 71.3708L45.8361 71.3709L47.0482 74.1151ZM42.9418 72.162L40.0479 72.9528L40.0479 72.9531L42.9418 72.162ZM41.5882 67.2089L44.4821 66.4181L44.4821 66.4179L41.5882 67.2089ZM43.4906 63.5868L44.482 66.4182L44.4821 66.4182L43.4906 63.5868ZM58.4291 62.2704L55.5927 61.2931L55.5924 61.294L58.4291 62.2704ZM62.0423 60.3495L62.8196 57.4519L62.8188 57.4517L62.0423 60.3495ZM64.4525 60.996L63.6753 63.8935L63.676 63.8937L64.4525 60.996ZM66.4203 65.1063L63.6763 63.8937L63.674 63.8988L66.4203 65.1063ZM66.3597 65.244L69.1037 66.4567L69.106 66.4516L66.3597 65.244ZM63.0707 66.9813L63.6154 64.0312L63.6146 64.031L63.0707 66.9813ZM60.6078 66.5272L60.063 69.4773L60.0638 69.4775L60.6078 66.5272ZM58.3158 62.5995L61.1523 63.5764L61.1524 63.5759L58.3158 62.5995ZM20.3685 53.4833L20.1539 50.491L20.1533 50.491L20.3685 53.4833ZM23.5726 56.7235L26.5624 56.9709L26.5624 56.9709L23.5726 56.7235ZM23.2015 61.2079L20.2117 60.9605L20.2117 60.9605L23.2015 61.2079ZM20.6634 63.9266L21.1145 66.8925L21.1148 66.8925L20.6634 63.9266ZM12.2201 65.2108L11.769 62.2449L11.7689 62.2449L12.2201 65.2108ZM8.76891 62.2508L11.7689 62.2452L11.7689 62.2451L8.76891 62.2508ZM8.75914 57.1161L5.75915 57.1217L5.75915 57.1218L8.75914 57.1161ZM11.5443 54.118L11.7594 57.1103L11.7595 57.1103L11.5443 54.118ZM69.4349 51.6141L69.2935 48.6175L69.2935 48.6175L69.4349 51.6141ZM72.722 54.87L69.725 54.7371L69.7249 54.7381L72.722 54.87ZM72.6283 57.0008L75.6253 57.1337L75.6254 57.1327L72.6283 57.0008ZM70.1673 59.6952L70.5757 62.6673L70.576 62.6672L70.1673 59.6952ZM66.2435 60.2342L65.8352 57.2622L65.8349 57.2622L66.2435 60.2342ZM62.6888 57.2284L59.6903 57.3229L59.6903 57.3232L62.6888 57.2284ZM62.6107 54.7508L59.6122 54.8452L59.6122 54.8454L62.6107 54.7508ZM65.3382 51.8075L65.1968 48.8108L65.1966 48.8108L65.3382 51.8075ZM67.0931 35.6327L66.1023 32.801L66.1018 32.8012L67.0931 35.6327ZM71.0189 37.8436L73.9539 37.2226L73.9539 37.2225L71.0189 37.8436ZM72.3988 44.3651L69.4638 44.9861L69.4638 44.9862L72.3988 44.3651ZM70.7211 47.7098L71.9779 50.4339L71.9782 50.4337L70.7211 47.7098ZM62.9828 51.2801L64.2393 54.0043L64.2396 54.0042L62.9828 51.2801ZM58.8422 49.3817L55.958 50.2074L55.9581 50.2077L58.8422 49.3817ZM56.7953 42.2323L53.9111 43.0579L53.9112 43.058L56.7953 42.2323ZM58.6888 38.5751L59.68 41.4066L59.6801 41.4065L58.6888 38.5751ZM9.55114 34.8133L7.28971 32.8421L7.28957 32.8422L9.55114 34.8133ZM14.1088 34.8534L16.4042 32.9218L16.4041 32.9218L14.1088 34.8534ZM17.0062 38.2967L19.3019 36.3654L19.3017 36.3652L17.0062 38.2967ZM17.1205 42.0145L14.7101 40.2284L14.7101 40.2285L17.1205 42.0145ZM12.0365 48.8758L14.4468 50.662L14.4469 50.6619L12.0365 48.8758ZM7.50133 49.2079L9.62564 47.0896L9.6255 47.0894L7.50133 49.2079ZM3.87535 45.5721L1.75084 47.6903L1.75118 47.6906L3.87535 45.5721ZM3.73864 41.4823L6.00013 43.4535L6.0002 43.4534L3.73864 41.4823ZM29.1869 28.1151L26.2218 28.5714L26.2218 28.5716L29.1869 28.1151ZM31.8353 25.3173L32.1283 22.3316L32.1281 22.3316L31.8353 25.3173ZM33.9867 27.2577L31.0471 27.8565L31.0471 27.8566L33.9867 27.2577ZM35.223 33.326L38.1627 32.7275L38.1626 32.7271L35.223 33.326ZM32.7855 36.4286L32.8994 39.4264L32.8997 39.4264L32.7855 36.4286ZM30.1293 34.2362L27.1642 34.6927L27.1642 34.6927L30.1293 34.2362ZM69.223 26.6776L67.1018 24.5562L67.1011 24.5569L69.223 26.6776ZM73.767 27.0292L76.1923 25.2635L76.1891 25.2591L73.767 27.0292ZM73.8558 27.1512L71.4305 28.9169L71.4335 28.9211L73.8558 27.1512ZM73.7162 30.868L75.9982 32.8155L75.9987 32.8149L73.7162 30.868ZM72.0902 32.7733L69.8082 30.8259L69.8077 30.8265L72.0902 32.7733ZM67.5443 32.7948L69.8084 30.8266L69.8078 30.8258L67.5443 32.7948ZM67.3158 32.5321L65.0515 34.5001L65.0523 34.5011L67.3158 32.5321ZM67.4584 28.4432L69.5799 30.5643L69.5803 30.564L67.4584 28.4432ZM58.7992 17.8778L56.6786 15.7558L56.6785 15.7558L58.7992 17.8778ZM62.058 17.2245L60.9197 20.0002L60.9198 20.0002L62.058 17.2245ZM68.307 19.787L69.4456 17.0114L69.4452 17.0113L68.307 19.787ZM69.2894 24.6844L71.4101 26.8064L71.4101 26.8064L69.2894 24.6844ZM61.7494 32.2196L59.6287 30.0976L59.6287 30.0977L61.7494 32.2196ZM58.4906 32.8739L57.3524 35.6496L57.3527 35.6497L58.4906 32.8739ZM52.2416 30.3114L51.1033 33.0871L51.1034 33.0871L52.2416 30.3114ZM51.2591 25.413L49.1385 23.291L49.1384 23.291L51.2591 25.413ZM46.7191 19.6171L46.5779 16.6204L46.5779 16.6204L46.7191 19.6171ZM50.0062 22.8719L47.0092 22.7392L47.0092 22.7392L50.0062 22.8719ZM49.7474 28.7157L52.7445 28.8485L52.7445 28.8484L49.7474 28.7157ZM47.2865 31.41L47.695 34.3821L47.6951 34.3821L47.2865 31.41ZM38.8031 32.576L38.3946 29.604L38.3945 29.604L38.8031 32.576ZM35.2484 29.5702L32.2499 29.6644L32.2499 29.665L35.2484 29.5702ZM35.0414 22.9823L38.0399 22.8881L38.0399 22.8879L35.0414 22.9823ZM37.7689 20.0389L37.6277 17.0423L37.6273 17.0423L37.7689 20.0389ZM23.3695 18.5253L22.3787 15.6936L22.3784 15.6937L23.3695 18.5253ZM27.3109 20.8124L30.2611 20.2682L30.2611 20.268L27.3109 20.8124ZM28.1273 25.2382L31.0775 24.694L31.0775 24.6939L28.1273 25.2382ZM26.389 28.5262L27.6013 31.2704L27.6015 31.2703L26.389 28.5262ZM18.5765 31.9774L19.7887 34.7216L19.7888 34.7216L18.5765 31.9774ZM14.4701 30.0243L11.5762 30.8151L11.5763 30.8154L14.4701 30.0243ZM13.1166 25.0712L16.0105 24.2804L16.0104 24.2801L13.1166 25.0712ZM15.0189 21.4481L14.0278 18.6166L14.0276 18.6166L15.0189 21.4481ZM28.6371 62.7899L30.118 65.3989L30.1178 65.3993L31.8558 62.954L33.5938 60.5087C31.6943 59.1586 29.1841 59.0298 27.1562 60.1809L28.6371 62.7899ZM31.8558 62.954L30.1181 65.3994L37.7177 70.7998L39.4554 68.3544L41.1932 65.9089L33.5936 60.5085L31.8558 62.954ZM39.4554 68.3544L37.7174 70.7996L37.7167 70.8L39.1976 73.4091L40.6785 76.0181C44.495 73.8518 44.7725 68.453 41.1935 65.9091L39.4554 68.3544ZM39.1976 73.4091L37.7167 70.8001L27.0809 76.8372L28.5619 79.4462L30.0428 82.0552L40.6785 76.018L39.1976 73.4091ZM28.5619 79.4462L27.081 76.8372L27.0811 76.8368L25.3431 79.2821L23.6052 81.7274C25.5046 83.0774 28.0148 83.2063 30.0428 82.0552L28.5619 79.4462ZM25.3431 79.2821L27.0809 76.8367L19.4813 71.4363L17.7435 73.8817L16.0058 76.3271L23.6054 81.7275L25.3431 79.2821ZM17.7435 73.8817L19.4815 71.4364L19.4815 71.4359L18.0004 68.827L16.5192 66.2181C12.7019 68.3853 12.4278 73.7841 16.0055 76.327L17.7435 73.8817ZM18.0004 68.827L19.4812 71.4361L30.1179 65.399L28.6371 62.7899L27.1562 60.1809L16.5195 66.218L18.0004 68.827ZM8.85289 69.8036L11.8059 70.3325L11.8063 70.3318L12.7679 67.4901L13.7296 64.6484C10.2538 63.4722 6.54655 65.6642 5.89989 69.2747L8.85289 69.8036ZM12.7679 67.4901L11.7991 70.3293L12.1282 70.4416L13.097 67.6024L14.0659 64.7632L13.7368 64.6509L12.7679 67.4901ZM13.097 67.6024L12.1354 70.4441L12.1356 70.4441L15.0375 71.2049L17.9394 71.9658C18.7387 68.9174 17.0432 65.7707 14.0587 64.7607L13.097 67.6024ZM15.0375 71.2049L12.1355 70.4442L11.5027 72.8583L14.4047 73.619L17.3066 74.3797L17.9394 71.9657L15.0375 71.2049ZM14.4047 73.619L11.5028 72.858L11.5027 72.8577L10.305 75.6083L9.10734 78.3588C12.4819 79.8282 16.3726 77.9411 17.3065 74.3801L14.4047 73.619ZM10.305 75.6083L11.5055 72.8589L11.3668 72.7984L10.1664 75.5477L8.96595 78.2971L9.10462 78.3576L10.305 75.6083ZM10.1664 75.5477L11.3645 72.7974L11.3645 72.7973L8.41149 72.2684L5.45848 71.7395C4.96859 74.4747 6.42081 77.1884 8.96824 78.2981L10.1664 75.5477ZM8.41149 72.2684L11.3645 72.7973L11.8059 70.3324L8.85289 69.8036L5.89987 69.2748L5.45847 71.7396L8.41149 72.2684ZM51.8402 60.663L52.8314 63.4945C52.8372 63.4925 52.8384 63.4927 52.836 63.4929C52.8338 63.4932 52.8313 63.4932 52.8291 63.493C52.8255 63.4926 52.8272 63.4921 52.8317 63.4948C52.8363 63.4974 52.8368 63.4991 52.8347 63.4962C52.8334 63.4945 52.8322 63.4924 52.8314 63.4904C52.8304 63.4882 52.8312 63.4892 52.8324 63.4953L55.7826 62.951L58.7328 62.4068C58.0651 58.7869 54.3239 56.615 50.849 57.8314L51.8402 60.663ZM55.7826 62.951L52.8323 63.4947L53.6477 67.9196L56.598 67.3758L59.5483 66.8321L58.7329 62.4073L55.7826 62.951ZM56.598 67.3758L53.6478 67.9201L53.6484 67.9208L54.8607 70.6649L56.073 73.4091C58.6163 72.2855 60.052 69.5626 59.5482 66.8316L56.598 67.3758ZM54.8607 70.6649L53.6488 67.9206L45.8363 71.3708L47.0482 74.1151L48.2602 76.8594L56.0727 73.4092L54.8607 70.6649ZM47.0482 74.1151L45.8361 71.3709L45.8356 71.3709L42.9418 72.162L40.0479 72.9531C41.0154 76.4923 44.9048 78.3415 48.2603 76.8593L47.0482 74.1151ZM42.9418 72.162L45.8357 71.3712L44.4821 66.4181L41.5882 67.2089L38.6943 67.9997L40.0479 72.9528L42.9418 72.162ZM41.5882 67.2089L44.4821 66.4179L44.482 66.4182L43.4906 63.5868L42.4992 60.7553C39.5255 61.7966 37.8636 64.9603 38.6944 67.9999L41.5882 67.2089ZM43.4906 63.5868L44.4821 66.4182L52.8317 63.4944L51.8402 60.663L50.8487 57.8315L42.4991 60.7554L43.4906 63.5868ZM58.4291 62.2704L61.2654 63.2476L61.2659 63.2473L62.0423 60.3495L62.8188 57.4517C59.7751 56.6361 56.619 58.3144 55.5927 61.2931L58.4291 62.2704ZM62.0423 60.3495L61.2651 63.2471L63.6753 63.8935L64.4525 60.996L65.2297 58.0984L62.8196 57.4519L62.0423 60.3495ZM64.4525 60.996L63.676 63.8937L63.6763 63.8937L66.4203 65.1063L69.1643 66.319C70.6525 62.9513 68.7845 59.0509 65.229 58.0982L64.4525 60.996ZM66.4203 65.1063L63.674 63.8988L63.6135 64.0364L66.3597 65.244L69.106 66.4516L69.1665 66.3139L66.4203 65.1063ZM66.3597 65.244L63.6157 64.0314L63.6154 64.0312L63.0707 66.9813L62.526 69.9315C65.2579 70.4359 67.9802 68.999 69.1037 66.4567L66.3597 65.244ZM63.0707 66.9813L63.6146 64.031L61.1517 63.5769L60.6078 66.5272L60.0638 69.4775L62.5267 69.9316L63.0707 66.9813ZM60.6078 66.5272L61.1525 63.5771L61.1523 63.5764L58.3158 62.5995L55.4793 61.6226C54.2847 65.0911 56.4551 68.8111 60.063 69.4773L60.6078 66.5272ZM58.3158 62.5995L61.1524 63.5759L61.2657 63.2468L58.4291 62.2704L55.5924 61.294L55.4791 61.6231L58.3158 62.5995ZM20.3685 53.4833L20.5831 56.4756L20.5828 56.4761L23.5726 56.7235L26.5624 56.9709C26.8659 53.3035 23.8264 50.2275 20.1539 50.491L20.3685 53.4833ZM23.5726 56.7235L20.5828 56.4761L20.2117 60.9605L23.2015 61.2079L26.1913 61.4553L26.5624 56.9709L23.5726 56.7235ZM23.2015 61.2079L20.2117 60.9605L20.2121 60.9608L20.6634 63.9266L21.1148 66.8925C23.8627 66.4743 25.9622 64.2237 26.1913 61.4553L23.2015 61.2079ZM20.6634 63.9266L20.2123 60.9607L11.769 62.2449L12.2201 65.2108L12.6712 68.1767L21.1145 66.8925L20.6634 63.9266ZM12.2201 65.2108L11.7689 62.2449L11.7689 62.2452L8.76891 62.2508L5.76891 62.2565C5.77586 65.9255 9.04466 68.7284 12.6713 68.1767L12.2201 65.2108ZM8.76891 62.2508L11.7689 62.2451L11.7591 57.1104L8.75914 57.1161L5.75915 57.1218L5.76891 62.2566L8.76891 62.2508ZM8.75914 57.1161L11.7591 57.1104L11.7594 57.1103L11.5443 54.118L11.3292 51.1258C8.18639 51.3517 5.75323 53.9704 5.75915 57.1217L8.75914 57.1161ZM11.5443 54.118L11.7595 57.1103L20.5838 56.4755L20.3685 53.4833L20.1533 50.491L11.3291 51.1258L11.5443 54.118ZM69.4349 51.6141L69.5763 54.6108C69.5857 54.6104 69.5956 54.6113 69.6113 54.6175C69.6299 54.625 69.6549 54.6398 69.679 54.6637C69.7031 54.6876 69.7161 54.7103 69.7215 54.7237C69.7257 54.734 69.725 54.7364 69.725 54.7371L72.722 54.87L75.7191 55.0028C75.8782 51.4133 72.8549 48.4494 69.2935 48.6175L69.4349 51.6141ZM72.722 54.87L69.7249 54.7381L69.6312 56.869L72.6283 57.0008L75.6254 57.1327L75.7191 55.0019L72.722 54.87ZM72.6283 57.0008L69.6312 56.868C69.6314 56.8638 69.6331 56.849 69.6415 56.8288C69.6496 56.8095 69.6615 56.7906 69.6767 56.7739C69.6919 56.7573 69.7091 56.7443 69.7263 56.7353C69.7347 56.7308 69.7424 56.7277 69.7486 56.7257C69.7516 56.7248 69.7541 56.7241 69.7559 56.7237C69.7568 56.7235 69.7575 56.7234 69.758 56.7233C69.7585 56.7232 69.7587 56.7231 69.7587 56.7231L70.1673 59.6952L70.576 62.6672C73.385 62.281 75.4995 59.973 75.6253 57.1337L72.6283 57.0008ZM70.1673 59.6952L69.759 56.7231L65.8352 57.2622L66.2435 60.2342L66.6518 63.2063L70.5757 62.6673L70.1673 59.6952ZM66.2435 60.2342L65.8349 57.2622C65.8309 57.2628 65.8257 57.2633 65.8129 57.2594C65.7969 57.2545 65.7718 57.2427 65.7454 57.2204C65.719 57.1981 65.7028 57.1749 65.6947 57.1589C65.6882 57.146 65.6875 57.1394 65.6873 57.1336L62.6888 57.2284L59.6903 57.3232C59.8044 60.9302 63.0715 63.6985 66.6521 63.2063L66.2435 60.2342ZM62.6888 57.2284L65.6873 57.1338L65.6092 54.6563L62.6107 54.7508L59.6122 54.8454L59.6903 57.3229L62.6888 57.2284ZM62.6107 54.7508L65.6092 54.6565C65.6092 54.6553 65.6093 54.6702 65.6005 54.6935C65.5923 54.7152 65.5795 54.7361 65.5629 54.7541C65.5463 54.772 65.5271 54.7856 65.5081 54.7945C65.4876 54.8041 65.4754 54.8044 65.4799 54.8041L65.3382 51.8075L65.1966 48.8108C61.9844 48.9627 59.5107 51.6213 59.6122 54.8452L62.6107 54.7508ZM65.3382 51.8075L65.4797 54.8042L69.5764 54.6108L69.4349 51.6141L69.2935 48.6175L65.1968 48.8108L65.3382 51.8075ZM67.0931 35.6327L68.0839 38.4643L68.0839 38.4647L71.0189 37.8436L73.9539 37.2225C73.205 33.6836 69.5177 31.606 66.1023 32.801L67.0931 35.6327ZM71.0189 37.8436L68.0839 38.4646L69.4638 44.9861L72.3988 44.3651L75.3338 43.7441L73.9539 37.2226L71.0189 37.8436ZM72.3988 44.3651L69.4638 44.9862L69.4639 44.9859L70.7211 47.7098L71.9782 50.4337C74.521 49.2602 75.9136 46.4839 75.3338 43.744L72.3988 44.3651ZM70.7211 47.7098L69.4642 44.9858L61.726 48.5561L62.9828 51.2801L64.2396 54.0042L71.9779 50.4339L70.7211 47.7098ZM62.9828 51.2801L61.7262 48.556L61.7262 48.5557L58.8422 49.3817L55.9581 50.2077C56.9708 53.7438 60.8984 55.5454 64.2393 54.0043L62.9828 51.2801ZM58.8422 49.3817L61.7263 48.556L59.6794 41.4066L56.7953 42.2323L53.9112 43.058L55.958 50.2074L58.8422 49.3817ZM56.7953 42.2323L59.6794 41.4067L59.68 41.4066L58.6888 38.5751L57.6976 35.7435C54.6982 36.7935 53.0361 40.001 53.9111 43.0579L56.7953 42.2323ZM58.6888 38.5751L59.6801 41.4065L68.0844 38.4642L67.0931 35.6327L66.1018 32.8012L57.6975 35.7436L58.6888 38.5751ZM9.55114 34.8133L11.8126 36.7846L11.8134 36.785L14.1088 34.8534L16.4041 32.9218C14.0343 30.1056 9.7091 30.0666 7.28971 32.8421L9.55114 34.8133ZM14.1088 34.8534L11.8133 36.7849L14.7108 40.2283L17.0062 38.2967L19.3017 36.3652L16.4042 32.9218L14.1088 34.8534ZM17.0062 38.2967L14.7106 40.2281L14.7101 40.2284L17.1205 42.0145L19.5308 43.8006C21.1846 41.5689 21.0912 38.4923 19.3019 36.3654L17.0062 38.2967ZM17.1205 42.0145L14.7101 40.2285L9.62607 47.0898L12.0365 48.8758L14.4469 50.6619L19.5309 43.8005L17.1205 42.0145ZM12.0365 48.8758L9.62613 47.0897L9.62564 47.0896L7.50133 49.2079L5.37702 51.3262C7.96722 53.9237 12.2624 53.6099 14.4468 50.662L12.0365 48.8758ZM7.50133 49.2079L9.6255 47.0894L5.99953 43.4537L3.87535 45.5721L1.75118 47.6906L5.37716 51.3263L7.50133 49.2079ZM3.87535 45.5721L5.99987 43.454L6.00013 43.4535L3.73864 41.4823L1.47714 39.5111C-0.592887 41.886 -0.474163 45.4585 1.75084 47.6903L3.87535 45.5721ZM3.73864 41.4823L6.0002 43.4534L11.8127 36.7845L9.55114 34.8133L7.28957 32.8422L1.47707 39.5112L3.73864 41.4823ZM29.1869 28.1151L32.152 27.6588C32.2078 28.0216 31.907 28.3387 31.5426 28.3029L31.8353 25.3173L32.1281 22.3316C28.5952 21.9852 25.6817 25.0619 26.2218 28.5714L29.1869 28.1151ZM31.8353 25.3173L31.5423 28.3029C31.2966 28.2788 31.0962 28.0976 31.0471 27.8565L33.9867 27.2577L36.9263 26.6589C36.4499 24.3204 34.5043 22.5648 32.1283 22.3316L31.8353 25.3173ZM33.9867 27.2577L31.0471 27.8566L32.2834 33.9249L35.223 33.326L38.1626 32.7271L36.9263 26.6588L33.9867 27.2577ZM35.223 33.326L32.2833 33.9246C32.2326 33.6753 32.4171 33.4404 32.6713 33.4308L32.7855 36.4286L32.8997 39.4264C36.3447 39.2951 38.8505 36.1057 38.1627 32.7275L35.223 33.326ZM32.7855 36.4286L32.6717 33.4307C32.8808 33.4228 33.0624 33.5725 33.0943 33.7797L30.1293 34.2362L27.1642 34.6927C27.5962 37.4982 30.0632 39.5341 32.8994 39.4264L32.7855 36.4286ZM30.1293 34.2362L33.0943 33.7797L32.1519 27.6586L29.1869 28.1151L26.2218 28.5716L27.1642 34.6927L30.1293 34.2362ZM69.223 26.6776L71.3443 28.799L71.3448 28.7992L73.767 27.0292L76.1891 25.2591C74.0173 22.2871 69.7051 21.953 67.1018 24.5562L69.223 26.6776ZM73.767 27.0292L71.3416 28.7948L71.4305 28.9169L73.8558 27.1512L76.2812 25.3856L76.1923 25.2635L73.767 27.0292ZM73.8558 27.1512L71.4335 28.9211L71.4337 28.9212L73.7162 30.868L75.9987 32.8149C77.8021 30.7005 77.9173 27.6247 76.2781 25.3813L73.8558 27.1512ZM73.7162 30.868L71.4342 28.9206L69.8082 30.8259L72.0902 32.7733L74.3722 34.7208L75.9982 32.8155L73.7162 30.868ZM72.0902 32.7733L69.8077 30.8265L69.8084 30.8266L67.5443 32.7948L65.2802 34.763C67.6871 37.5317 71.9922 37.5111 74.3727 34.7201L72.0902 32.7733ZM67.5443 32.7948L69.8078 30.8258L69.5792 30.5631L67.3158 32.5321L65.0523 34.5011L65.2808 34.7637L67.5443 32.7948ZM67.3158 32.5321L69.5801 30.5641L69.5799 30.5643L67.4584 28.4432L65.3368 26.3222C63.1089 28.5505 62.9847 32.1221 65.0515 34.5001L67.3158 32.5321ZM67.4584 28.4432L69.5803 30.564L71.3449 28.7983L69.223 26.6776L67.1011 24.5569L65.3365 26.3225L67.4584 28.4432ZM58.7992 17.8778L60.9198 19.9998L60.9197 20.0002L62.058 17.2245L63.1962 14.4488C60.9593 13.5315 58.3896 14.0459 56.6786 15.7558L58.7992 17.8778ZM62.058 17.2245L60.9198 20.0002L67.1688 22.5627L68.307 19.787L69.4452 17.0113L63.1962 14.4488L62.058 17.2245ZM68.307 19.787L67.1684 22.5625L67.1687 22.5625L69.2894 24.6844L71.4101 26.8064C74.4418 23.7764 73.4099 18.6377 69.4456 17.0114L68.307 19.787ZM69.2894 24.6844L67.1688 22.5624L59.6287 30.0976L61.7494 32.2196L63.87 34.3416L71.4101 26.8064L69.2894 24.6844ZM61.7494 32.2196L59.6287 30.0977L59.6285 30.0981L58.4906 32.8739L57.3527 35.6497C59.5908 36.5672 62.1602 36.0504 63.8701 34.3415L61.7494 32.2196ZM58.4906 32.8739L59.6288 30.0982L53.3798 27.5357L52.2416 30.3114L51.1034 33.0871L57.3524 35.6496L58.4906 32.8739ZM52.2416 30.3114L53.3798 27.5357L53.3799 27.5349L51.2591 25.413L49.1384 23.291C46.1072 26.3205 47.1375 31.4608 51.1033 33.0871L52.2416 30.3114ZM51.2591 25.413L53.3798 27.535L60.9198 19.9998L58.7992 17.8778L56.6785 15.7558L49.1385 23.291L51.2591 25.413ZM46.7191 19.6171L46.8603 22.6137C46.8699 22.6133 46.8801 22.6142 46.8958 22.6205C46.9146 22.628 46.9395 22.6429 46.9636 22.6667C46.9876 22.6905 47.0004 22.713 47.0058 22.7262C47.0099 22.7362 47.0092 22.7385 47.0092 22.7392L50.0062 22.8719L53.0033 23.0047C53.1624 19.414 50.1376 16.4527 46.5779 16.6204L46.7191 19.6171ZM50.0062 22.8719L47.0092 22.7392L46.7504 28.583L49.7474 28.7157L52.7445 28.8484L53.0033 23.0047L50.0062 22.8719ZM49.7474 28.7157L46.7504 28.5828C46.7506 28.5787 46.7523 28.5639 46.7607 28.5437C46.7687 28.5244 46.7806 28.5054 46.7958 28.4888C46.811 28.4721 46.8282 28.4592 46.8454 28.4501C46.8539 28.4456 46.8615 28.4426 46.8678 28.4406C46.8708 28.4396 46.8733 28.4389 46.8751 28.4385C46.876 28.4383 46.8767 28.4382 46.8772 28.4381C46.8777 28.438 46.8779 28.438 46.8779 28.438L47.2865 31.41L47.6951 34.3821C50.5042 33.9959 52.6186 31.6878 52.7445 28.8485L49.7474 28.7157ZM47.2865 31.41L46.878 28.438L38.3946 29.604L38.8031 32.576L39.2116 35.5481L47.695 34.3821L47.2865 31.41ZM38.8031 32.576L38.3945 29.604C38.3904 29.6046 38.3852 29.6051 38.3724 29.6012C38.3564 29.5963 38.3313 29.5845 38.3049 29.5622C38.2785 29.5399 38.2623 29.5167 38.2543 29.5008C38.2478 29.4878 38.2471 29.4812 38.2469 29.4754L35.2484 29.5702L32.2499 29.665C32.3639 33.2721 35.6311 36.0403 39.2117 35.5481L38.8031 32.576ZM35.2484 29.5702L38.2469 29.476L38.0399 22.8881L35.0414 22.9823L32.0429 23.0765L32.2499 29.6644L35.2484 29.5702ZM35.0414 22.9823L38.0399 22.8879C38.0398 22.8868 38.0399 22.9017 38.0312 22.9249C38.023 22.9466 38.0101 22.9676 37.9935 22.9855C37.9769 23.0034 37.9578 23.017 37.9387 23.0259C37.9182 23.0355 37.9061 23.0358 37.9106 23.0356L37.7689 20.0389L37.6273 17.0423C34.4151 17.1941 31.9414 19.8528 32.0429 23.0766L35.0414 22.9823ZM37.7689 20.0389L37.9102 23.0356L46.8604 22.6137L46.7191 19.6171L46.5779 16.6204L37.6277 17.0423L37.7689 20.0389ZM23.3695 18.5253L24.3603 21.3569L24.3607 21.3567L27.3109 20.8124L30.2611 20.268C29.5931 16.6476 25.8524 14.4781 22.3787 15.6936L23.3695 18.5253ZM27.3109 20.8124L24.3607 21.3566L25.1771 25.7824L28.1273 25.2382L31.0775 24.6939L30.2611 20.2682L27.3109 20.8124ZM28.1273 25.2382L25.1771 25.7823L25.1765 25.7822L26.389 28.5262L27.6015 31.2703C30.142 30.1478 31.5817 27.4275 31.0775 24.694L28.1273 25.2382ZM26.389 28.5262L25.1768 25.7821L17.3643 29.2332L18.5765 31.9774L19.7888 34.7216L27.6013 31.2704L26.389 28.5262ZM18.5765 31.9774L17.3644 29.2332L17.3639 29.2332L14.4701 30.0243L11.5763 30.8154C12.5438 34.3545 16.4331 36.2038 19.7887 34.7216L18.5765 31.9774ZM14.4701 30.0243L17.364 29.2335L16.0105 24.2804L13.1166 25.0712L10.2227 25.862L11.5762 30.8151L14.4701 30.0243ZM13.1166 25.0712L16.0104 24.2801L16.0102 24.2796L15.0189 21.4481L14.0276 18.6166C11.0529 19.6581 9.39203 22.8234 10.2227 25.8622L13.1166 25.0712ZM15.0189 21.4481L16.01 24.2797L24.3606 21.3568L23.3695 18.5253L22.3784 15.6937L14.0278 18.6166L15.0189 21.4481Z" fill="white" fill-opacity="0.2" mask="url(#path-4-outside-1_20_53)"/>
<path d="M19.4902 38.1806C18.4744 36.9901 18.5444 35.2188 19.651 34.1121L22.2023 31.5609C23.5209 30.2423 25.7105 30.4335 26.7806 31.9608L26.8525 32.0635C27.6429 33.1916 27.5635 34.7129 26.66 35.7526L24.2824 38.4889C23.0793 39.8736 20.9262 39.8638 19.7357 38.4684L19.4902 38.1806Z" fill="#CFBFB8"/>
<path d="M19.4902 38.1806C18.4744 36.9901 18.5444 35.2188 19.651 34.1121L22.2023 31.5609C23.5209 30.2423 25.7105 30.4335 26.7806 31.9608L26.8525 32.0635C27.6429 33.1916 27.5635 34.7129 26.66 35.7526L24.2824 38.4889C23.0793 39.8736 20.9262 39.8638 19.7357 38.4684L19.4902 38.1806Z" fill="#1C1A12" fill-opacity="0.3"/>
<path d="M17.1144 52.4909C15.8582 52.6768 14.6768 51.8455 14.4276 50.6004V50.6004C14.1485 49.2058 15.1447 47.8785 16.5618 47.7571L16.6325 47.751C17.7425 47.656 18.7701 48.3429 19.1065 49.4049V49.4049C19.5495 50.8032 18.6355 52.2658 17.1845 52.4805L17.1144 52.4909Z" fill="#CFBFB8"/>
<path d="M17.1144 52.4909C15.8582 52.6768 14.6768 51.8455 14.4276 50.6004V50.6004C14.1485 49.2058 15.1447 47.8785 16.5618 47.7571L16.6325 47.751C17.7425 47.656 18.7701 48.3429 19.1065 49.4049V49.4049C19.5495 50.8032 18.6355 52.2658 17.1845 52.4805L17.1144 52.4909Z" fill="#1C1A12" fill-opacity="0.3"/>
<path d="M59.1298 58.2691C58.0797 58.3952 57.1092 57.6923 56.9017 56.6552L56.4977 54.6367C56.2598 53.4482 57.1507 52.3324 58.3623 52.3013V52.3013C59.2596 52.2783 60.057 52.8699 60.2952 53.7353L60.8414 55.7202C61.17 56.9144 60.3596 58.1213 59.1298 58.2691V58.2691Z" fill="#CFBFB8"/>
<path d="M59.1298 58.2691C58.0797 58.3952 57.1092 57.6923 56.9017 56.6552L56.4977 54.6367C56.2598 53.4482 57.1507 52.3324 58.3623 52.3013V52.3013C59.2596 52.2783 60.057 52.8699 60.2952 53.7353L60.8414 55.7202C61.17 56.9144 60.3596 58.1213 59.1298 58.2691V58.2691Z" fill="#1C1A12" fill-opacity="0.3"/>
<rect x="61.4797" y="61.7838" width="4.55547" height="4.55547" rx="2.27773" fill="#FFFDEE" fill-opacity="0.3"/>
<rect x="13.904" y="67.4781" width="4.55547" height="4.55547" rx="2.27773" transform="rotate(89.6922 13.904 67.4781)" fill="#FFFDEE" fill-opacity="0.3"/>
<rect x="42.6241" y="65.0964" width="5.69433" height="5.69433" rx="2.5" transform="rotate(-19.2933 42.6241 65.0964)" fill="#FFFDEE" fill-opacity="0.3"/>
<rect x="3.98517" y="43.6922" width="12.311" height="2.76747" rx="1.38374" transform="rotate(-49.4477 3.98517 43.6922)" fill="#FFFDEE" fill-opacity="0.3"/>
<rect x="13.9041" y="26.0826" width="5.69433" height="5.69433" rx="2.5" transform="rotate(-19.2933 13.9041 26.0826)" fill="#FFFDEE" fill-opacity="0.3"/>
<rect x="57.181" y="40.2045" width="12.5341" height="3.37802" rx="1.68901" transform="rotate(-21.6026 57.181 40.2045)" fill="#FFFDEE" fill-opacity="0.3"/>
<rect x="32.8569" y="68.0768" width="13.6664" height="5.69433" rx="2.5" transform="rotate(150.777 32.8569 68.0768)" fill="#FFFDEE" fill-opacity="0.3"/>
<rect width="12.4375" height="4.83938" rx="2.41969" transform="matrix(0.711391 -0.702797 0.640675 0.767812 57.2207 28.7506)" fill="#FFFDEE" fill-opacity="0.3"/>
<rect x="9.54422" y="55.1368" width="10.2498" height="3.48925" rx="1.74462" transform="rotate(-2.9821 9.54422 55.1368)" fill="#FFFDEE" fill-opacity="0.3"/>
<path d="M35.0413 22.9819C34.9916 21.4026 36.1863 20.1138 37.7692 20.0391L46.7188 19.6168C48.5368 19.531 50.0862 21.0653 50.0061 22.872L49.7471 28.7159C49.6856 30.1032 48.6652 31.2204 47.2865 31.4099L38.8031 32.5762C36.9908 32.8253 35.3062 31.4005 35.2486 29.5697L35.0413 22.9819Z" fill="#CFBFB8"/>
<path d="M35.2401 29.3008C35.192 27.7715 36.3128 26.5057 37.838 26.367L46.3999 25.5885C48.2218 25.4229 49.8255 26.9464 49.7449 28.7661V28.7661C49.6847 30.124 48.6858 31.2176 47.3363 31.4031L38.8031 32.5762C36.9908 32.8253 35.3062 31.4005 35.2486 29.5697L35.2401 29.3008Z" fill="#131212" fill-opacity="0.2"/>
<path d="M46.6665 35.3898C46.6168 33.8105 47.8115 32.5216 49.3944 32.447L53.4909 32.2537C55.3088 32.1679 56.8583 33.7022 56.7782 35.5089L56.6837 37.6402C56.6222 39.0274 55.6018 40.1446 54.2231 40.3342L50.299 40.8736C48.4867 41.1228 46.8021 39.6979 46.7445 37.8672L46.6665 35.3898Z" fill="#CFBFB8"/>
<path d="M46.6665 35.3898C46.6168 33.8105 47.8115 32.5216 49.3944 32.447L53.4909 32.2537C55.3088 32.1679 56.8583 33.7022 56.7782 35.5089L56.6837 37.6402C56.6222 39.0274 55.6018 40.1446 54.2231 40.3342L50.299 40.8736C48.4867 41.1228 46.8021 39.6979 46.7445 37.8672L46.6665 35.3898Z" fill="#1C1A12" fill-opacity="0.3"/>
<path d="M33.0887 36.4734C31.7371 36.6466 30.4818 35.7448 30.2143 34.4087L29.8481 32.5788C29.5444 31.0614 30.6666 29.6311 32.2126 29.5649V29.5649C33.3791 29.5151 34.4272 30.2725 34.7459 31.3957L35.2554 33.191C35.6885 34.7175 34.6625 36.2717 33.0887 36.4734V36.4734Z" fill="#CFBFB8"/>
<path d="M33.0887 36.4734C31.7371 36.6466 30.4818 35.7448 30.2143 34.4087L29.8481 32.5788C29.5444 31.0614 30.6666 29.6311 32.2126 29.5649V29.5649C33.3791 29.5151 34.4272 30.2725 34.7459 31.3957L35.2554 33.191C35.6885 34.7175 34.6625 36.2717 33.0887 36.4734V36.4734Z" fill="#1C1A12" fill-opacity="0.3"/>
<mask id="path-22-outside-2_20_53" maskUnits="userSpaceOnUse" x="56.8369" y="9.78362" width="4.33666" height="12.2621" fill="black">
<rect fill="white" x="56.8369" y="9.78362" width="4.33666" height="12.2621"/>
<path d="M56.9499 11.1162C56.8875 10.5674 57.2818 10.072 57.8305 10.0096V10.0096C58.3793 9.9472 58.8747 10.3415 58.9371 10.8902L60.067 20.8262C60.1294 21.3749 59.7351 21.8704 59.1864 21.9328V21.9328C58.6376 21.9952 58.1422 21.6009 58.0798 21.0521L56.9499 11.1162Z"/>
</mask>
<path d="M56.9499 11.1162C56.8875 10.5674 57.2818 10.072 57.8305 10.0096V10.0096C58.3793 9.9472 58.8747 10.3415 58.9371 10.8902L60.067 20.8262C60.1294 21.3749 59.7351 21.8704 59.1864 21.9328V21.9328C58.6376 21.9952 58.1422 21.6009 58.0798 21.0521L56.9499 11.1162Z" fill="#714B41"/>
<path d="M56.8369 10.1226L58.8241 9.89661L56.8369 10.1226ZM60.18 21.8198L58.1928 22.0457L60.18 21.8198ZM58.1928 22.0457L56.8369 10.1226L58.1928 22.0457ZM57.8305 10.0096C58.928 9.8848 59.9189 10.6733 60.0437 11.7708L60.9476 19.7196C61.0724 20.8171 60.2839 21.8079 59.1864 21.9328C59.1864 21.9328 59.1358 21.4879 59.0734 20.9392L57.9435 11.0032C57.8811 10.4544 57.8305 10.0096 57.8305 10.0096Z" fill="#46322C" mask="url(#path-22-outside-2_20_53)"/>
<mask id="path-24-outside-3_20_53" maskUnits="userSpaceOnUse" x="49.8584" y="0.163324" width="16.1468" height="12.6244" fill="black">
<rect fill="white" x="49.8584" y="0.163324" width="16.1468" height="12.6244"/>
<path d="M49.9714 2.85176C49.909 2.30301 50.3033 1.80757 50.852 1.74517L62.7752 0.389303C63.3239 0.3269 63.8194 0.721162 63.8818 1.26991L64.7857 9.21868C64.8481 9.76743 64.4538 10.2629 63.9051 10.3253L51.9819 11.6811C51.4332 11.7435 50.9377 11.3493 50.8753 10.8005L49.9714 2.85176Z"/>
</mask>
<path d="M49.9714 2.85176C49.909 2.30301 50.3033 1.80757 50.852 1.74517L62.7752 0.389303C63.3239 0.3269 63.8194 0.721162 63.8818 1.26991L64.7857 9.21868C64.8481 9.76743 64.4538 10.2629 63.9051 10.3253L51.9819 11.6811C51.4332 11.7435 50.9377 11.3493 50.8753 10.8005L49.9714 2.85176Z" fill="#714B41"/>
<path d="M49.8584 1.85816L63.7688 0.276313L49.8584 1.85816ZM65.7793 9.10569C65.9041 10.2032 65.1156 11.1941 64.0181 11.3189L53.0885 12.5617C51.991 12.6865 51.0001 11.898 50.8753 10.8005C50.8753 10.8005 51.3202 10.7499 51.8689 10.6875L63.7921 9.33167L65.7793 9.10569ZM50.9883 11.7941L49.8584 1.85816L50.9883 11.7941ZM62.7752 0.389302C63.8727 0.264498 64.8635 1.05302 64.9884 2.15052L65.7793 9.10569C65.9041 10.2032 65.1156 11.1941 64.0181 11.3189L63.7921 9.33167L62.8882 1.3829C62.8258 0.834151 62.7752 0.389302 62.7752 0.389302Z" fill="#46322C" mask="url(#path-24-outside-3_20_53)"/>
<mask id="path-26-outside-4_20_53" maskUnits="userSpaceOnUse" x="53.8914" y="1.33757" width="8.98845" height="9.66225" fill="black">
<rect fill="white" x="53.8914" y="1.33757" width="8.98845" height="9.66225"/>
<path d="M57.1353 3.41057C58.2402 3.0823 59.4026 3.71164 59.731 4.81645C59.8963 5.37279 59.8178 5.94348 59.559 6.41503C59.6659 6.56129 59.7606 6.75053 59.8248 6.96667C59.9889 7.51915 59.8985 8.03383 59.6222 8.1159C59.346 8.19782 58.9892 7.81607 58.825 7.2637C58.8183 7.24108 58.8137 7.21793 58.8078 7.19547C58.8058 7.19665 58.8035 7.19717 58.8015 7.19835C58.8088 7.22008 58.8184 7.24139 58.825 7.2637C58.9891 7.81618 58.8977 8.33114 58.6215 8.41321C58.3453 8.49479 57.9884 8.11319 57.8243 7.56101C57.8177 7.5387 57.8132 7.51586 57.8074 7.49371C57.8051 7.49379 57.8028 7.49464 57.8005 7.49472C57.8079 7.51676 57.8176 7.53837 57.8243 7.56101C57.9884 8.1133 57.8978 8.62791 57.6217 8.71023C57.3455 8.7923 56.9878 8.41077 56.8236 7.85831C56.7594 7.64227 56.7354 7.43186 56.7451 7.25104C56.2711 6.99722 55.8943 6.56153 55.7291 6.00539C55.4011 4.90058 56.0306 3.73899 57.1353 3.41057Z"/>
</mask>
<path d="M57.1353 3.41057C58.2402 3.0823 59.4026 3.71164 59.731 4.81645C59.8963 5.37279 59.8178 5.94348 59.559 6.41503C59.6659 6.56129 59.7606 6.75053 59.8248 6.96667C59.9889 7.51915 59.8985 8.03383 59.6222 8.1159C59.346 8.19782 58.9892 7.81607 58.825 7.2637C58.8183 7.24108 58.8137 7.21793 58.8078 7.19547C58.8058 7.19665 58.8035 7.19717 58.8015 7.19835C58.8088 7.22008 58.8184 7.24139 58.825 7.2637C58.9891 7.81618 58.8977 8.33114 58.6215 8.41321C58.3453 8.49479 57.9884 8.11319 57.8243 7.56101C57.8177 7.5387 57.8132 7.51586 57.8074 7.49371C57.8051 7.49379 57.8028 7.49464 57.8005 7.49472C57.8079 7.51676 57.8176 7.53837 57.8243 7.56101C57.9884 8.1133 57.8978 8.62791 57.6217 8.71023C57.3455 8.7923 56.9878 8.41077 56.8236 7.85831C56.7594 7.64227 56.7354 7.43186 56.7451 7.25104C56.2711 6.99722 55.8943 6.56153 55.7291 6.00539C55.4011 4.90058 56.0306 3.73899 57.1353 3.41057Z" fill="#D9D9D9"/>
<path d="M57.1353 3.41057L56.8505 2.45198L56.8503 2.45203L57.1353 3.41057ZM59.731 4.81645L60.6896 4.53166L60.6896 4.53148L59.731 4.81645ZM59.559 6.41503L58.6824 5.93396L58.3764 6.49148L58.7516 7.00498L59.559 6.41503ZM59.8248 6.96667L60.7834 6.68195L60.7834 6.68188L59.8248 6.96667ZM59.6222 8.1159L59.9066 9.07463L59.907 9.07449L59.6222 8.1159ZM58.8078 7.19547L59.7753 6.94266L59.4371 5.64815L58.2914 6.33915L58.8078 7.19547ZM58.8015 7.19835L58.2879 6.34032L57.5991 6.75267L57.8528 7.51438L58.8015 7.19835ZM58.6215 8.41321L58.9048 9.37224L58.9063 9.3718L58.6215 8.41321ZM57.8074 7.49371L58.7748 7.24045L58.5715 6.46409L57.7696 6.49442L57.8074 7.49371ZM57.8005 7.49472L57.7661 6.49531L56.4283 6.54146L56.8519 7.81119L57.8005 7.49472ZM57.6217 8.71023L57.9065 9.66883L57.9075 9.66852L57.6217 8.71023ZM56.8236 7.85831L55.865 8.1431L55.865 8.14317L56.8236 7.85831ZM56.7451 7.25104L57.7436 7.30423L57.7775 6.66952L57.2171 6.36947L56.7451 7.25104ZM55.7291 6.00539L54.7705 6.29L54.7705 6.29018L55.7291 6.00539ZM57.1353 3.41057L57.4201 4.36916C57.996 4.19806 58.6015 4.52625 58.7725 5.10143L59.731 4.81645L60.6896 4.53148C60.2036 2.89702 58.4844 1.96654 56.8505 2.45198L57.1353 3.41057ZM59.731 4.81645L58.7724 5.10124C58.8582 5.39006 58.8186 5.68574 58.6824 5.93396L59.559 6.41503L60.4357 6.89609C60.817 6.20121 60.9344 5.35553 60.6896 4.53166L59.731 4.81645ZM59.559 6.41503L58.7516 7.00498C58.7855 7.05132 58.8318 7.13554 58.8662 7.25146L59.8248 6.96667L60.7834 6.68188C60.6894 6.36551 60.5464 6.07126 60.3665 5.82507L59.559 6.41503ZM59.8248 6.96667L58.8662 7.2514C58.9137 7.41131 58.9082 7.519 58.9038 7.54426C58.9016 7.55659 58.9071 7.50768 58.9566 7.43197C59.0108 7.34913 59.1312 7.21857 59.3374 7.15731L59.6222 8.1159L59.907 9.07449C60.6044 8.8673 60.8163 8.21573 60.8735 7.89113C60.9423 7.50041 60.9 7.07451 60.7834 6.68195L59.8248 6.96667ZM59.6222 8.1159L59.3379 7.15718C59.544 7.09604 59.7161 7.13973 59.8065 7.17949C59.8893 7.21585 59.9205 7.25376 59.912 7.24461C59.8944 7.22586 59.8311 7.13865 59.7836 6.97884L58.825 7.2637L57.8665 7.54856C57.9831 7.94113 58.1803 8.32098 58.4512 8.61072C58.6763 8.85143 59.2094 9.28139 59.9066 9.07463L59.6222 8.1159ZM58.825 7.2637L59.7836 6.97891C59.7862 6.98768 59.7879 6.9941 59.7887 6.99696C59.7893 6.99961 59.7895 7.00045 59.7887 6.99707C59.7883 6.99534 59.7879 6.99357 59.7871 6.99032C59.7864 6.98748 59.7855 6.98339 59.7844 6.97902C59.7823 6.97034 59.7792 6.95746 59.7753 6.94266L58.8078 7.19547L57.8403 7.44827C57.8394 7.44471 57.839 7.44314 57.8397 7.44583C57.84 7.44715 57.8404 7.44875 57.841 7.45161C57.8416 7.45406 57.8425 7.458 57.8435 7.46198C57.847 7.47679 57.855 7.50999 57.8664 7.54849L58.825 7.2637ZM58.8078 7.19547L58.2914 6.33915C58.3148 6.32499 58.3362 6.31343 58.3544 6.30419C58.3726 6.29498 58.3883 6.28768 58.4005 6.28227C58.4126 6.2769 58.4224 6.27283 58.4283 6.27044C58.4313 6.26922 58.4337 6.26826 58.4352 6.26768C58.4365 6.26716 58.4376 6.26673 58.4373 6.26684C58.4373 6.26684 58.4372 6.26688 58.4371 6.26692C58.437 6.26696 58.4368 6.26703 58.4366 6.26711C58.4362 6.26728 58.4355 6.26754 58.4347 6.26786C58.4331 6.26848 58.4306 6.26951 58.4274 6.27079C58.4213 6.27329 58.4112 6.27747 58.3988 6.28293C58.3863 6.28844 58.3703 6.29584 58.3518 6.30513C58.3333 6.31446 58.3117 6.3261 58.2879 6.34032L58.8015 7.19835L59.3151 8.05637C59.2919 8.0703 59.2707 8.08167 59.2527 8.09074C59.2348 8.09977 59.2193 8.10693 59.2073 8.1122C59.1955 8.11744 59.1859 8.12139 59.1803 8.12367C59.1774 8.12484 59.1751 8.12576 59.1738 8.12628C59.1727 8.12674 59.1716 8.12714 59.172 8.12698C59.1721 8.12698 59.1734 8.12645 59.175 8.12581C59.1767 8.12514 59.1794 8.12406 59.1827 8.12273C59.1891 8.12012 59.1994 8.11583 59.212 8.11023C59.2247 8.10459 59.241 8.09705 59.2597 8.08757C59.2784 8.07807 59.3003 8.06623 59.3243 8.05178L58.8078 7.19547ZM58.8015 7.19835L57.8528 7.51438C57.8599 7.53582 57.8665 7.55376 57.8709 7.56539C57.8731 7.5713 57.8751 7.5765 57.8764 7.58006C57.8771 7.58183 57.8778 7.58359 57.8782 7.58478C57.8788 7.58611 57.8791 7.58699 57.8794 7.58775C57.8807 7.59129 57.8795 7.58801 57.8774 7.58227C57.8752 7.5761 57.8711 7.56425 57.8664 7.54849L58.825 7.2637L59.7836 6.97891C59.7685 6.9281 59.7524 6.8863 59.7476 6.87387C59.7469 6.87192 59.7462 6.87009 59.7457 6.86872C59.7451 6.8672 59.7447 6.86626 59.7444 6.86532C59.7437 6.86348 59.7436 6.86329 59.7438 6.8638C59.7441 6.86462 59.7468 6.87174 59.7503 6.88232L58.8015 7.19835ZM58.825 7.2637L57.8664 7.54842C57.9137 7.70774 57.9082 7.81517 57.9037 7.8404C57.9015 7.85273 57.9071 7.80404 57.9565 7.72863C58.0105 7.6462 58.1307 7.51584 58.3367 7.45462L58.6215 8.41321L58.9063 9.3718C59.603 9.16481 59.8155 8.51404 59.8731 8.18931C59.9423 7.79843 59.9004 7.37214 59.7836 6.97898L58.825 7.2637ZM58.6215 8.41321L58.3382 7.45417C58.5443 7.39331 58.716 7.4371 58.8061 7.47676C58.8886 7.51304 58.9198 7.55082 58.9112 7.54164C58.8936 7.52285 58.8303 7.43571 58.7829 7.27615L57.8243 7.56101L56.8657 7.84586C56.9824 8.23849 57.1796 8.61825 57.4506 8.9079C57.6757 9.14855 58.2082 9.57802 58.9048 9.37224L58.6215 8.41321ZM57.8243 7.56101L58.7829 7.27622C58.7856 7.28541 58.7874 7.29219 58.7882 7.29528C58.7889 7.29814 58.7892 7.29917 58.7884 7.29581C58.788 7.29406 58.7876 7.29236 58.7868 7.28905C58.7861 7.28617 58.7851 7.28203 58.784 7.27758C58.7819 7.26875 58.7787 7.25559 58.7748 7.24045L57.8074 7.49371L56.84 7.74696C56.8389 7.7429 56.8385 7.7409 56.839 7.74329C56.8393 7.74444 56.8397 7.74592 56.8403 7.74866C56.8408 7.75098 56.8418 7.7549 56.8427 7.75879C56.8461 7.77327 56.8542 7.80684 56.8657 7.8458L57.8243 7.56101ZM57.8074 7.49371L57.7696 6.49442C57.7418 6.49547 57.7172 6.49755 57.6966 6.49983C57.676 6.50211 57.6584 6.50469 57.6449 6.50689C57.6315 6.50907 57.6207 6.51111 57.6142 6.51238C57.6109 6.51302 57.6081 6.51357 57.6065 6.51391C57.6056 6.51408 57.6049 6.51422 57.6045 6.51431C57.6043 6.51436 57.6041 6.51439 57.604 6.51442C57.6039 6.51444 57.6038 6.51446 57.6038 6.51446C57.6035 6.51452 57.6046 6.51428 57.606 6.514C57.6075 6.5137 57.6101 6.51318 57.6133 6.51257C57.6195 6.51136 57.63 6.50939 57.6431 6.50728C57.6563 6.50515 57.6736 6.50265 57.6939 6.50045C57.7143 6.49825 57.7386 6.49626 57.7661 6.49531L57.8005 7.49472L57.835 8.49412C57.8631 8.49315 57.888 8.49112 57.9089 8.48886C57.9298 8.4866 57.9476 8.48401 57.9614 8.48179C57.9751 8.47959 57.9861 8.47752 57.9929 8.4762C57.9964 8.47553 57.9992 8.47496 58.0011 8.4746C58.0027 8.47426 58.0042 8.47397 58.0042 8.47397C58.0046 8.47388 58.0035 8.4741 58.0023 8.47435C58.0009 8.47463 57.9985 8.47512 57.9954 8.47571C57.9894 8.47687 57.9792 8.4788 57.9664 8.48089C57.9535 8.48299 57.9365 8.48549 57.9165 8.48771C57.8964 8.48993 57.8724 8.49196 57.8452 8.49299L57.8074 7.49371ZM57.8005 7.49472L56.8519 7.81119C56.859 7.8322 56.8654 7.8498 56.8697 7.86125C56.8719 7.86706 56.8738 7.8722 56.8752 7.87573C56.8758 7.87746 56.8765 7.87923 56.8769 7.8804C56.8775 7.88173 56.8778 7.88262 56.8781 7.88339C56.8794 7.88694 56.8782 7.88387 56.8763 7.87837C56.8742 7.87247 56.8703 7.86104 56.8657 7.8458L57.8243 7.56101L58.7829 7.27622C58.768 7.22602 58.7521 7.18468 58.7472 7.17189C58.7463 7.16951 58.7439 7.1632 58.7439 7.16309C58.7431 7.16114 58.743 7.16079 58.7431 7.16113C58.7433 7.16162 58.7458 7.16826 58.7491 7.17824L57.8005 7.49472ZM57.8243 7.56101L56.8657 7.84573C56.9131 8.00541 56.9077 8.11301 56.9032 8.13833C56.901 8.15068 56.9065 8.10195 56.9559 8.02643C57.0099 7.94386 57.1299 7.81338 57.3359 7.75195L57.6217 8.71023L57.9075 9.66852C58.604 9.46082 58.8157 8.80994 58.8729 8.48539C58.9417 8.09475 58.8995 7.6689 58.7829 7.27628L57.8243 7.56101ZM57.6217 8.71023L57.3369 7.75164C57.543 7.69043 57.7149 7.73402 57.8051 7.77359C57.8877 7.8098 57.9189 7.84757 57.9103 7.83844C57.8928 7.81974 57.8295 7.73276 57.7822 7.57345L56.8236 7.85831L55.865 8.14317C55.9819 8.53631 56.1795 8.91633 56.4509 9.206C56.6764 9.44664 57.2098 9.87582 57.9065 9.66882L57.6217 8.71023ZM56.8236 7.85831L57.7822 7.57352C57.7478 7.45782 57.7406 7.36173 57.7436 7.30423L56.7451 7.25104L55.7465 7.19784C55.7303 7.502 55.771 7.82672 55.865 8.1431L56.8236 7.85831ZM56.7451 7.25104L57.2171 6.36947C56.9684 6.2363 56.7737 6.01016 56.6877 5.7206L55.7291 6.00539L54.7705 6.29018C55.0149 7.11291 55.5737 7.75814 56.273 8.1326L56.7451 7.25104ZM55.7291 6.00539L56.6877 5.72079C56.5169 5.14528 56.8448 4.54018 57.4202 4.3691L57.1353 3.41057L56.8503 2.45203C55.2164 2.9378 54.2853 4.65589 54.7705 6.29L55.7291 6.00539Z" fill="#220505" mask="url(#path-26-outside-4_20_53)"/>
<rect x="56.2294" y="5.85718" width="3.13099" height="2.08733" transform="rotate(-16.5463 56.2294 5.85718)" fill="#D9D9D9"/>
<circle cx="56.7297" cy="5.70857" r="0.521832" transform="rotate(-16.5463 56.7297 5.70857)" fill="#220505"/>
<circle cx="58.7306" cy="5.11412" r="0.521832" transform="rotate(-16.5463 58.7306 5.11412)" fill="#220505"/>
<path d="M57.8787 5.91156L58.6463 6.90836L57.7799 7.16576L57.8787 5.91156Z" fill="#220505"/>
</svg>
